<?xml version="1.0" encoding="UTF-8" standalone="no"?><svg xmlns="http://www.w3.org/2000/svg" xmlns:xlink="http://www.w3.org/1999/xlink" contentScriptType="application/ecmascript" contentStyleType="text/css" height="180px" preserveAspectRatio="none" style="width:141px;height:180px;" version="1.1" viewBox="0 0 141 180" width="141px" zoomAndPan="magnify"><defs><filter height="300%" id="fhky0uueqk71x" width="300%" x="-1" y="-1"><feGaussianBlur result="blurOut" stdDeviation="2.0"/><feColorMatrix in="blurOut" result="blurOut2" type="matrix" values="0 0 0 0 0 0 0 0 0 0 0 0 0 0 0 0 0 0 .4 0"/><feOffset dx="4.0" dy="4.0" in="blurOut2" result="blurOut3"/><feBlend in="SourceGraphic" in2="blurOut3" mode="normal"/></filter></defs><g><!--MD5=[0ad435caa0648280e68cc5b88f72a15b]
class KeyFlux--><rect fill="#FEFECE" filter="url(#fhky0uueqk71x)" height="53.9375" id="KeyFlux" style="stroke: #A80036; stroke-width: 1.5;" width="83" x="34.5" y="116"/><ellipse cx="49.5" cy="134.9688" fill="#ADD1B2" rx="11" ry="11" style="stroke: #A80036; stroke-width: 1.0;"/><path d="M52.4688,140.6094 Q51.8906,140.9063 51.25,141.0469 Q50.6094,141.2031 49.9063,141.2031 Q47.4063,141.2031 46.0781,139.5625 Q44.7656,137.9063 44.7656,134.7813 Q44.7656,131.6563 46.0781,130 Q47.4063,128.3438 49.9063,128.3438 Q50.6094,128.3438 51.25,128.5 Q51.9063,128.6563 52.4688,128.9531 L52.4688,131.6719 Q51.8438,131.0938 51.25,130.8281 Q50.6563,130.5469 50.0313,130.5469 Q48.6875,130.5469 48,131.625 Q47.3125,132.6875 47.3125,134.7813 Q47.3125,136.875 48,137.9531 Q48.6875,139.0156 50.0313,139.0156 Q50.6563,139.0156 51.25,138.75 Q51.8438,138.4688 52.4688,137.8906 L52.4688,140.6094 Z "/><text fill="#000000" font-family="sans-serif" font-size="12" font-style="italic" lengthAdjust="spacingAndGlyphs" textLength="55" x="61.5" y="132.1387">«sealed»</text><text fill="#000000" font-family="sans-serif" font-size="12" lengthAdjust="spacingAndGlyphs" textLength="45" x="66.5" y="146.1074">KeyFlux</text><line style="stroke: #A80036; stroke-width: 1.5;" x1="35.5" x2="116.5" y1="153.9375" y2="153.9375"/><line style="stroke: #A80036; stroke-width: 1.5;" x1="35.5" x2="116.5" y1="161.9375" y2="161.9375"/><!--MD5=[87cf19e761c160d3cf88c99f1da26708]
class KeyFlux`1--><rect fill="#FEFECE" filter="url(#fhky0uueqk71x)" height="48" id="KeyFlux`1" style="stroke: #A80036; stroke-width: 1.5;" width="102" x="25" y="8"/><ellipse cx="40" cy="24" fill="#ADD1B2" rx="11" ry="11" style="stroke: #A80036; stroke-width: 1.0;"/><path d="M42.9688,29.6406 Q42.3906,29.9375 41.75,30.0781 Q41.1094,30.2344 40.4063,30.2344 Q37.9063,30.2344 36.5781,28.5938 Q35.2656,26.9375 35.2656,23.8125 Q35.2656,20.6875 36.5781,19.0313 Q37.9063,17.375 40.4063,17.375 Q41.1094,17.375 41.75,17.5313 Q42.4063,17.6875 42.9688,17.9844 L42.9688,20.7031 Q42.3438,20.125 41.75,19.8594 Q41.1563,19.5781 40.5313,19.5781 Q39.1875,19.5781 38.5,20.6563 Q37.8125,21.7188 37.8125,23.8125 Q37.8125,25.9063 38.5,26.9844 Q39.1875,28.0469 40.5313,28.0469 Q41.1563,28.0469 41.75,27.7813 Q42.3438,27.5 42.9688,26.9219 L42.9688,29.6406 Z "/><text fill="#000000" font-family="sans-serif" font-size="12" lengthAdjust="spacingAndGlyphs" textLength="59" x="54" y="28.1543">KeyFlux`1</text><rect fill="#FFFFFF" height="15.9688" style="stroke: #000000; stroke-width: 1.0; stroke-dasharray: 2.0,2.0;" width="9" x="121" y="5"/><text fill="#000000" font-family="sans-serif" font-size="12" font-style="italic" lengthAdjust="spacingAndGlyphs" textLength="7" x="122" y="17.1387">T</text><line style="stroke: #A80036; stroke-width: 1.5;" x1="26" x2="126" y1="40" y2="40"/><line style="stroke: #A80036; stroke-width: 1.5;" x1="26" x2="126" y1="48" y2="48"/><!--MD5=[a9eb574cf1482eb5d7f6d6e46410278e]
reverse link KeyFlux`1 to KeyFlux--><path d="M76,76.46 C76,89.8 76,104.06 76,115.86 " fill="none" id="KeyFlux`1&lt;-KeyFlux" style="stroke: #A80036; stroke-width: 1.0;"/><polygon fill="none" points="69,76.12,76,56.12,83,76.12,69,76.12" style="stroke: #A80036; stroke-width: 1.0;"/><text fill="#000000" font-family="sans-serif" font-size="13" lengthAdjust="spacingAndGlyphs" textLength="70" x="-2.5313" y="75.9105">&lt;KeyFlux&gt;</text><!--MD5=[fd00ebb6472513632234c9d79e0fb2be]
@startuml
class KeyFlux <<sealed>> {
}
class "KeyFlux`1"<T> {
}
"KeyFlux`1" "<KeyFlux>" <|- - KeyFlux
@enduml

PlantUML version 1.2020.02(Sun Mar 01 10:22:07 GMT 2020)
(GPL source distribution)
Java Runtime: OpenJDK Runtime Environment
JVM: OpenJDK 64-Bit Server VM
Java Version: 11.0.9+11-Ubuntu-0ubuntu1
Operating System: Linux
Default Encoding: ANSI_X3.4-1968
Language: en
Country: US
--></g></svg>