<?xml version="1.0" encoding="UTF-8" standalone="no"?><svg xmlns="http://www.w3.org/2000/svg" xmlns:xlink="http://www.w3.org/1999/xlink" contentScriptType="application/ecmascript" contentStyleType="text/css" height="315px" preserveAspectRatio="none" style="width:402px;height:315px;" version="1.1" viewBox="0 0 402 315" width="402px" zoomAndPan="magnify"><defs><filter height="300%" id="f5cxjzukxk3il" width="300%" x="-1" y="-1"><feGaussianBlur result="blurOut" stdDeviation="2.0"/><feColorMatrix in="blurOut" result="blurOut2" type="matrix" values="0 0 0 0 0 0 0 0 0 0 0 0 0 0 0 0 0 0 .4 0"/><feOffset dx="4.0" dy="4.0" in="blurOut2" result="blurOut3"/><feBlend in="SourceGraphic" in2="blurOut3" mode="normal"/></filter></defs><g><!--MD5=[65c72e0eabe6a1f7145a04888c1398b3]
class KeyFluxBase--><rect fill="#FEFECE" filter="url(#f5cxjzukxk3il)" height="188.8516" id="KeyFluxBase" style="stroke: #A80036; stroke-width: 1.5;" width="385" x="6" y="116"/><ellipse cx="155.25" cy="132" fill="#A9DCDF" rx="11" ry="11" style="stroke: #A80036; stroke-width: 1.0;"/><path d="M155.3594,127.3438 L154.2031,132.4219 L156.5313,132.4219 L155.3594,127.3438 Z M153.875,125.1094 L156.8594,125.1094 L160.2188,137.5 L157.7656,137.5 L157,134.4375 L153.7188,134.4375 L152.9688,137.5 L150.5313,137.5 L153.875,125.1094 Z "/><text fill="#000000" font-family="sans-serif" font-size="12" font-style="italic" lengthAdjust="spacingAndGlyphs" textLength="78" x="175.75" y="136.1543">KeyFluxBase</text><line style="stroke: #A80036; stroke-width: 1.5;" x1="7" x2="390" y1="148" y2="148"/><text fill="#000000" font-family="sans-serif" font-size="11" lengthAdjust="spacingAndGlyphs" textLength="102" x="12" y="162.2104">Key : object «get»</text><line style="stroke: #A80036; stroke-width: 1.5;" x1="7" x2="390" y1="168.8047" y2="168.8047"/><ellipse cx="17" cy="179.8047" fill="#84BE84" rx="3" ry="3" style="stroke: #038048; stroke-width: 1.0;"/><text fill="#000000" font-family="sans-serif" font-size="11" lengthAdjust="spacingAndGlyphs" textLength="297" x="26" y="183.0151">«virtual» Store(callback:Action, condition:bool) : void</text><ellipse cx="17" cy="192.6094" fill="#84BE84" rx="3" ry="3" style="stroke: #038048; stroke-width: 1.0;"/><text fill="#000000" font-family="sans-serif" font-size="11" lengthAdjust="spacingAndGlyphs" textLength="145" x="26" y="195.8198">«virtual» Dispatch() : void</text><ellipse cx="17" cy="205.4141" fill="#84BE84" rx="3" ry="3" style="stroke: #038048; stroke-width: 1.0;"/><text fill="#000000" font-family="sans-serif" font-size="11" lengthAdjust="spacingAndGlyphs" textLength="329" x="26" y="208.6245">«virtual» Store(callback:Action&lt;T2&gt;, condition:bool) : void</text><ellipse cx="17" cy="218.2188" fill="#84BE84" rx="3" ry="3" style="stroke: #038048; stroke-width: 1.0;"/><text fill="#000000" font-family="sans-serif" font-size="11" lengthAdjust="spacingAndGlyphs" textLength="212" x="26" y="221.4292">«virtual» Dispatch(@param:T2) : void</text><ellipse cx="17" cy="231.0234" fill="#84BE84" rx="3" ry="3" style="stroke: #038048; stroke-width: 1.0;"/><text fill="#000000" font-family="sans-serif" font-size="11" lengthAdjust="spacingAndGlyphs" textLength="321" x="26" y="234.2339">«virtual» Store(callback:Func&lt;T2&gt;, condition:bool) : void</text><ellipse cx="17" cy="243.8281" fill="#84BE84" rx="3" ry="3" style="stroke: #038048; stroke-width: 1.0;"/><text fill="#000000" font-family="sans-serif" font-size="11" lengthAdjust="spacingAndGlyphs" textLength="136" x="26" y="247.0386">«virtual» Dispatch() : T2</text><ellipse cx="17" cy="256.6328" fill="#84BE84" rx="3" ry="3" style="stroke: #038048; stroke-width: 1.0;"/><text fill="#000000" font-family="sans-serif" font-size="11" lengthAdjust="spacingAndGlyphs" textLength="343" x="26" y="259.8433">«virtual» Store(callback:Func&lt;T2, T3&gt;, condition:bool) : void</text><ellipse cx="17" cy="269.4375" fill="#84BE84" rx="3" ry="3" style="stroke: #038048; stroke-width: 1.0;"/><text fill="#000000" font-family="sans-serif" font-size="11" lengthAdjust="spacingAndGlyphs" textLength="203" x="26" y="272.6479">«virtual» Dispatch(@param:T2) : T3</text><ellipse cx="17" cy="282.2422" fill="#84BE84" rx="3" ry="3" style="stroke: #038048; stroke-width: 1.0;"/><text fill="#000000" font-family="sans-serif" font-size="11" lengthAdjust="spacingAndGlyphs" textLength="359" x="26" y="285.4526">«virtual» StoreState(callback:Action&lt;T2&gt;, condition:bool) : void</text><ellipse cx="17" cy="295.0469" fill="#84BE84" rx="3" ry="3" style="stroke: #038048; stroke-width: 1.0;"/><text fill="#000000" font-family="sans-serif" font-size="11" lengthAdjust="spacingAndGlyphs" textLength="242" x="26" y="298.2573">«virtual» DispatchState(@param:T2) : void</text><!--MD5=[44895057fba17b10f3053a7baa21df04]
class ScriptableObject--><rect fill="#FEFECE" filter="url(#f5cxjzukxk3il)" height="48" id="ScriptableObject" style="stroke: #A80036; stroke-width: 1.5;" width="135" x="60" y="8"/><ellipse cx="75" cy="24" fill="#ADD1B2" rx="11" ry="11" style="stroke: #A80036; stroke-width: 1.0;"/><path d="M77.9688,29.6406 Q77.3906,29.9375 76.75,30.0781 Q76.1094,30.2344 75.4063,30.2344 Q72.9063,30.2344 71.5781,28.5938 Q70.2656,26.9375 70.2656,23.8125 Q70.2656,20.6875 71.5781,19.0313 Q72.9063,17.375 75.4063,17.375 Q76.1094,17.375 76.75,17.5313 Q77.4063,17.6875 77.9688,17.9844 L77.9688,20.7031 Q77.3438,20.125 76.75,19.8594 Q76.1563,19.5781 75.5313,19.5781 Q74.1875,19.5781 73.5,20.6563 Q72.8125,21.7188 72.8125,23.8125 Q72.8125,25.9063 73.5,26.9844 Q74.1875,28.0469 75.5313,28.0469 Q76.1563,28.0469 76.75,27.7813 Q77.3438,27.5 77.9688,26.9219 L77.9688,29.6406 Z "/><text fill="#000000" font-family="sans-serif" font-size="12" lengthAdjust="spacingAndGlyphs" textLength="103" x="89" y="28.1543">ScriptableObject</text><line style="stroke: #A80036; stroke-width: 1.5;" x1="61" x2="194" y1="40" y2="40"/><line style="stroke: #A80036; stroke-width: 1.5;" x1="61" x2="194" y1="48" y2="48"/><!--MD5=[927af2fc15ea35f07de2863c907d321d]
class IKeyFlux--><rect fill="#FEFECE" filter="url(#f5cxjzukxk3il)" height="48" id="IKeyFlux" style="stroke: #A80036; stroke-width: 1.5;" width="80" x="230.5" y="8"/><ellipse cx="245.5" cy="24" fill="#ADD1B2" rx="11" ry="11" style="stroke: #A80036; stroke-width: 1.0;"/><path d="M248.4688,29.6406 Q247.8906,29.9375 247.25,30.0781 Q246.6094,30.2344 245.9063,30.2344 Q243.4063,30.2344 242.0781,28.5938 Q240.7656,26.9375 240.7656,23.8125 Q240.7656,20.6875 242.0781,19.0313 Q243.4063,17.375 245.9063,17.375 Q246.6094,17.375 247.25,17.5313 Q247.9063,17.6875 248.4688,17.9844 L248.4688,20.7031 Q247.8438,20.125 247.25,19.8594 Q246.6563,19.5781 246.0313,19.5781 Q244.6875,19.5781 244,20.6563 Q243.3125,21.7188 243.3125,23.8125 Q243.3125,25.9063 244,26.9844 Q244.6875,28.0469 246.0313,28.0469 Q246.6563,28.0469 247.25,27.7813 Q247.8438,27.5 248.4688,26.9219 L248.4688,29.6406 Z "/><text fill="#000000" font-family="sans-serif" font-size="12" lengthAdjust="spacingAndGlyphs" textLength="48" x="259.5" y="28.1543">IKeyFlux</text><line style="stroke: #A80036; stroke-width: 1.5;" x1="231.5" x2="309.5" y1="40" y2="40"/><line style="stroke: #A80036; stroke-width: 1.5;" x1="231.5" x2="309.5" y1="48" y2="48"/><!--MD5=[02b7eb6ec09eb5d24003dc009ec2fb47]
reverse link ScriptableObject to KeyFluxBase--><path d="M144.4,75.02 C149.37,87.37 155.02,101.41 160.75,115.65 " fill="none" id="ScriptableObject&lt;-KeyFluxBase" style="stroke: #A80036; stroke-width: 1.0;"/><polygon fill="none" points="137.75,77.24,136.78,56.07,150.74,72.02,137.75,77.24" style="stroke: #A80036; stroke-width: 1.0;"/><!--MD5=[1239c92725ded09337ee67951fdcedb8]
reverse link IKeyFlux to KeyFluxBase--><path d="M253.36,75.02 C248.32,87.37 242.59,101.41 236.78,115.65 " fill="none" id="IKeyFlux&lt;-KeyFluxBase" style="stroke: #A80036; stroke-width: 1.0;"/><polygon fill="none" points="247.05,71.95,261.09,56.07,260.01,77.24,247.05,71.95" style="stroke: #A80036; stroke-width: 1.0;"/><!--MD5=[a94f0b3c0b94b5bdfadb19e17ed4d7a5]
@startuml
abstract class KeyFluxBase {
    Key : object <<get>>
    + <<virtual>> Store(callback:Action, condition:bool) : void
    + <<virtual>> Dispatch() : void
    + <<virtual>> Store(callback:Action<T2>, condition:bool) : void
    + <<virtual>> Dispatch(@param:T2) : void
    + <<virtual>> Store(callback:Func<T2>, condition:bool) : void
    + <<virtual>> Dispatch() : T2
    + <<virtual>> Store(callback:Func<T2, T3>, condition:bool) : void
    + <<virtual>> Dispatch(@param:T2) : T3
    + <<virtual>> StoreState(callback:Action<T2>, condition:bool) : void
    + <<virtual>> DispatchState(@param:T2) : void
}
ScriptableObject <|- - KeyFluxBase
IKeyFlux <|- - KeyFluxBase
@enduml

PlantUML version 1.2020.02(Sun Mar 01 10:22:07 GMT 2020)
(GPL source distribution)
Java Runtime: OpenJDK Runtime Environment
JVM: OpenJDK 64-Bit Server VM
Java Version: 11.0.9+11-Ubuntu-0ubuntu1
Operating System: Linux
Default Encoding: ANSI_X3.4-1968
Language: en
Country: US
--></g></svg>