<?xml version="1.0" encoding="UTF-8" standalone="no"?><svg xmlns="http://www.w3.org/2000/svg" xmlns:xlink="http://www.w3.org/1999/xlink" contentScriptType="application/ecmascript" contentStyleType="text/css" height="200px" preserveAspectRatio="none" style="width:178px;height:200px;" version="1.1" viewBox="0 0 178 200" width="178px" zoomAndPan="magnify"><defs><filter height="300%" id="fhuyog2smmajb" width="300%" x="-1" y="-1"><feGaussianBlur result="blurOut" stdDeviation="2.0"/><feColorMatrix in="blurOut" result="blurOut2" type="matrix" values="0 0 0 0 0 0 0 0 0 0 0 0 0 0 0 0 0 0 .4 0"/><feOffset dx="4.0" dy="4.0" in="blurOut2" result="blurOut3"/><feBlend in="SourceGraphic" in2="blurOut3" mode="normal"/></filter></defs><g><!--MD5=[e1ba27c0eed10b8b87fa07fe861fb01d]
class FluxAttribute--><rect fill="#FEFECE" filter="url(#fhuyog2smmajb)" height="73.6094" id="FluxAttribute" style="stroke: #A80036; stroke-width: 1.5;" width="161" x="6" y="116"/><ellipse cx="43.5" cy="132" fill="#ADD1B2" rx="11" ry="11" style="stroke: #A80036; stroke-width: 1.0;"/><path d="M46.4688,137.6406 Q45.8906,137.9375 45.25,138.0781 Q44.6094,138.2344 43.9063,138.2344 Q41.4063,138.2344 40.0781,136.5938 Q38.7656,134.9375 38.7656,131.8125 Q38.7656,128.6875 40.0781,127.0313 Q41.4063,125.375 43.9063,125.375 Q44.6094,125.375 45.25,125.5313 Q45.9063,125.6875 46.4688,125.9844 L46.4688,128.7031 Q45.8438,128.125 45.25,127.8594 Q44.6563,127.5781 44.0313,127.5781 Q42.6875,127.5781 42,128.6563 Q41.3125,129.7188 41.3125,131.8125 Q41.3125,133.9063 42,134.9844 Q42.6875,136.0469 44.0313,136.0469 Q44.6563,136.0469 45.25,135.7813 Q45.8438,135.5 46.4688,134.9219 L46.4688,137.6406 Z "/><text fill="#000000" font-family="sans-serif" font-size="12" lengthAdjust="spacingAndGlyphs" textLength="79" x="62.5" y="136.1543">FluxAttribute</text><line style="stroke: #A80036; stroke-width: 1.5;" x1="7" x2="166" y1="148" y2="148"/><ellipse cx="17" cy="159" fill="none" rx="3" ry="3" style="stroke: #038048; stroke-width: 1.0;"/><text fill="#000000" font-family="sans-serif" font-size="11" lengthAdjust="spacingAndGlyphs" textLength="132" x="26" y="162.2104">«readonly» key : object</text><line style="stroke: #A80036; stroke-width: 1.5;" x1="7" x2="166" y1="168.8047" y2="168.8047"/><ellipse cx="17" cy="179.8047" fill="#84BE84" rx="3" ry="3" style="stroke: #038048; stroke-width: 1.0;"/><text fill="#000000" font-family="sans-serif" font-size="11" lengthAdjust="spacingAndGlyphs" textLength="135" x="26" y="183.0151">FluxAttribute(key:object)</text><!--MD5=[787494ff879e99315e413996e631a796]
class Attribute--><rect fill="#FEFECE" filter="url(#fhuyog2smmajb)" height="48" id="Attribute" style="stroke: #A80036; stroke-width: 1.5;" width="87" x="43" y="8"/><ellipse cx="58" cy="24" fill="#ADD1B2" rx="11" ry="11" style="stroke: #A80036; stroke-width: 1.0;"/><path d="M60.9688,29.6406 Q60.3906,29.9375 59.75,30.0781 Q59.1094,30.2344 58.4063,30.2344 Q55.9063,30.2344 54.5781,28.5938 Q53.2656,26.9375 53.2656,23.8125 Q53.2656,20.6875 54.5781,19.0313 Q55.9063,17.375 58.4063,17.375 Q59.1094,17.375 59.75,17.5313 Q60.4063,17.6875 60.9688,17.9844 L60.9688,20.7031 Q60.3438,20.125 59.75,19.8594 Q59.1563,19.5781 58.5313,19.5781 Q57.1875,19.5781 56.5,20.6563 Q55.8125,21.7188 55.8125,23.8125 Q55.8125,25.9063 56.5,26.9844 Q57.1875,28.0469 58.5313,28.0469 Q59.1563,28.0469 59.75,27.7813 Q60.3438,27.5 60.9688,26.9219 L60.9688,29.6406 Z "/><text fill="#000000" font-family="sans-serif" font-size="12" lengthAdjust="spacingAndGlyphs" textLength="55" x="72" y="28.1543">Attribute</text><line style="stroke: #A80036; stroke-width: 1.5;" x1="44" x2="129" y1="40" y2="40"/><line style="stroke: #A80036; stroke-width: 1.5;" x1="44" x2="129" y1="48" y2="48"/><!--MD5=[4adc477cd4be58ed174fa04878e82afc]
reverse link Attribute to FluxAttribute--><path d="M86.5,76.43 C86.5,89.33 86.5,103.32 86.5,115.71 " fill="none" id="Attribute&lt;-FluxAttribute" style="stroke: #A80036; stroke-width: 1.0;"/><polygon fill="none" points="79.5,76.23,86.5,56.23,93.5,76.23,79.5,76.23" style="stroke: #A80036; stroke-width: 1.0;"/><!--MD5=[730979653030cd185dfe51e6de42a4bf]
@startuml
class FluxAttribute {
    + <<readonly>> key : object
    + FluxAttribute(key:object)
}
Attribute <|- - FluxAttribute
@enduml

PlantUML version 1.2020.02(Sun Mar 01 10:22:07 GMT 2020)
(GPL source distribution)
Java Runtime: OpenJDK Runtime Environment
JVM: OpenJDK 64-Bit Server VM
Java Version: 11.0.9+11-Ubuntu-0ubuntu1
Operating System: Linux
Default Encoding: ANSI_X3.4-1968
Language: en
Country: US
--></g></svg>