<?xml version="1.0" encoding="UTF-8" standalone="no"?><svg xmlns="http://www.w3.org/2000/svg" xmlns:xlink="http://www.w3.org/1999/xlink" contentScriptType="application/ecmascript" contentStyleType="text/css" height="187px" preserveAspectRatio="none" style="width:219px;height:187px;" version="1.1" viewBox="0 0 219 187" width="219px" zoomAndPan="magnify"><defs><filter height="300%" id="fa25wi803pulz" width="300%" x="-1" y="-1"><feGaussianBlur result="blurOut" stdDeviation="2.0"/><feColorMatrix in="blurOut" result="blurOut2" type="matrix" values="0 0 0 0 0 0 0 0 0 0 0 0 0 0 0 0 0 0 .4 0"/><feOffset dx="4.0" dy="4.0" in="blurOut2" result="blurOut3"/><feBlend in="SourceGraphic" in2="blurOut3" mode="normal"/></filter></defs><g><!--MD5=[440b42054a9d5390024afb9d906ce808]
class MethodFluxAttribute--><rect fill="#FEFECE" filter="url(#fa25wi803pulz)" height="60.8047" id="MethodFluxAttribute" style="stroke: #A80036; stroke-width: 1.5;" width="202" x="6" y="116"/><ellipse cx="40.8" cy="132" fill="#ADD1B2" rx="11" ry="11" style="stroke: #A80036; stroke-width: 1.0;"/><path d="M43.7688,137.6406 Q43.1906,137.9375 42.55,138.0781 Q41.9094,138.2344 41.2063,138.2344 Q38.7063,138.2344 37.3781,136.5938 Q36.0656,134.9375 36.0656,131.8125 Q36.0656,128.6875 37.3781,127.0313 Q38.7063,125.375 41.2063,125.375 Q41.9094,125.375 42.55,125.5313 Q43.2063,125.6875 43.7688,125.9844 L43.7688,128.7031 Q43.1438,128.125 42.55,127.8594 Q41.9563,127.5781 41.3313,127.5781 Q39.9875,127.5781 39.3,128.6563 Q38.6125,129.7188 38.6125,131.8125 Q38.6125,133.9063 39.3,134.9844 Q39.9875,136.0469 41.3313,136.0469 Q41.9563,136.0469 42.55,135.7813 Q43.1438,135.5 43.7688,134.9219 L43.7688,137.6406 Z "/><text fill="#000000" font-family="sans-serif" font-size="12" lengthAdjust="spacingAndGlyphs" textLength="126" x="59.2" y="136.1543">MethodFluxAttribute</text><line style="stroke: #A80036; stroke-width: 1.5;" x1="7" x2="207" y1="148" y2="148"/><line style="stroke: #A80036; stroke-width: 1.5;" x1="7" x2="207" y1="156" y2="156"/><ellipse cx="17" cy="167" fill="#84BE84" rx="3" ry="3" style="stroke: #038048; stroke-width: 1.0;"/><text fill="#000000" font-family="sans-serif" font-size="11" lengthAdjust="spacingAndGlyphs" textLength="176" x="26" y="170.2104">MethodFluxAttribute(key:object)</text><!--MD5=[e1ba27c0eed10b8b87fa07fe861fb01d]
class FluxAttribute--><rect fill="#FEFECE" filter="url(#fa25wi803pulz)" height="48" id="FluxAttribute" style="stroke: #A80036; stroke-width: 1.5;" width="111" x="51.5" y="8"/><ellipse cx="66.5" cy="24" fill="#ADD1B2" rx="11" ry="11" style="stroke: #A80036; stroke-width: 1.0;"/><path d="M69.4688,29.6406 Q68.8906,29.9375 68.25,30.0781 Q67.6094,30.2344 66.9063,30.2344 Q64.4063,30.2344 63.0781,28.5938 Q61.7656,26.9375 61.7656,23.8125 Q61.7656,20.6875 63.0781,19.0313 Q64.4063,17.375 66.9063,17.375 Q67.6094,17.375 68.25,17.5313 Q68.9063,17.6875 69.4688,17.9844 L69.4688,20.7031 Q68.8438,20.125 68.25,19.8594 Q67.6563,19.5781 67.0313,19.5781 Q65.6875,19.5781 65,20.6563 Q64.3125,21.7188 64.3125,23.8125 Q64.3125,25.9063 65,26.9844 Q65.6875,28.0469 67.0313,28.0469 Q67.6563,28.0469 68.25,27.7813 Q68.8438,27.5 69.4688,26.9219 L69.4688,29.6406 Z "/><text fill="#000000" font-family="sans-serif" font-size="12" lengthAdjust="spacingAndGlyphs" textLength="79" x="80.5" y="28.1543">FluxAttribute</text><line style="stroke: #A80036; stroke-width: 1.5;" x1="52.5" x2="161.5" y1="40" y2="40"/><line style="stroke: #A80036; stroke-width: 1.5;" x1="52.5" x2="161.5" y1="48" y2="48"/><!--MD5=[d70cae0ecd24d0d0bf4c08214ff78c29]
reverse link FluxAttribute to MethodFluxAttribute--><path d="M107,76.11 C107,89.31 107,103.54 107,115.65 " fill="none" id="FluxAttribute&lt;-MethodFluxAttribute" style="stroke: #A80036; stroke-width: 1.0;"/><polygon fill="none" points="100,76.04,107,56.04,114,76.04,100,76.04" style="stroke: #A80036; stroke-width: 1.0;"/><!--MD5=[4aea7a1e32a0a20bb65a3bcbb57c1516]
@startuml
class MethodFluxAttribute {
    + MethodFluxAttribute(key:object)
}
FluxAttribute <|- - MethodFluxAttribute
@enduml

PlantUML version 1.2020.02(Sun Mar 01 10:22:07 GMT 2020)
(GPL source distribution)
Java Runtime: OpenJDK Runtime Environment
JVM: OpenJDK 64-Bit Server VM
Java Version: 11.0.9+11-Ubuntu-0ubuntu1
Operating System: Linux
Default Encoding: ANSI_X3.4-1968
Language: en
Country: US
--></g></svg>