<?xml version="1.0" encoding="UTF-8" standalone="no"?><svg xmlns="http://www.w3.org/2000/svg" xmlns:xlink="http://www.w3.org/1999/xlink" contentScriptType="application/ecmascript" contentStyleType="text/css" height="187px" preserveAspectRatio="none" style="width:208px;height:187px;" version="1.1" viewBox="0 0 208 187" width="208px" zoomAndPan="magnify"><defs><filter height="300%" id="f1ftno9cnkswxk" width="300%" x="-1" y="-1"><feGaussianBlur result="blurOut" stdDeviation="2.0"/><feColorMatrix in="blurOut" result="blurOut2" type="matrix" values="0 0 0 0 0 0 0 0 0 0 0 0 0 0 0 0 0 0 .4 0"/><feOffset dx="4.0" dy="4.0" in="blurOut2" result="blurOut3"/><feBlend in="SourceGraphic" in2="blurOut3" mode="normal"/></filter></defs><g><!--MD5=[158adad469e0d11f530dd4544755d77f]
class StateFluxAttribute--><rect fill="#FEFECE" filter="url(#f1ftno9cnkswxk)" height="60.8047" id="StateFluxAttribute" style="stroke: #A80036; stroke-width: 1.5;" width="191" x="6" y="116"/><ellipse cx="41.7" cy="132" fill="#ADD1B2" rx="11" ry="11" style="stroke: #A80036; stroke-width: 1.0;"/><path d="M44.6688,137.6406 Q44.0906,137.9375 43.45,138.0781 Q42.8094,138.2344 42.1063,138.2344 Q39.6063,138.2344 38.2781,136.5938 Q36.9656,134.9375 36.9656,131.8125 Q36.9656,128.6875 38.2781,127.0313 Q39.6063,125.375 42.1063,125.375 Q42.8094,125.375 43.45,125.5313 Q44.1063,125.6875 44.6688,125.9844 L44.6688,128.7031 Q44.0438,128.125 43.45,127.8594 Q42.8563,127.5781 42.2313,127.5781 Q40.8875,127.5781 40.2,128.6563 Q39.5125,129.7188 39.5125,131.8125 Q39.5125,133.9063 40.2,134.9844 Q40.8875,136.0469 42.2313,136.0469 Q42.8563,136.0469 43.45,135.7813 Q44.0438,135.5 44.6688,134.9219 L44.6688,137.6406 Z "/><text fill="#000000" font-family="sans-serif" font-size="12" lengthAdjust="spacingAndGlyphs" textLength="113" x="60.3" y="136.1543">StateFluxAttribute</text><line style="stroke: #A80036; stroke-width: 1.5;" x1="7" x2="196" y1="148" y2="148"/><line style="stroke: #A80036; stroke-width: 1.5;" x1="7" x2="196" y1="156" y2="156"/><ellipse cx="17" cy="167" fill="#84BE84" rx="3" ry="3" style="stroke: #038048; stroke-width: 1.0;"/><text fill="#000000" font-family="sans-serif" font-size="11" lengthAdjust="spacingAndGlyphs" textLength="165" x="26" y="170.2104">StateFluxAttribute(key:object)</text><!--MD5=[440b42054a9d5390024afb9d906ce808]
class MethodFluxAttribute--><rect fill="#FEFECE" filter="url(#f1ftno9cnkswxk)" height="48" id="MethodFluxAttribute" style="stroke: #A80036; stroke-width: 1.5;" width="158" x="22.5" y="8"/><ellipse cx="37.5" cy="24" fill="#ADD1B2" rx="11" ry="11" style="stroke: #A80036; stroke-width: 1.0;"/><path d="M40.4688,29.6406 Q39.8906,29.9375 39.25,30.0781 Q38.6094,30.2344 37.9063,30.2344 Q35.4063,30.2344 34.0781,28.5938 Q32.7656,26.9375 32.7656,23.8125 Q32.7656,20.6875 34.0781,19.0313 Q35.4063,17.375 37.9063,17.375 Q38.6094,17.375 39.25,17.5313 Q39.9063,17.6875 40.4688,17.9844 L40.4688,20.7031 Q39.8438,20.125 39.25,19.8594 Q38.6563,19.5781 38.0313,19.5781 Q36.6875,19.5781 36,20.6563 Q35.3125,21.7188 35.3125,23.8125 Q35.3125,25.9063 36,26.9844 Q36.6875,28.0469 38.0313,28.0469 Q38.6563,28.0469 39.25,27.7813 Q39.8438,27.5 40.4688,26.9219 L40.4688,29.6406 Z "/><text fill="#000000" font-family="sans-serif" font-size="12" lengthAdjust="spacingAndGlyphs" textLength="126" x="51.5" y="28.1543">MethodFluxAttribute</text><line style="stroke: #A80036; stroke-width: 1.5;" x1="23.5" x2="179.5" y1="40" y2="40"/><line style="stroke: #A80036; stroke-width: 1.5;" x1="23.5" x2="179.5" y1="48" y2="48"/><!--MD5=[dc9e68c7d93f09f8713c8fce68a2a9b8]
reverse link MethodFluxAttribute to StateFluxAttribute--><path d="M101.5,76.11 C101.5,89.31 101.5,103.54 101.5,115.65 " fill="none" id="MethodFluxAttribute&lt;-StateFluxAttribute" style="stroke: #A80036; stroke-width: 1.0;"/><polygon fill="none" points="94.5,76.04,101.5,56.04,108.5,76.04,94.5,76.04" style="stroke: #A80036; stroke-width: 1.0;"/><!--MD5=[cefc0d2655523d7cd1fb3b488fa64891]
@startuml
class StateFluxAttribute {
    + StateFluxAttribute(key:object)
}
MethodFluxAttribute <|- - StateFluxAttribute
@enduml

PlantUML version 1.2020.02(Sun Mar 01 10:22:07 GMT 2020)
(GPL source distribution)
Java Runtime: OpenJDK Runtime Environment
JVM: OpenJDK 64-Bit Server VM
Java Version: 11.0.9+11-Ubuntu-0ubuntu1
Operating System: Linux
Default Encoding: ANSI_X3.4-1968
Language: en
Country: US
--></g></svg>