<?xml version="1.0" encoding="UTF-8" standalone="no"?><svg xmlns="http://www.w3.org/2000/svg" xmlns:xlink="http://www.w3.org/1999/xlink" contentScriptType="application/ecmascript" contentStyleType="text/css" height="187px" preserveAspectRatio="none" style="width:129px;height:187px;" version="1.1" viewBox="0 0 129 187" width="129px" zoomAndPan="magnify"><defs><filter height="300%" id="fayi54ftkkz6l" width="300%" x="-1" y="-1"><feGaussianBlur result="blurOut" stdDeviation="2.0"/><feColorMatrix in="blurOut" result="blurOut2" type="matrix" values="0 0 0 0 0 0 0 0 0 0 0 0 0 0 0 0 0 0 .4 0"/><feOffset dx="4.0" dy="4.0" in="blurOut2" result="blurOut3"/><feBlend in="SourceGraphic" in2="blurOut3" mode="normal"/></filter></defs><g><!--MD5=[e3ce6f91f483aeca6c36a3c649340c00]
class IKeyFlux`1--><rect fill="#FEFECE" filter="url(#fayi54ftkkz6l)" height="60.8047" id="IKeyFlux`1" style="stroke: #A80036; stroke-width: 1.5;" width="109" x="6" y="116"/><ellipse cx="21" cy="132" fill="#B4A7E5" rx="11" ry="11" style="stroke: #A80036; stroke-width: 1.0;"/><path d="M16.9219,127.7656 L16.9219,125.6094 L24.3125,125.6094 L24.3125,127.7656 L21.8438,127.7656 L21.8438,135.8438 L24.3125,135.8438 L24.3125,138 L16.9219,138 L16.9219,135.8438 L19.3906,135.8438 L19.3906,127.7656 L16.9219,127.7656 Z "/><text fill="#000000" font-family="sans-serif" font-size="12" font-style="italic" lengthAdjust="spacingAndGlyphs" textLength="66" x="35" y="136.1543">IKeyFlux`1</text><rect fill="#FFFFFF" height="15.9688" style="stroke: #000000; stroke-width: 1.0; stroke-dasharray: 2.0,2.0;" width="9" x="109" y="113"/><text fill="#000000" font-family="sans-serif" font-size="12" font-style="italic" lengthAdjust="spacingAndGlyphs" textLength="7" x="110" y="125.1387">T</text><line style="stroke: #A80036; stroke-width: 1.5;" x1="7" x2="114" y1="148" y2="148"/><text fill="#000000" font-family="sans-serif" font-size="11" lengthAdjust="spacingAndGlyphs" textLength="82" x="12" y="162.2104">KeyT : T «get»</text><line style="stroke: #A80036; stroke-width: 1.5;" x1="7" x2="114" y1="168.8047" y2="168.8047"/><!--MD5=[927af2fc15ea35f07de2863c907d321d]
class IKeyFlux--><rect fill="#FEFECE" filter="url(#fayi54ftkkz6l)" height="48" id="IKeyFlux" style="stroke: #A80036; stroke-width: 1.5;" width="80" x="20.5" y="8"/><ellipse cx="35.5" cy="24" fill="#ADD1B2" rx="11" ry="11" style="stroke: #A80036; stroke-width: 1.0;"/><path d="M38.4688,29.6406 Q37.8906,29.9375 37.25,30.0781 Q36.6094,30.2344 35.9063,30.2344 Q33.4063,30.2344 32.0781,28.5938 Q30.7656,26.9375 30.7656,23.8125 Q30.7656,20.6875 32.0781,19.0313 Q33.4063,17.375 35.9063,17.375 Q36.6094,17.375 37.25,17.5313 Q37.9063,17.6875 38.4688,17.9844 L38.4688,20.7031 Q37.8438,20.125 37.25,19.8594 Q36.6563,19.5781 36.0313,19.5781 Q34.6875,19.5781 34,20.6563 Q33.3125,21.7188 33.3125,23.8125 Q33.3125,25.9063 34,26.9844 Q34.6875,28.0469 36.0313,28.0469 Q36.6563,28.0469 37.25,27.7813 Q37.8438,27.5 38.4688,26.9219 L38.4688,29.6406 Z "/><text fill="#000000" font-family="sans-serif" font-size="12" lengthAdjust="spacingAndGlyphs" textLength="48" x="49.5" y="28.1543">IKeyFlux</text><line style="stroke: #A80036; stroke-width: 1.5;" x1="21.5" x2="99.5" y1="40" y2="40"/><line style="stroke: #A80036; stroke-width: 1.5;" x1="21.5" x2="99.5" y1="48" y2="48"/><!--MD5=[fa046f75b1e3d27d18b6798f02b19ad9]
reverse link IKeyFlux to IKeyFlux`1--><path d="M60.5,76.11 C60.5,89.31 60.5,103.54 60.5,115.65 " fill="none" id="IKeyFlux&lt;-IKeyFlux`1" style="stroke: #A80036; stroke-width: 1.0;"/><polygon fill="none" points="53.5,76.04,60.5,56.04,67.5,76.04,53.5,76.04" style="stroke: #A80036; stroke-width: 1.0;"/><!--MD5=[f6ba53ad6102ab3b3848578a971d78fe]
@startuml
interface "IKeyFlux`1"<T> {
    KeyT : T <<get>>
}
IKeyFlux <|- - "IKeyFlux`1"
@enduml

PlantUML version 1.2020.02(Sun Mar 01 10:22:07 GMT 2020)
(GPL source distribution)
Java Runtime: OpenJDK Runtime Environment
JVM: OpenJDK 64-Bit Server VM
Java Version: 11.0.9+11-Ubuntu-0ubuntu1
Operating System: Linux
Default Encoding: ANSI_X3.4-1968
Language: en
Country: US
--></g></svg>