<?xml version="1.0" encoding="UTF-8" standalone="no"?><svg xmlns="http://www.w3.org/2000/svg" xmlns:xlink="http://www.w3.org/1999/xlink" contentScriptType="application/ecmascript" contentStyleType="text/css" height="206px" preserveAspectRatio="none" style="width:403px;height:206px;" version="1.1" viewBox="0 0 403 206" width="403px" zoomAndPan="magnify"><defs><filter height="300%" id="fcfqag5ygtbhz" width="300%" x="-1" y="-1"><feGaussianBlur result="blurOut" stdDeviation="2.0"/><feColorMatrix in="blurOut" result="blurOut2" type="matrix" values="0 0 0 0 0 0 0 0 0 0 0 0 0 0 0 0 0 0 .4 0"/><feOffset dx="4.0" dy="4.0" in="blurOut2" result="blurOut3"/><feBlend in="SourceGraphic" in2="blurOut3" mode="normal"/></filter></defs><g><!--MD5=[1432a853e576288dbb5c0a87d56334c8]
class FuncFlux`2--><rect fill="#FEFECE" filter="url(#fcfqag5ygtbhz)" height="79.5469" id="FuncFlux`2" style="stroke: #A80036; stroke-width: 1.5;" width="347" x="42.5" y="116"/><ellipse cx="134.25" cy="134.9688" fill="#ADD1B2" rx="11" ry="11" style="stroke: #A80036; stroke-width: 1.0;"/><path d="M137.2188,140.6094 Q136.6406,140.9063 136,141.0469 Q135.3594,141.2031 134.6563,141.2031 Q132.1563,141.2031 130.8281,139.5625 Q129.5156,137.9063 129.5156,134.7813 Q129.5156,131.6563 130.8281,130 Q132.1563,128.3438 134.6563,128.3438 Q135.3594,128.3438 136,128.5 Q136.6563,128.6563 137.2188,128.9531 L137.2188,131.6719 Q136.5938,131.0938 136,130.8281 Q135.4063,130.5469 134.7813,130.5469 Q133.4375,130.5469 132.75,131.625 Q132.0625,132.6875 132.0625,134.7813 Q132.0625,136.875 132.75,137.9531 Q133.4375,139.0156 134.7813,139.0156 Q135.4063,139.0156 136,138.75 Q136.5938,138.4688 137.2188,137.8906 L137.2188,140.6094 Z "/><text fill="#000000" font-family="sans-serif" font-size="12" font-style="italic" lengthAdjust="spacingAndGlyphs" textLength="55" x="161.25" y="132.1387">«sealed»</text><text fill="#000000" font-family="sans-serif" font-size="12" lengthAdjust="spacingAndGlyphs" textLength="68" x="154.75" y="146.1074">FuncFlux`2</text><rect fill="#FFFFFF" height="15.9688" style="stroke: #000000; stroke-width: 1.0; stroke-dasharray: 2.0,2.0;" width="85" x="307.5" y="113"/><text fill="#000000" font-family="sans-serif" font-size="12" font-style="italic" lengthAdjust="spacingAndGlyphs" textLength="83" x="308.5" y="125.1387">TKey,TReturn</text><line style="stroke: #A80036; stroke-width: 1.5;" x1="43.5" x2="388.5" y1="153.9375" y2="153.9375"/><line style="stroke: #A80036; stroke-width: 1.5;" x1="43.5" x2="388.5" y1="161.9375" y2="161.9375"/><text fill="#000000" font-family="sans-serif" font-size="11" lengthAdjust="spacingAndGlyphs" textLength="335" x="48.5" y="176.1479">Store(condition:bool, key:TKey, func:Func&lt;TReturn&gt;) : void</text><text fill="#000000" font-family="sans-serif" font-size="11" lengthAdjust="spacingAndGlyphs" textLength="163" x="48.5" y="188.9526">Dispatch(key:TKey) : TReturn</text><!--MD5=[8e3f9aaf9e22a5c13859460096250712]
class IFluxReturn`3--><rect fill="#FEFECE" filter="url(#fcfqag5ygtbhz)" height="48" id="IFluxReturn`3" style="stroke: #A80036; stroke-width: 1.5;" width="172" x="130" y="8"/><ellipse cx="145" cy="24" fill="#ADD1B2" rx="11" ry="11" style="stroke: #A80036; stroke-width: 1.0;"/><path d="M147.9688,29.6406 Q147.3906,29.9375 146.75,30.0781 Q146.1094,30.2344 145.4063,30.2344 Q142.9063,30.2344 141.5781,28.5938 Q140.2656,26.9375 140.2656,23.8125 Q140.2656,20.6875 141.5781,19.0313 Q142.9063,17.375 145.4063,17.375 Q146.1094,17.375 146.75,17.5313 Q147.4063,17.6875 147.9688,17.9844 L147.9688,20.7031 Q147.3438,20.125 146.75,19.8594 Q146.1563,19.5781 145.5313,19.5781 Q144.1875,19.5781 143.5,20.6563 Q142.8125,21.7188 142.8125,23.8125 Q142.8125,25.9063 143.5,26.9844 Q144.1875,28.0469 145.5313,28.0469 Q146.1563,28.0469 146.75,27.7813 Q147.3438,27.5 147.9688,26.9219 L147.9688,29.6406 Z "/><text fill="#000000" font-family="sans-serif" font-size="12" lengthAdjust="spacingAndGlyphs" textLength="83" x="159" y="28.1543">IFluxReturn`3</text><rect fill="#FFFFFF" height="15.9688" style="stroke: #000000; stroke-width: 1.0; stroke-dasharray: 2.0,2.0;" width="55" x="250" y="5"/><text fill="#000000" font-family="sans-serif" font-size="12" font-style="italic" lengthAdjust="spacingAndGlyphs" textLength="53" x="251" y="17.1387">T1,T2,T3</text><line style="stroke: #A80036; stroke-width: 1.5;" x1="131" x2="301" y1="40" y2="40"/><line style="stroke: #A80036; stroke-width: 1.5;" x1="131" x2="301" y1="48" y2="48"/><!--MD5=[675780af0bda177f15b11ee583101211]
reverse link IFluxReturn`3 to FuncFlux`2--><path d="M216,76.25 C216,89.04 216,102.98 216,115.53 " fill="none" id="IFluxReturn`3&lt;-FuncFlux`2" style="stroke: #A80036; stroke-width: 1.0;"/><polygon fill="none" points="209,76.23,216,56.23,223,76.23,209,76.23" style="stroke: #A80036; stroke-width: 1.0;"/><text fill="#000000" font-family="sans-serif" font-size="13" lengthAdjust="spacingAndGlyphs" textLength="210" x="-19.5938" y="76.0473">&lt;TKey,TReturn,Func&lt;TReturn&gt;&gt;</text><!--MD5=[12ec41125cdca17317555045d3b72248]
@startuml
class "FuncFlux`2"<TKey,TReturn> <<sealed>> {
    Store(condition:bool, key:TKey, func:Func<TReturn>) : void
    Dispatch(key:TKey) : TReturn
}
class "IFluxReturn`3"<T1,T2,T3> {
}
"IFluxReturn`3" "<TKey,TReturn,Func<TReturn>>" <|- - "FuncFlux`2"
@enduml

PlantUML version 1.2020.02(Sun Mar 01 10:22:07 GMT 2020)
(GPL source distribution)
Java Runtime: OpenJDK Runtime Environment
JVM: OpenJDK 64-Bit Server VM
Java Version: 11.0.9+11-Ubuntu-0ubuntu1
Operating System: Linux
Default Encoding: ANSI_X3.4-1968
Language: en
Country: US
--></g></svg>