<?xml version="1.0" encoding="UTF-8" standalone="no"?><svg xmlns="http://www.w3.org/2000/svg" xmlns:xlink="http://www.w3.org/1999/xlink" contentScriptType="application/ecmascript" contentStyleType="text/css" height="187px" preserveAspectRatio="none" style="width:1373px;height:187px;" version="1.1" viewBox="0 0 1373 187" width="1373px" zoomAndPan="magnify"><defs><filter height="300%" id="fclh7umtpv2ct" width="300%" x="-1" y="-1"><feGaussianBlur result="blurOut" stdDeviation="2.0"/><feColorMatrix in="blurOut" result="blurOut2" type="matrix" values="0 0 0 0 0 0 0 0 0 0 0 0 0 0 0 0 0 0 .4 0"/><feOffset dx="4.0" dy="4.0" in="blurOut2" result="blurOut3"/><feBlend in="SourceGraphic" in2="blurOut3" mode="normal"/></filter></defs><g><!--MD5=[efb174289e09cbc66584c826ee8e4372]
class IFlux`2--><rect fill="#FEFECE" filter="url(#fclh7umtpv2ct)" height="60.8047" id="IFlux`2" style="stroke: #A80036; stroke-width: 1.5;" width="200" x="6" y="116"/><ellipse cx="21" cy="132" fill="#B4A7E5" rx="11" ry="11" style="stroke: #A80036; stroke-width: 1.0;"/><path d="M16.9219,127.7656 L16.9219,125.6094 L24.3125,125.6094 L24.3125,127.7656 L21.8438,127.7656 L21.8438,135.8438 L24.3125,135.8438 L24.3125,138 L16.9219,138 L16.9219,135.8438 L19.3906,135.8438 L19.3906,127.7656 L16.9219,127.7656 Z "/><text fill="#000000" font-family="sans-serif" font-size="12" font-style="italic" lengthAdjust="spacingAndGlyphs" textLength="43" x="35" y="136.1543">IFlux`2</text><rect fill="#FFFFFF" height="15.9688" style="stroke: #000000; stroke-width: 1.0; stroke-dasharray: 2.0,2.0;" width="123" x="86" y="113"/><text fill="#000000" font-family="sans-serif" font-size="12" font-style="italic" lengthAdjust="spacingAndGlyphs" textLength="121" x="87" y="125.1387">in TKey,in TStorage</text><line style="stroke: #A80036; stroke-width: 1.5;" x1="7" x2="205" y1="148" y2="148"/><line style="stroke: #A80036; stroke-width: 1.5;" x1="7" x2="205" y1="156" y2="156"/><text fill="#000000" font-family="sans-serif" font-size="11" lengthAdjust="spacingAndGlyphs" textLength="142" x="12" y="170.2104">Dispatch(key:TKey) : void</text><!--MD5=[2965d46a07a0b313f5668fdde433fc36]
class IFluxParam`3--><rect fill="#FEFECE" filter="url(#fclh7umtpv2ct)" height="60.8047" id="IFluxParam`3" style="stroke: #A80036; stroke-width: 1.5;" width="304" x="241" y="116"/><ellipse cx="256" cy="132" fill="#B4A7E5" rx="11" ry="11" style="stroke: #A80036; stroke-width: 1.0;"/><path d="M251.9219,127.7656 L251.9219,125.6094 L259.3125,125.6094 L259.3125,127.7656 L256.8438,127.7656 L256.8438,135.8438 L259.3125,135.8438 L259.3125,138 L251.9219,138 L251.9219,135.8438 L254.3906,135.8438 L254.3906,127.7656 L251.9219,127.7656 Z "/><text fill="#000000" font-family="sans-serif" font-size="12" font-style="italic" lengthAdjust="spacingAndGlyphs" textLength="82" x="270" y="136.1543">IFluxParam`3</text><rect fill="#FFFFFF" height="15.9688" style="stroke: #000000; stroke-width: 1.0; stroke-dasharray: 2.0,2.0;" width="188" x="360" y="113"/><text fill="#000000" font-family="sans-serif" font-size="12" font-style="italic" lengthAdjust="spacingAndGlyphs" textLength="186" x="361" y="125.1387">in TKey,in TParam,in TStorage</text><line style="stroke: #A80036; stroke-width: 1.5;" x1="242" x2="544" y1="148" y2="148"/><line style="stroke: #A80036; stroke-width: 1.5;" x1="242" x2="544" y1="156" y2="156"/><text fill="#000000" font-family="sans-serif" font-size="11" lengthAdjust="spacingAndGlyphs" textLength="235" x="247" y="170.2104">Dispatch(key:TKey, param:TParam) : void</text><!--MD5=[8e3f9aaf9e22a5c13859460096250712]
class IFluxReturn`3--><rect fill="#FEFECE" filter="url(#fclh7umtpv2ct)" height="60.8047" id="IFluxReturn`3" style="stroke: #A80036; stroke-width: 1.5;" width="320" x="580" y="116"/><ellipse cx="595" cy="132" fill="#B4A7E5" rx="11" ry="11" style="stroke: #A80036; stroke-width: 1.0;"/><path d="M590.9219,127.7656 L590.9219,125.6094 L598.3125,125.6094 L598.3125,127.7656 L595.8438,127.7656 L595.8438,135.8438 L598.3125,135.8438 L598.3125,138 L590.9219,138 L590.9219,135.8438 L593.3906,135.8438 L593.3906,127.7656 L590.9219,127.7656 Z "/><text fill="#000000" font-family="sans-serif" font-size="12" font-style="italic" lengthAdjust="spacingAndGlyphs" textLength="85" x="609" y="136.1543">IFluxReturn`3</text><rect fill="#FFFFFF" height="15.9688" style="stroke: #000000; stroke-width: 1.0; stroke-dasharray: 2.0,2.0;" width="201" x="702" y="113"/><text fill="#000000" font-family="sans-serif" font-size="12" font-style="italic" lengthAdjust="spacingAndGlyphs" textLength="199" x="703" y="125.1387">in TKey,out TReturn,in TStorage</text><line style="stroke: #A80036; stroke-width: 1.5;" x1="581" x2="899" y1="148" y2="148"/><line style="stroke: #A80036; stroke-width: 1.5;" x1="581" x2="899" y1="156" y2="156"/><text fill="#000000" font-family="sans-serif" font-size="11" lengthAdjust="spacingAndGlyphs" textLength="163" x="586" y="170.2104">Dispatch(key:TKey) : TReturn</text><!--MD5=[464c9066330dbad164d46c08fd47f4e0]
class IFluxParamReturn`4--><rect fill="#FEFECE" filter="url(#fclh7umtpv2ct)" height="60.8047" id="IFluxParamReturn`4" style="stroke: #A80036; stroke-width: 1.5;" width="424" x="935" y="116"/><ellipse cx="950" cy="132" fill="#B4A7E5" rx="11" ry="11" style="stroke: #A80036; stroke-width: 1.0;"/><path d="M945.9219,127.7656 L945.9219,125.6094 L953.3125,125.6094 L953.3125,127.7656 L950.8438,127.7656 L950.8438,135.8438 L953.3125,135.8438 L953.3125,138 L945.9219,138 L945.9219,135.8438 L948.3906,135.8438 L948.3906,127.7656 L945.9219,127.7656 Z "/><text fill="#000000" font-family="sans-serif" font-size="12" font-style="italic" lengthAdjust="spacingAndGlyphs" textLength="124" x="964" y="136.1543">IFluxParamReturn`4</text><rect fill="#FFFFFF" height="15.9688" style="stroke: #000000; stroke-width: 1.0; stroke-dasharray: 2.0,2.0;" width="266" x="1096" y="113"/><text fill="#000000" font-family="sans-serif" font-size="12" font-style="italic" lengthAdjust="spacingAndGlyphs" textLength="264" x="1097" y="125.1387">in TKey,in TParam,out TReturn,in TStorage</text><line style="stroke: #A80036; stroke-width: 1.5;" x1="936" x2="1358" y1="148" y2="148"/><line style="stroke: #A80036; stroke-width: 1.5;" x1="936" x2="1358" y1="156" y2="156"/><text fill="#000000" font-family="sans-serif" font-size="11" lengthAdjust="spacingAndGlyphs" textLength="256" x="941" y="170.2104">Dispatch(key:TKey, param:TParam) : TReturn</text><!--MD5=[6e861dc95fbadc48e8e4224582f13d4e]
class IStore`2--><rect fill="#FEFECE" filter="url(#fclh7umtpv2ct)" height="48" id="IStore`2" style="stroke: #A80036; stroke-width: 1.5;" width="121" x="505.5" y="8"/><ellipse cx="520.5" cy="24" fill="#ADD1B2" rx="11" ry="11" style="stroke: #A80036; stroke-width: 1.0;"/><path d="M523.4688,29.6406 Q522.8906,29.9375 522.25,30.0781 Q521.6094,30.2344 520.9063,30.2344 Q518.4063,30.2344 517.0781,28.5938 Q515.7656,26.9375 515.7656,23.8125 Q515.7656,20.6875 517.0781,19.0313 Q518.4063,17.375 520.9063,17.375 Q521.6094,17.375 522.25,17.5313 Q522.9063,17.6875 523.4688,17.9844 L523.4688,20.7031 Q522.8438,20.125 522.25,19.8594 Q521.6563,19.5781 521.0313,19.5781 Q519.6875,19.5781 519,20.6563 Q518.3125,21.7188 518.3125,23.8125 Q518.3125,25.9063 519,26.9844 Q519.6875,28.0469 521.0313,28.0469 Q521.6563,28.0469 522.25,27.7813 Q522.8438,27.5 523.4688,26.9219 L523.4688,29.6406 Z "/><text fill="#000000" font-family="sans-serif" font-size="12" lengthAdjust="spacingAndGlyphs" textLength="51" x="534.5" y="28.1543">IStore`2</text><rect fill="#FFFFFF" height="15.9688" style="stroke: #000000; stroke-width: 1.0; stroke-dasharray: 2.0,2.0;" width="36" x="593.5" y="5"/><text fill="#000000" font-family="sans-serif" font-size="12" font-style="italic" lengthAdjust="spacingAndGlyphs" textLength="34" x="594.5" y="17.1387">T1,T2</text><line style="stroke: #A80036; stroke-width: 1.5;" x1="506.5" x2="625.5" y1="40" y2="40"/><line style="stroke: #A80036; stroke-width: 1.5;" x1="506.5" x2="625.5" y1="48" y2="48"/><!--MD5=[7171d36c0e5d2054a8c776643895beac]
reverse link IStore`2 to IFlux`2--><path d="M485.67,52.21 C416.13,68.89 312.86,93.8 223,116 C217.51,117.36 211.87,118.76 206.19,120.17 " fill="none" id="IStore`2&lt;-IFlux`2" style="stroke: #A80036; stroke-width: 1.0;"/><polygon fill="none" points="484.16,45.37,505.24,47.52,487.42,58.99,484.16,45.37" style="stroke: #A80036; stroke-width: 1.0;"/><text fill="#000000" font-family="sans-serif" font-size="13" lengthAdjust="spacingAndGlyphs" textLength="114" x="383.328" y="45.1302">&lt;TKey,TStorage&gt;</text><!--MD5=[cb5d3a098d6ae36746177f7fe12febbc]
reverse link IStore`2 to IFluxParam`3--><path d="M513.63,67.06 C489.7,82.62 461.62,100.87 438.58,115.86 " fill="none" id="IStore`2&lt;-IFluxParam`3" style="stroke: #A80036; stroke-width: 1.0;"/><polygon fill="none" points="509.99,61.07,530.57,56.04,517.62,72.81,509.99,61.07" style="stroke: #A80036; stroke-width: 1.0;"/><text fill="#000000" font-family="sans-serif" font-size="13" lengthAdjust="spacingAndGlyphs" textLength="114" x="392.8848" y="76.206">&lt;TKey,TStorage&gt;</text><!--MD5=[4afd7023ae4672b1e72a6aa851dfb5b4]
reverse link IStore`2 to IFluxReturn`3--><path d="M618.68,67.06 C642.74,82.62 670.98,100.87 694.15,115.86 " fill="none" id="IStore`2&lt;-IFluxReturn`3" style="stroke: #A80036; stroke-width: 1.0;"/><polygon fill="none" points="614.63,72.77,601.63,56.04,622.23,61.02,614.63,72.77" style="stroke: #A80036; stroke-width: 1.0;"/><text fill="#000000" font-family="sans-serif" font-size="13" lengthAdjust="spacingAndGlyphs" textLength="114" x="625.3664" y="76.206">&lt;TKey,TStorage&gt;</text><!--MD5=[820861c9ad55e96af1499fb7f336c346]
reverse link IStore`2 to IFluxParamReturn`4--><path d="M646.38,48.56 C735.95,65.91 882.85,94.35 994.41,115.95 " fill="none" id="IStore`2&lt;-IFluxParamReturn`4" style="stroke: #A80036; stroke-width: 1.0;"/><polygon fill="none" points="644.84,55.4,626.53,44.72,647.5,41.65,644.84,55.4" style="stroke: #A80036; stroke-width: 1.0;"/><text fill="#000000" font-family="sans-serif" font-size="13" lengthAdjust="spacingAndGlyphs" textLength="114" x="634.4265" y="42.1421">&lt;TKey,TStorage&gt;</text><!--MD5=[5b6ae074a137b640a71b892e56c9e580]
@startuml
interface "IFlux`2"<in TKey,in TStorage> {
    Dispatch(key:TKey) : void
}
interface "IFluxParam`3"<in TKey,in TParam,in TStorage> {
    Dispatch(key:TKey, param:TParam) : void
}
interface "IFluxReturn`3"<in TKey,out TReturn,in TStorage> {
    Dispatch(key:TKey) : TReturn
}
interface "IFluxParamReturn`4"<in TKey,in TParam,out TReturn,in TStorage> {
    Dispatch(key:TKey, param:TParam) : TReturn
}
class "IStore`2"<T1,T2> {
}
"IStore`2" "<TKey,TStorage>" <|- - "IFlux`2"
"IStore`2" "<TKey,TStorage>" <|- - "IFluxParam`3"
"IStore`2" "<TKey,TStorage>" <|- - "IFluxReturn`3"
"IStore`2" "<TKey,TStorage>" <|- - "IFluxParamReturn`4"
@enduml

PlantUML version 1.2020.02(Sun Mar 01 10:22:07 GMT 2020)
(GPL source distribution)
Java Runtime: OpenJDK Runtime Environment
JVM: OpenJDK 64-Bit Server VM
Java Version: 11.0.9+11-Ubuntu-0ubuntu1
Operating System: Linux
Default Encoding: ANSI_X3.4-1968
Language: en
Country: US
--></g></svg>