<?xml version="1.0" encoding="UTF-8" standalone="no"?><svg xmlns="http://www.w3.org/2000/svg" xmlns:xlink="http://www.w3.org/1999/xlink" contentScriptType="application/ecmascript" contentStyleType="text/css" height="315px" preserveAspectRatio="none" style="width:473px;height:315px;" version="1.1" viewBox="0 0 473 315" width="473px" zoomAndPan="magnify"><defs><filter height="300%" id="f4a4tlhfk7374" width="300%" x="-1" y="-1"><feGaussianBlur result="blurOut" stdDeviation="2.0"/><feColorMatrix in="blurOut" result="blurOut2" type="matrix" values="0 0 0 0 0 0 0 0 0 0 0 0 0 0 0 0 0 0 .4 0"/><feOffset dx="4.0" dy="4.0" in="blurOut2" result="blurOut3"/><feBlend in="SourceGraphic" in2="blurOut3" mode="normal"/></filter></defs><g><!--MD5=[87cf19e761c160d3cf88c99f1da26708]
class KeyFlux`1--><rect fill="#FEFECE" filter="url(#f4a4tlhfk7374)" height="188.8516" id="KeyFlux`1" style="stroke: #A80036; stroke-width: 1.5;" width="453" x="6" y="116"/><ellipse cx="191.75" cy="132" fill="#A9DCDF" rx="11" ry="11" style="stroke: #A80036; stroke-width: 1.0;"/><path d="M191.8594,127.3438 L190.7031,132.4219 L193.0313,132.4219 L191.8594,127.3438 Z M190.375,125.1094 L193.3594,125.1094 L196.7188,137.5 L194.2656,137.5 L193.5,134.4375 L190.2188,134.4375 L189.4688,137.5 L187.0313,137.5 L190.375,125.1094 Z "/><text fill="#000000" font-family="sans-serif" font-size="12" font-style="italic" lengthAdjust="spacingAndGlyphs" textLength="62" x="212.25" y="136.1543">KeyFlux`1</text><rect fill="#FFFFFF" height="15.9688" style="stroke: #000000; stroke-width: 1.0; stroke-dasharray: 2.0,2.0;" width="9" x="453" y="113"/><text fill="#000000" font-family="sans-serif" font-size="12" font-style="italic" lengthAdjust="spacingAndGlyphs" textLength="7" x="454" y="125.1387">T</text><line style="stroke: #A80036; stroke-width: 1.5;" x1="7" x2="458" y1="148" y2="148"/><text fill="#000000" font-family="sans-serif" font-size="11" lengthAdjust="spacingAndGlyphs" textLength="82" x="12" y="162.2104">KeyT : T «get»</text><line style="stroke: #A80036; stroke-width: 1.5;" x1="7" x2="458" y1="168.8047" y2="168.8047"/><ellipse cx="17" cy="179.8047" fill="#84BE84" rx="3" ry="3" style="stroke: #038048; stroke-width: 1.0;"/><text fill="#000000" font-family="sans-serif" font-size="11" lengthAdjust="spacingAndGlyphs" textLength="365" x="26" y="183.0151">«sealed» «override» Store(callback:Action, condition:bool) : void</text><ellipse cx="17" cy="192.6094" fill="#84BE84" rx="3" ry="3" style="stroke: #038048; stroke-width: 1.0;"/><text fill="#000000" font-family="sans-serif" font-size="11" lengthAdjust="spacingAndGlyphs" textLength="213" x="26" y="195.8198">«sealed» «override» Dispatch() : void</text><ellipse cx="17" cy="205.4141" fill="#84BE84" rx="3" ry="3" style="stroke: #038048; stroke-width: 1.0;"/><text fill="#000000" font-family="sans-serif" font-size="11" lengthAdjust="spacingAndGlyphs" textLength="397" x="26" y="208.6245">«sealed» «override» Store(callback:Action&lt;T2&gt;, condition:bool) : void</text><ellipse cx="17" cy="218.2188" fill="#84BE84" rx="3" ry="3" style="stroke: #038048; stroke-width: 1.0;"/><text fill="#000000" font-family="sans-serif" font-size="11" lengthAdjust="spacingAndGlyphs" textLength="280" x="26" y="221.4292">«sealed» «override» Dispatch(@param:T2) : void</text><ellipse cx="17" cy="231.0234" fill="#84BE84" rx="3" ry="3" style="stroke: #038048; stroke-width: 1.0;"/><text fill="#000000" font-family="sans-serif" font-size="11" lengthAdjust="spacingAndGlyphs" textLength="389" x="26" y="234.2339">«sealed» «override» Store(callback:Func&lt;T2&gt;, condition:bool) : void</text><ellipse cx="17" cy="243.8281" fill="#84BE84" rx="3" ry="3" style="stroke: #038048; stroke-width: 1.0;"/><text fill="#000000" font-family="sans-serif" font-size="11" lengthAdjust="spacingAndGlyphs" textLength="204" x="26" y="247.0386">«sealed» «override» Dispatch() : T2</text><ellipse cx="17" cy="256.6328" fill="#84BE84" rx="3" ry="3" style="stroke: #038048; stroke-width: 1.0;"/><text fill="#000000" font-family="sans-serif" font-size="11" lengthAdjust="spacingAndGlyphs" textLength="411" x="26" y="259.8433">«sealed» «override» Store(callback:Func&lt;T2, T3&gt;, condition:bool) : void</text><ellipse cx="17" cy="269.4375" fill="#84BE84" rx="3" ry="3" style="stroke: #038048; stroke-width: 1.0;"/><text fill="#000000" font-family="sans-serif" font-size="11" lengthAdjust="spacingAndGlyphs" textLength="271" x="26" y="272.6479">«sealed» «override» Dispatch(@param:T2) : T3</text><ellipse cx="17" cy="282.2422" fill="#84BE84" rx="3" ry="3" style="stroke: #038048; stroke-width: 1.0;"/><text fill="#000000" font-family="sans-serif" font-size="11" lengthAdjust="spacingAndGlyphs" textLength="427" x="26" y="285.4526">«sealed» «override» StoreState(callback:Action&lt;T2&gt;, condition:bool) : void</text><ellipse cx="17" cy="295.0469" fill="#84BE84" rx="3" ry="3" style="stroke: #038048; stroke-width: 1.0;"/><text fill="#000000" font-family="sans-serif" font-size="11" lengthAdjust="spacingAndGlyphs" textLength="310" x="26" y="298.2573">«sealed» «override» DispatchState(@param:T2) : void</text><!--MD5=[e3ce6f91f483aeca6c36a3c649340c00]
class IKeyFlux`1--><rect fill="#FEFECE" filter="url(#f4a4tlhfk7374)" height="48" id="IKeyFlux`1" style="stroke: #A80036; stroke-width: 1.5;" width="105" x="109" y="8"/><ellipse cx="124" cy="24" fill="#ADD1B2" rx="11" ry="11" style="stroke: #A80036; stroke-width: 1.0;"/><path d="M126.9688,29.6406 Q126.3906,29.9375 125.75,30.0781 Q125.1094,30.2344 124.4063,30.2344 Q121.9063,30.2344 120.5781,28.5938 Q119.2656,26.9375 119.2656,23.8125 Q119.2656,20.6875 120.5781,19.0313 Q121.9063,17.375 124.4063,17.375 Q125.1094,17.375 125.75,17.5313 Q126.4063,17.6875 126.9688,17.9844 L126.9688,20.7031 Q126.3438,20.125 125.75,19.8594 Q125.1563,19.5781 124.5313,19.5781 Q123.1875,19.5781 122.5,20.6563 Q121.8125,21.7188 121.8125,23.8125 Q121.8125,25.9063 122.5,26.9844 Q123.1875,28.0469 124.5313,28.0469 Q125.1563,28.0469 125.75,27.7813 Q126.3438,27.5 126.9688,26.9219 L126.9688,29.6406 Z "/><text fill="#000000" font-family="sans-serif" font-size="12" lengthAdjust="spacingAndGlyphs" textLength="62" x="138" y="28.1543">IKeyFlux`1</text><rect fill="#FFFFFF" height="15.9688" style="stroke: #000000; stroke-width: 1.0; stroke-dasharray: 2.0,2.0;" width="9" x="208" y="5"/><text fill="#000000" font-family="sans-serif" font-size="12" font-style="italic" lengthAdjust="spacingAndGlyphs" textLength="7" x="209" y="17.1387">T</text><line style="stroke: #A80036; stroke-width: 1.5;" x1="110" x2="213" y1="40" y2="40"/><line style="stroke: #A80036; stroke-width: 1.5;" x1="110" x2="213" y1="48" y2="48"/><!--MD5=[65c72e0eabe6a1f7145a04888c1398b3]
class KeyFluxBase--><rect fill="#FEFECE" filter="url(#f4a4tlhfk7374)" height="48" id="KeyFluxBase" style="stroke: #A80036; stroke-width: 1.5;" width="108" x="249.5" y="8"/><ellipse cx="264.5" cy="24" fill="#ADD1B2" rx="11" ry="11" style="stroke: #A80036; stroke-width: 1.0;"/><path d="M267.4688,29.6406 Q266.8906,29.9375 266.25,30.0781 Q265.6094,30.2344 264.9063,30.2344 Q262.4063,30.2344 261.0781,28.5938 Q259.7656,26.9375 259.7656,23.8125 Q259.7656,20.6875 261.0781,19.0313 Q262.4063,17.375 264.9063,17.375 Q265.6094,17.375 266.25,17.5313 Q266.9063,17.6875 267.4688,17.9844 L267.4688,20.7031 Q266.8438,20.125 266.25,19.8594 Q265.6563,19.5781 265.0313,19.5781 Q263.6875,19.5781 263,20.6563 Q262.3125,21.7188 262.3125,23.8125 Q262.3125,25.9063 263,26.9844 Q263.6875,28.0469 265.0313,28.0469 Q265.6563,28.0469 266.25,27.7813 Q266.8438,27.5 267.4688,26.9219 L267.4688,29.6406 Z "/><text fill="#000000" font-family="sans-serif" font-size="12" lengthAdjust="spacingAndGlyphs" textLength="76" x="278.5" y="28.1543">KeyFluxBase</text><line style="stroke: #A80036; stroke-width: 1.5;" x1="250.5" x2="356.5" y1="40" y2="40"/><line style="stroke: #A80036; stroke-width: 1.5;" x1="250.5" x2="356.5" y1="48" y2="48"/><!--MD5=[5b5e4130a319893774dacde3e4e8767b]
reverse link KeyFluxBase to KeyFlux`1--><path d="M286.6,75.02 C281.63,87.37 275.98,101.41 270.25,115.65 " fill="none" id="KeyFluxBase&lt;-KeyFlux`1" style="stroke: #A80036; stroke-width: 1.0;"/><polygon fill="none" points="280.26,72.02,294.22,56.07,293.25,77.24,280.26,72.02" style="stroke: #A80036; stroke-width: 1.0;"/><!--MD5=[dfb7936ad952fe6e59eda32abd1f3724]
reverse link IKeyFlux`1 to KeyFlux`1--><path d="M178.4,75.02 C183.37,87.37 189.02,101.41 194.75,115.65 " fill="none" id="IKeyFlux`1&lt;-KeyFlux`1" style="stroke: #A80036; stroke-width: 1.0;"/><polygon fill="none" points="171.75,77.24,170.78,56.07,184.74,72.02,171.75,77.24" style="stroke: #A80036; stroke-width: 1.0;"/><text fill="#000000" font-family="sans-serif" font-size="13" lengthAdjust="spacingAndGlyphs" textLength="29" x="140.4424" y="76.2437">&lt;T&gt;</text><!--MD5=[37e7d8569f324743953ec9989460e478]
@startuml
abstract class "KeyFlux`1"<T> {
    KeyT : T <<get>>
    + <<sealed>> <<override>> Store(callback:Action, condition:bool) : void
    + <<sealed>> <<override>> Dispatch() : void
    + <<sealed>> <<override>> Store(callback:Action<T2>, condition:bool) : void
    + <<sealed>> <<override>> Dispatch(@param:T2) : void
    + <<sealed>> <<override>> Store(callback:Func<T2>, condition:bool) : void
    + <<sealed>> <<override>> Dispatch() : T2
    + <<sealed>> <<override>> Store(callback:Func<T2, T3>, condition:bool) : void
    + <<sealed>> <<override>> Dispatch(@param:T2) : T3
    + <<sealed>> <<override>> StoreState(callback:Action<T2>, condition:bool) : void
    + <<sealed>> <<override>> DispatchState(@param:T2) : void
}
class "IKeyFlux`1"<T> {
}
KeyFluxBase <|- - "KeyFlux`1"
"IKeyFlux`1" "<T>" <|- - "KeyFlux`1"
@enduml

PlantUML version 1.2020.02(Sun Mar 01 10:22:07 GMT 2020)
(GPL source distribution)
Java Runtime: OpenJDK Runtime Environment
JVM: OpenJDK 64-Bit Server VM
Java Version: 11.0.9+11-Ubuntu-0ubuntu1
Operating System: Linux
Default Encoding: ANSI_X3.4-1968
Language: en
Country: US
--></g></svg>