<?xml version="1.0" encoding="UTF-8" standalone="no"?><svg xmlns="http://www.w3.org/2000/svg" xmlns:xlink="http://www.w3.org/1999/xlink" contentScriptType="application/ecmascript" contentStyleType="text/css" height="97px" preserveAspectRatio="none" style="width:386px;height:97px;" version="1.1" viewBox="0 0 386 97" width="386px" zoomAndPan="magnify"><defs><filter height="300%" id="f18lwg80aknl8v" width="300%" x="-1" y="-1"><feGaussianBlur result="blurOut" stdDeviation="2.0"/><feColorMatrix in="blurOut" result="blurOut2" type="matrix" values="0 0 0 0 0 0 0 0 0 0 0 0 0 0 0 0 0 0 .4 0"/><feOffset dx="4.0" dy="4.0" in="blurOut2" result="blurOut3"/><feBlend in="SourceGraphic" in2="blurOut3" mode="normal"/></filter></defs><g><!--MD5=[a4c84f61b4b575d4e3dce722d1cda612]
class ClickObject--><rect fill="#FEFECE" filter="url(#f18lwg80aknl8v)" height="60.8047" id="ClickObject" style="stroke: #A80036; stroke-width: 1.5;" width="151" x="6" y="9.58"/><ellipse cx="43.95" cy="25.58" fill="#ADD1B2" rx="11" ry="11" style="stroke: #A80036; stroke-width: 1.0;"/><path d="M46.9188,31.2206 Q46.3406,31.5175 45.7,31.6581 Q45.0594,31.8144 44.3563,31.8144 Q41.8563,31.8144 40.5281,30.1738 Q39.2156,28.5175 39.2156,25.3925 Q39.2156,22.2675 40.5281,20.6113 Q41.8563,18.955 44.3563,18.955 Q45.0594,18.955 45.7,19.1113 Q46.3563,19.2675 46.9188,19.5644 L46.9188,22.2831 Q46.2938,21.705 45.7,21.4394 Q45.1063,21.1581 44.4813,21.1581 Q43.1375,21.1581 42.45,22.2363 Q41.7625,23.2988 41.7625,25.3925 Q41.7625,27.4863 42.45,28.5644 Q43.1375,29.6269 44.4813,29.6269 Q45.1063,29.6269 45.7,29.3613 Q46.2938,29.08 46.9188,28.5019 L46.9188,31.2206 Z "/><text fill="#000000" font-family="sans-serif" font-size="12" lengthAdjust="spacingAndGlyphs" textLength="68" x="63.05" y="29.7343">ClickObject</text><line style="stroke: #A80036; stroke-width: 1.5;" x1="7" x2="156" y1="41.58" y2="41.58"/><ellipse cx="17" cy="52.58" fill="none" rx="3" ry="3" style="stroke: #038048; stroke-width: 1.0;"/><text fill="#000000" font-family="sans-serif" font-size="11" lengthAdjust="spacingAndGlyphs" textLength="125" x="26" y="55.7904">IsClicking : bool «set»</text><line style="stroke: #A80036; stroke-width: 1.5;" x1="7" x2="156" y1="62.3847" y2="62.3847"/><!--MD5=[f8e7078f77c005d15b486c0c98deb1e6]
class Action--><rect fill="#FEFECE" filter="url(#f18lwg80aknl8v)" height="48" id="Action" style="stroke: #A80036; stroke-width: 1.5;" width="71" x="192" y="16.08"/><ellipse cx="207" cy="32.08" fill="#ADD1B2" rx="11" ry="11" style="stroke: #A80036; stroke-width: 1.0;"/><path d="M209.9688,37.7206 Q209.3906,38.0175 208.75,38.1581 Q208.1094,38.3144 207.4063,38.3144 Q204.9063,38.3144 203.5781,36.6738 Q202.2656,35.0175 202.2656,31.8925 Q202.2656,28.7675 203.5781,27.1113 Q204.9063,25.455 207.4063,25.455 Q208.1094,25.455 208.75,25.6113 Q209.4063,25.7675 209.9688,26.0644 L209.9688,28.7831 Q209.3438,28.205 208.75,27.9394 Q208.1563,27.6581 207.5313,27.6581 Q206.1875,27.6581 205.5,28.7363 Q204.8125,29.7988 204.8125,31.8925 Q204.8125,33.9863 205.5,35.0644 Q206.1875,36.1269 207.5313,36.1269 Q208.1563,36.1269 208.75,35.8613 Q209.3438,35.58 209.9688,35.0019 L209.9688,37.7206 Z "/><text fill="#000000" font-family="sans-serif" font-size="12" lengthAdjust="spacingAndGlyphs" textLength="39" x="221" y="36.2343">Action</text><line style="stroke: #A80036; stroke-width: 1.5;" x1="193" x2="262" y1="48.08" y2="48.08"/><line style="stroke: #A80036; stroke-width: 1.5;" x1="193" x2="262" y1="56.08" y2="56.08"/><!--MD5=[f2e51ddb18dba5a05ed63411bc314bca]
link ClickObject to Action--><path d="M169.0334,61.9835 C169.0334,61.9835 175.93,61.02 178.87,60.4 " fill="none" id="ClickObject-Action" style="stroke: #A80036; stroke-width: 1.0;"/><polygon fill="#A80036" points="191.73,57,182.006,55.4368,186.8966,58.2798,184.0536,63.1703,191.73,57" style="stroke: #A80036; stroke-width: 1.0;"/><line style="stroke: #A80036; stroke-width: 1.0;" x1="186.8966" x2="179.165" y1="58.2798" y2="60.32"/><polygon fill="#FFFFFF" points="157.07,62.92,163.3639,66.4396,169.0334,61.9835,162.7395,58.464,157.07,62.92" style="stroke: #A80036; stroke-width: 1.0;"/><text fill="#000000" font-family="sans-serif" font-size="13" lengthAdjust="spacingAndGlyphs" textLength="108" x="202.8959" y="84.0648">OnClickEnterNew</text><!--MD5=[f2e51ddb18dba5a05ed63411bc314bca]
link ClickObject to Action--><path d="M169.0572,53.2261 C169.0572,53.2261 175.93,52.64 178.87,52.27 " fill="none" id="ClickObject-Action-1" style="stroke: #A80036; stroke-width: 1.0;"/><polygon fill="#A80036" points="191.73,50.23,182.2134,47.6935,186.7921,51.0155,183.4701,55.5942,191.73,50.23" style="stroke: #A80036; stroke-width: 1.0;"/><line style="stroke: #A80036; stroke-width: 1.0;" x1="186.7921" x2="178.895" y1="51.0155" y2="52.265"/><polygon fill="#FFFFFF" points="157.07,53.78,163.2482,57.4988,169.0572,53.2261,162.879,49.5073,157.07,53.78" style="stroke: #A80036; stroke-width: 1.0;"/><text fill="#000000" font-family="sans-serif" font-size="13" lengthAdjust="spacingAndGlyphs" textLength="97" x="85.6104" y="81.6385">OnClickExitNew</text><!--MD5=[f2e51ddb18dba5a05ed63411bc314bca]
link ClickObject to Action--><path d="M169.0684,44.4522 C169.0684,44.4522 175.71,44.27 178.53,44.15 " fill="none" id="ClickObject-Action-2" style="stroke: #A80036; stroke-width: 1.0;"/><polygon fill="#A80036" points="191.73,43.46,182.5316,39.9402,186.737,43.7237,182.9534,47.929,191.73,43.46" style="stroke: #A80036; stroke-width: 1.0;"/><line style="stroke: #A80036; stroke-width: 1.0;" x1="186.737" x2="178.75" y1="43.7237" y2="44.145"/><polygon fill="#FFFFFF" points="157.07,44.65,163.1351,48.5506,169.0684,44.4522,163.0033,40.5517,157.07,44.65" style="stroke: #A80036; stroke-width: 1.0;"/><text fill="#000000" font-family="sans-serif" font-size="13" lengthAdjust="spacingAndGlyphs" textLength="102" x="272.449" y="19.0428">OnClickEnterOld</text><!--MD5=[f2e51ddb18dba5a05ed63411bc314bca]
link ClickObject to Action--><path d="M169.0684,35.7078 C169.0684,35.7078 175.71,35.88 178.53,36 " fill="none" id="ClickObject-Action-3" style="stroke: #A80036; stroke-width: 1.0;"/><polygon fill="#A80036" points="191.73,36.69,182.9534,32.221,186.737,36.4263,182.5316,40.2098,191.73,36.69" style="stroke: #A80036; stroke-width: 1.0;"/><line style="stroke: #A80036; stroke-width: 1.0;" x1="186.737" x2="178.75" y1="36.4263" y2="36.005"/><polygon fill="#FFFFFF" points="157.07,35.51,163.0033,39.6083,169.0684,35.7078,163.1351,31.6094,157.07,35.51" style="stroke: #A80036; stroke-width: 1.0;"/><text fill="#000000" font-family="sans-serif" font-size="13" lengthAdjust="spacingAndGlyphs" textLength="91" x="147.9533" y="4.6779">OnClickExitOld</text><!--MD5=[f2e51ddb18dba5a05ed63411bc314bca]
link ClickObject to Action--><path d="M169.0572,26.9239 C169.0572,26.9239 175.93,27.51 178.87,27.88 " fill="none" id="ClickObject-Action-4" style="stroke: #A80036; stroke-width: 1.0;"/><polygon fill="#A80036" points="191.73,29.92,183.4701,24.5558,186.7921,29.1345,182.2134,32.4565,191.73,29.92" style="stroke: #A80036; stroke-width: 1.0;"/><line style="stroke: #A80036; stroke-width: 1.0;" x1="186.7921" x2="178.895" y1="29.1345" y2="27.885"/><polygon fill="#FFFFFF" points="157.07,26.37,162.879,30.6427,169.0572,26.9239,163.2482,22.6512,157.07,26.37" style="stroke: #A80036; stroke-width: 1.0;"/><text fill="#000000" font-family="sans-serif" font-size="13" lengthAdjust="spacingAndGlyphs" textLength="81" x="160.1695" y="5.1699">OnClickEnter</text><!--MD5=[f2e51ddb18dba5a05ed63411bc314bca]
link ClickObject to Action--><path d="M169.0334,18.1665 C169.0334,18.1665 175.93,19.14 178.87,19.75 " fill="none" id="ClickObject-Action-5" style="stroke: #A80036; stroke-width: 1.0;"/><polygon fill="#A80036" points="191.73,23.15,184.0536,16.9797,186.8966,21.8702,182.006,24.7132,191.73,23.15" style="stroke: #A80036; stroke-width: 1.0;"/><line style="stroke: #A80036; stroke-width: 1.0;" x1="186.8966" x2="179.165" y1="21.8702" y2="19.83"/><polygon fill="#FFFFFF" points="157.07,17.23,162.7395,21.686,169.0334,18.1665,163.3639,13.7104,157.07,17.23" style="stroke: #A80036; stroke-width: 1.0;"/><text fill="#000000" font-family="sans-serif" font-size="13" lengthAdjust="spacingAndGlyphs" textLength="70" x="191.2584" y="5.2942">OnClickExit</text><!--MD5=[1d6703c09831d7e5125d748980f5f919]
@startuml
class ClickObject {
    + IsClicking : bool <<set>>
}
ClickObject o-> "OnClickEnterNew" Action
ClickObject o-> "OnClickExitNew" Action
ClickObject o-> "OnClickEnterOld" Action
ClickObject o-> "OnClickExitOld" Action
ClickObject o-> "OnClickEnter" Action
ClickObject o-> "OnClickExit" Action
@enduml

PlantUML version 1.2020.02(Sun Mar 01 10:22:07 GMT 2020)
(GPL source distribution)
Java Runtime: OpenJDK Runtime Environment
JVM: OpenJDK 64-Bit Server VM
Java Version: 11.0.9+11-Ubuntu-0ubuntu1
Operating System: Linux
Default Encoding: ANSI_X3.4-1968
Language: en
Country: US
--></g></svg>