<?xml version="1.0" encoding="UTF-8" standalone="no"?><svg xmlns="http://www.w3.org/2000/svg" xmlns:xlink="http://www.w3.org/1999/xlink" contentScriptType="application/ecmascript" contentStyleType="text/css" height="180px" preserveAspectRatio="none" style="width:107px;height:180px;" version="1.1" viewBox="0 0 107 180" width="107px" zoomAndPan="magnify"><defs><filter height="300%" id="f1sc0kbrdwfxzb" width="300%" x="-1" y="-1"><feGaussianBlur result="blurOut" stdDeviation="2.0"/><feColorMatrix in="blurOut" result="blurOut2" type="matrix" values="0 0 0 0 0 0 0 0 0 0 0 0 0 0 0 0 0 0 .4 0"/><feOffset dx="4.0" dy="4.0" in="blurOut2" result="blurOut3"/><feBlend in="SourceGraphic" in2="blurOut3" mode="normal"/></filter></defs><g><!--MD5=[faf6937fa1a9c7319788bf9248e34648]
class ClickFlux--><rect fill="#FEFECE" filter="url(#f1sc0kbrdwfxzb)" height="53.9375" id="ClickFlux" style="stroke: #A80036; stroke-width: 1.5;" width="84" x="9" y="116"/><ellipse cx="24" cy="134.9688" fill="#ADD1B2" rx="11" ry="11" style="stroke: #A80036; stroke-width: 1.0;"/><path d="M26.9688,140.6094 Q26.3906,140.9063 25.75,141.0469 Q25.1094,141.2031 24.4063,141.2031 Q21.9063,141.2031 20.5781,139.5625 Q19.2656,137.9063 19.2656,134.7813 Q19.2656,131.6563 20.5781,130 Q21.9063,128.3438 24.4063,128.3438 Q25.1094,128.3438 25.75,128.5 Q26.4063,128.6563 26.9688,128.9531 L26.9688,131.6719 Q26.3438,131.0938 25.75,130.8281 Q25.1563,130.5469 24.5313,130.5469 Q23.1875,130.5469 22.5,131.625 Q21.8125,132.6875 21.8125,134.7813 Q21.8125,136.875 22.5,137.9531 Q23.1875,139.0156 24.5313,139.0156 Q25.1563,139.0156 25.75,138.75 Q26.3438,138.4688 26.9688,137.8906 L26.9688,140.6094 Z "/><text fill="#000000" font-family="sans-serif" font-size="12" font-style="italic" lengthAdjust="spacingAndGlyphs" textLength="55" x="36.5" y="132.1387">«sealed»</text><text fill="#000000" font-family="sans-serif" font-size="12" lengthAdjust="spacingAndGlyphs" textLength="52" x="38" y="146.1074">ClickFlux</text><line style="stroke: #A80036; stroke-width: 1.5;" x1="10" x2="92" y1="153.9375" y2="153.9375"/><line style="stroke: #A80036; stroke-width: 1.5;" x1="10" x2="92" y1="161.9375" y2="161.9375"/><!--MD5=[6d093dd77816384d83892ff11248f2ea]
class MonoFlux--><rect fill="#FEFECE" filter="url(#f1sc0kbrdwfxzb)" height="48" id="MonoFlux" style="stroke: #A80036; stroke-width: 1.5;" width="90" x="6" y="8"/><ellipse cx="21" cy="24" fill="#ADD1B2" rx="11" ry="11" style="stroke: #A80036; stroke-width: 1.0;"/><path d="M23.9688,29.6406 Q23.3906,29.9375 22.75,30.0781 Q22.1094,30.2344 21.4063,30.2344 Q18.9063,30.2344 17.5781,28.5938 Q16.2656,26.9375 16.2656,23.8125 Q16.2656,20.6875 17.5781,19.0313 Q18.9063,17.375 21.4063,17.375 Q22.1094,17.375 22.75,17.5313 Q23.4063,17.6875 23.9688,17.9844 L23.9688,20.7031 Q23.3438,20.125 22.75,19.8594 Q22.1563,19.5781 21.5313,19.5781 Q20.1875,19.5781 19.5,20.6563 Q18.8125,21.7188 18.8125,23.8125 Q18.8125,25.9063 19.5,26.9844 Q20.1875,28.0469 21.5313,28.0469 Q22.1563,28.0469 22.75,27.7813 Q23.3438,27.5 23.9688,26.9219 L23.9688,29.6406 Z "/><text fill="#000000" font-family="sans-serif" font-size="12" lengthAdjust="spacingAndGlyphs" textLength="58" x="35" y="28.1543">MonoFlux</text><line style="stroke: #A80036; stroke-width: 1.5;" x1="7" x2="95" y1="40" y2="40"/><line style="stroke: #A80036; stroke-width: 1.5;" x1="7" x2="95" y1="48" y2="48"/><!--MD5=[e652c9e183188f070e39cf01faad4305]
reverse link MonoFlux to ClickFlux--><path d="M51,76.46 C51,89.8 51,104.06 51,115.86 " fill="none" id="MonoFlux&lt;-ClickFlux" style="stroke: #A80036; stroke-width: 1.0;"/><polygon fill="none" points="44,76.12,51,56.12,58,76.12,44,76.12" style="stroke: #A80036; stroke-width: 1.0;"/><!--MD5=[9cdb6c16249c602473d04d7ff7d954da]
@startuml
class ClickFlux <<sealed>> {
}
MonoFlux <|- - ClickFlux
@enduml

PlantUML version 1.2020.02(Sun Mar 01 10:22:07 GMT 2020)
(GPL source distribution)
Java Runtime: OpenJDK Runtime Environment
JVM: OpenJDK 64-Bit Server VM
Java Version: 11.0.9+11-Ubuntu-0ubuntu1
Operating System: Linux
Default Encoding: ANSI_X3.4-1968
Language: en
Country: US
--></g></svg>