<?xml version="1.0" encoding="UTF-8" standalone="no"?><svg xmlns="http://www.w3.org/2000/svg" xmlns:xlink="http://www.w3.org/1999/xlink" contentScriptType="application/ecmascript" contentStyleType="text/css" height="368px" preserveAspectRatio="none" style="width:233px;height:368px;" version="1.1" viewBox="0 0 233 368" width="233px" zoomAndPan="magnify"><defs><filter height="300%" id="fn5v3aawvxdsr" width="300%" x="-1" y="-1"><feGaussianBlur result="blurOut" stdDeviation="2.0"/><feColorMatrix in="blurOut" result="blurOut2" type="matrix" values="0 0 0 0 0 0 0 0 0 0 0 0 0 0 0 0 0 0 .4 0"/><feOffset dx="4.0" dy="4.0" in="blurOut2" result="blurOut3"/><feBlend in="SourceGraphic" in2="blurOut3" mode="normal"/></filter></defs><g><!--MD5=[9f9c85030036077d46bb617c2cc9038e]
class Click--><rect fill="#FEFECE" filter="url(#fn5v3aawvxdsr)" height="144.7344" id="Click" style="stroke: #A80036; stroke-width: 1.5;" width="165" x="31.5" y="8"/><ellipse cx="84.75" cy="33.9531" fill="#ADD1B2" rx="11" ry="11" style="stroke: #A80036; stroke-width: 1.0;"/><path d="M87.7188,39.5938 Q87.1406,39.8906 86.5,40.0313 Q85.8594,40.1875 85.1563,40.1875 Q82.6563,40.1875 81.3281,38.5469 Q80.0156,36.8906 80.0156,33.7656 Q80.0156,30.6406 81.3281,28.9844 Q82.6563,27.3281 85.1563,27.3281 Q85.8594,27.3281 86.5,27.4844 Q87.1563,27.6406 87.7188,27.9375 L87.7188,30.6563 Q87.0938,30.0781 86.5,29.8125 Q85.9063,29.5313 85.2813,29.5313 Q83.9375,29.5313 83.25,30.6094 Q82.5625,31.6719 82.5625,33.7656 Q82.5625,35.8594 83.25,36.9375 Q83.9375,38 85.2813,38 Q85.9063,38 86.5,37.7344 Q87.0938,37.4531 87.7188,36.875 L87.7188,39.5938 Z "/><text fill="#000000" font-family="sans-serif" font-size="12" font-style="italic" lengthAdjust="spacingAndGlyphs" textLength="48" x="106.25" y="24.1387">«static»</text><text fill="#000000" font-family="sans-serif" font-size="12" font-style="italic" lengthAdjust="spacingAndGlyphs" textLength="54" x="103.25" y="38.1074">«partial»</text><text fill="#000000" font-family="sans-serif" font-size="12" lengthAdjust="spacingAndGlyphs" textLength="28" x="116.25" y="52.0762">Click</text><line style="stroke: #A80036; stroke-width: 1.5;" x1="32.5" x2="195.5" y1="59.9063" y2="59.9063"/><line style="stroke: #A80036; stroke-width: 1.5;" x1="32.5" x2="195.5" y1="67.9063" y2="67.9063"/><ellipse cx="42.5" cy="78.9063" fill="#84BE84" rx="3" ry="3" style="stroke: #038048; stroke-width: 1.0;"/><text fill="#000000" font-family="sans-serif" font-size="11" lengthAdjust="spacingAndGlyphs" text-decoration="underline" textLength="139" x="51.5" y="82.1167">OnClickEnterNew() : void</text><ellipse cx="42.5" cy="91.7109" fill="#84BE84" rx="3" ry="3" style="stroke: #038048; stroke-width: 1.0;"/><text fill="#000000" font-family="sans-serif" font-size="11" lengthAdjust="spacingAndGlyphs" text-decoration="underline" textLength="134" x="51.5" y="94.9214">OnClickEnterOld() : void</text><ellipse cx="42.5" cy="104.5156" fill="#84BE84" rx="3" ry="3" style="stroke: #038048; stroke-width: 1.0;"/><text fill="#000000" font-family="sans-serif" font-size="11" lengthAdjust="spacingAndGlyphs" text-decoration="underline" textLength="115" x="51.5" y="107.7261">OnClickEnter() : void</text><ellipse cx="42.5" cy="117.3203" fill="#84BE84" rx="3" ry="3" style="stroke: #038048; stroke-width: 1.0;"/><text fill="#000000" font-family="sans-serif" font-size="11" lengthAdjust="spacingAndGlyphs" text-decoration="underline" textLength="129" x="51.5" y="120.5308">OnClickExitNew() : void</text><ellipse cx="42.5" cy="130.125" fill="#84BE84" rx="3" ry="3" style="stroke: #038048; stroke-width: 1.0;"/><text fill="#000000" font-family="sans-serif" font-size="11" lengthAdjust="spacingAndGlyphs" text-decoration="underline" textLength="124" x="51.5" y="133.3354">OnClickExitOld() : void</text><ellipse cx="42.5" cy="142.9297" fill="#84BE84" rx="3" ry="3" style="stroke: #038048; stroke-width: 1.0;"/><text fill="#000000" font-family="sans-serif" font-size="11" lengthAdjust="spacingAndGlyphs" text-decoration="underline" textLength="105" x="51.5" y="146.1401">OnClickExit() : void</text><!--MD5=[2086e18d236f9616263f91fe5276f8cf]
class Key--><rect fill="#FEFECE" filter="url(#fn5v3aawvxdsr)" height="144.7344" id="Key" style="stroke: #A80036; stroke-width: 1.5;" width="216" x="6" y="213"/><ellipse cx="84.75" cy="238.9531" fill="#ADD1B2" rx="11" ry="11" style="stroke: #A80036; stroke-width: 1.0;"/><path d="M87.7188,244.5938 Q87.1406,244.8906 86.5,245.0313 Q85.8594,245.1875 85.1563,245.1875 Q82.6563,245.1875 81.3281,243.5469 Q80.0156,241.8906 80.0156,238.7656 Q80.0156,235.6406 81.3281,233.9844 Q82.6563,232.3281 85.1563,232.3281 Q85.8594,232.3281 86.5,232.4844 Q87.1563,232.6406 87.7188,232.9375 L87.7188,235.6563 Q87.0938,235.0781 86.5,234.8125 Q85.9063,234.5313 85.2813,234.5313 Q83.9375,234.5313 83.25,235.6094 Q82.5625,236.6719 82.5625,238.7656 Q82.5625,240.8594 83.25,241.9375 Q83.9375,243 85.2813,243 Q85.9063,243 86.5,242.7344 Q87.0938,242.4531 87.7188,241.875 L87.7188,244.5938 Z "/><text fill="#000000" font-family="sans-serif" font-size="12" font-style="italic" lengthAdjust="spacingAndGlyphs" textLength="48" x="106.25" y="229.1387">«static»</text><text fill="#000000" font-family="sans-serif" font-size="12" font-style="italic" lengthAdjust="spacingAndGlyphs" textLength="54" x="103.25" y="243.1074">«partial»</text><text fill="#000000" font-family="sans-serif" font-size="12" lengthAdjust="spacingAndGlyphs" textLength="21" x="119.75" y="257.0762">Key</text><line style="stroke: #A80036; stroke-width: 1.5;" x1="7" x2="221" y1="264.9063" y2="264.9063"/><ellipse cx="17" cy="275.9063" fill="none" rx="3" ry="3" style="stroke: #038048; stroke-width: 1.0;"/><text fill="#000000" font-family="sans-serif" font-size="11" lengthAdjust="spacingAndGlyphs" textLength="190" x="26" y="279.1167">«const» OnClickEnterNew : string</text><ellipse cx="17" cy="288.7109" fill="none" rx="3" ry="3" style="stroke: #038048; stroke-width: 1.0;"/><text fill="#000000" font-family="sans-serif" font-size="11" lengthAdjust="spacingAndGlyphs" textLength="185" x="26" y="291.9214">«const» OnClickEnterOld : string</text><ellipse cx="17" cy="301.5156" fill="none" rx="3" ry="3" style="stroke: #038048; stroke-width: 1.0;"/><text fill="#000000" font-family="sans-serif" font-size="11" lengthAdjust="spacingAndGlyphs" textLength="166" x="26" y="304.7261">«const» OnClickEnter : string</text><ellipse cx="17" cy="314.3203" fill="none" rx="3" ry="3" style="stroke: #038048; stroke-width: 1.0;"/><text fill="#000000" font-family="sans-serif" font-size="11" lengthAdjust="spacingAndGlyphs" textLength="180" x="26" y="317.5308">«const» OnClickExitNew : string</text><ellipse cx="17" cy="327.125" fill="none" rx="3" ry="3" style="stroke: #038048; stroke-width: 1.0;"/><text fill="#000000" font-family="sans-serif" font-size="11" lengthAdjust="spacingAndGlyphs" textLength="175" x="26" y="330.3354">«const» OnClickExitOld : string</text><ellipse cx="17" cy="339.9297" fill="none" rx="3" ry="3" style="stroke: #038048; stroke-width: 1.0;"/><text fill="#000000" font-family="sans-serif" font-size="11" lengthAdjust="spacingAndGlyphs" textLength="156" x="26" y="343.1401">«const» OnClickExit : string</text><line style="stroke: #A80036; stroke-width: 1.5;" x1="7" x2="221" y1="349.7344" y2="349.7344"/><!--MD5=[175272df2723708981ea2a819f1b9481]
reverse link Click to Key--><path d="M114,168.34 C114,183.2 114,198.49 114,212.89 " fill="none" id="Click&lt;-Key" style="stroke: #A80036; stroke-width: 1.0;"/><ellipse cx="114" cy="161.07" fill="#FFFFFF" rx="8" ry="8" style="stroke: #A80036; stroke-width: 1.0;"/><line style="stroke: #A80036; stroke-width: 1.0;" x1="114" x2="114" y1="169.07" y2="153.07"/><line style="stroke: #A80036; stroke-width: 1.0;" x1="106" x2="122" y1="161.07" y2="161.07"/><!--MD5=[c55f9af52a5533dbe5a898da39291d05]
@startuml
class Click <<static>> <<partial>> {
}
class Click <<static>> <<partial>> {
    + {static} OnClickEnterNew() : void
    + {static} OnClickEnterOld() : void
    + {static} OnClickEnter() : void
    + {static} OnClickExitNew() : void
    + {static} OnClickExitOld() : void
    + {static} OnClickExit() : void
}
class Key <<static>> <<partial>> {
    + <<const>> OnClickEnterNew : string
    + <<const>> OnClickEnterOld : string
    + <<const>> OnClickEnter : string
    + <<const>> OnClickExitNew : string
    + <<const>> OnClickExitOld : string
    + <<const>> OnClickExit : string
}
Click +- - Key
@enduml

PlantUML version 1.2020.02(Sun Mar 01 10:22:07 GMT 2020)
(GPL source distribution)
Java Runtime: OpenJDK Runtime Environment
JVM: OpenJDK 64-Bit Server VM
Java Version: 11.0.9+11-Ubuntu-0ubuntu1
Operating System: Linux
Default Encoding: ANSI_X3.4-1968
Language: en
Country: US
--></g></svg>