<?xml version="1.0" encoding="UTF-8" standalone="no"?><svg xmlns="http://www.w3.org/2000/svg" xmlns:xlink="http://www.w3.org/1999/xlink" contentScriptType="application/ecmascript" contentStyleType="text/css" height="206px" preserveAspectRatio="none" style="width:323px;height:206px;" version="1.1" viewBox="0 0 323 206" width="323px" zoomAndPan="magnify"><defs><filter height="300%" id="flqarfo2i9wb6" width="300%" x="-1" y="-1"><feGaussianBlur result="blurOut" stdDeviation="2.0"/><feColorMatrix in="blurOut" result="blurOut2" type="matrix" values="0 0 0 0 0 0 0 0 0 0 0 0 0 0 0 0 0 0 .4 0"/><feOffset dx="4.0" dy="4.0" in="blurOut2" result="blurOut3"/><feBlend in="SourceGraphic" in2="blurOut3" mode="normal"/></filter></defs><g><!--MD5=[9d03a2ab60beb36afdea92e661e821a0]
class ActionFlux`1--><rect fill="#FEFECE" filter="url(#flqarfo2i9wb6)" height="79.5469" id="ActionFlux`1" style="stroke: #A80036; stroke-width: 1.5;" width="303" x="6" y="116"/><ellipse cx="97.75" cy="134.9688" fill="#ADD1B2" rx="11" ry="11" style="stroke: #A80036; stroke-width: 1.0;"/><path d="M100.7188,140.6094 Q100.1406,140.9063 99.5,141.0469 Q98.8594,141.2031 98.1563,141.2031 Q95.6563,141.2031 94.3281,139.5625 Q93.0156,137.9063 93.0156,134.7813 Q93.0156,131.6563 94.3281,130 Q95.6563,128.3438 98.1563,128.3438 Q98.8594,128.3438 99.5,128.5 Q100.1563,128.6563 100.7188,128.9531 L100.7188,131.6719 Q100.0938,131.0938 99.5,130.8281 Q98.9063,130.5469 98.2813,130.5469 Q96.9375,130.5469 96.25,131.625 Q95.5625,132.6875 95.5625,134.7813 Q95.5625,136.875 96.25,137.9531 Q96.9375,139.0156 98.2813,139.0156 Q98.9063,139.0156 99.5,138.75 Q100.0938,138.4688 100.7188,137.8906 L100.7188,140.6094 Z "/><text fill="#000000" font-family="sans-serif" font-size="12" font-style="italic" lengthAdjust="spacingAndGlyphs" textLength="55" x="129.25" y="132.1387">«sealed»</text><text fill="#000000" font-family="sans-serif" font-size="12" lengthAdjust="spacingAndGlyphs" textLength="77" x="118.25" y="146.1074">ActionFlux`1</text><rect fill="#FFFFFF" height="15.9688" style="stroke: #000000; stroke-width: 1.0; stroke-dasharray: 2.0,2.0;" width="32" x="280" y="113"/><text fill="#000000" font-family="sans-serif" font-size="12" font-style="italic" lengthAdjust="spacingAndGlyphs" textLength="30" x="281" y="125.1387">TKey</text><line style="stroke: #A80036; stroke-width: 1.5;" x1="7" x2="308" y1="153.9375" y2="153.9375"/><line style="stroke: #A80036; stroke-width: 1.5;" x1="7" x2="308" y1="161.9375" y2="161.9375"/><text fill="#000000" font-family="sans-serif" font-size="11" lengthAdjust="spacingAndGlyphs" textLength="291" x="12" y="176.1479">Store(condition:bool, key:TKey, action:Action) : void</text><text fill="#000000" font-family="sans-serif" font-size="11" lengthAdjust="spacingAndGlyphs" textLength="142" x="12" y="188.9526">Dispatch(key:TKey) : void</text><!--MD5=[efb174289e09cbc66584c826ee8e4372]
class IFlux`2--><rect fill="#FEFECE" filter="url(#flqarfo2i9wb6)" height="48" id="IFlux`2" style="stroke: #A80036; stroke-width: 1.5;" width="111" x="102" y="8"/><ellipse cx="117" cy="24" fill="#ADD1B2" rx="11" ry="11" style="stroke: #A80036; stroke-width: 1.0;"/><path d="M119.9688,29.6406 Q119.3906,29.9375 118.75,30.0781 Q118.1094,30.2344 117.4063,30.2344 Q114.9063,30.2344 113.5781,28.5938 Q112.2656,26.9375 112.2656,23.8125 Q112.2656,20.6875 113.5781,19.0313 Q114.9063,17.375 117.4063,17.375 Q118.1094,17.375 118.75,17.5313 Q119.4063,17.6875 119.9688,17.9844 L119.9688,20.7031 Q119.3438,20.125 118.75,19.8594 Q118.1563,19.5781 117.5313,19.5781 Q116.1875,19.5781 115.5,20.6563 Q114.8125,21.7188 114.8125,23.8125 Q114.8125,25.9063 115.5,26.9844 Q116.1875,28.0469 117.5313,28.0469 Q118.1563,28.0469 118.75,27.7813 Q119.3438,27.5 119.9688,26.9219 L119.9688,29.6406 Z "/><text fill="#000000" font-family="sans-serif" font-size="12" lengthAdjust="spacingAndGlyphs" textLength="41" x="131" y="28.1543">IFlux`2</text><rect fill="#FFFFFF" height="15.9688" style="stroke: #000000; stroke-width: 1.0; stroke-dasharray: 2.0,2.0;" width="36" x="180" y="5"/><text fill="#000000" font-family="sans-serif" font-size="12" font-style="italic" lengthAdjust="spacingAndGlyphs" textLength="34" x="181" y="17.1387">T1,T2</text><line style="stroke: #A80036; stroke-width: 1.5;" x1="103" x2="212" y1="40" y2="40"/><line style="stroke: #A80036; stroke-width: 1.5;" x1="103" x2="212" y1="48" y2="48"/><!--MD5=[141cb83c9cdcce86ee2fac954d4169de]
reverse link IFlux`2 to ActionFlux`1--><path d="M157.5,76.25 C157.5,89.04 157.5,102.98 157.5,115.53 " fill="none" id="IFlux`2&lt;-ActionFlux`1" style="stroke: #A80036; stroke-width: 1.0;"/><polygon fill="none" points="150.5,76.23,157.5,56.23,164.5,76.23,150.5,76.23" style="stroke: #A80036; stroke-width: 1.0;"/><text fill="#000000" font-family="sans-serif" font-size="13" lengthAdjust="spacingAndGlyphs" textLength="96" x="49.8" y="76.0473">&lt;TKey,Action&gt;</text><!--MD5=[0573ec0e95a0210319520b93ff336d17]
@startuml
class "ActionFlux`1"<TKey> <<sealed>> {
    Store(condition:bool, key:TKey, action:Action) : void
    Dispatch(key:TKey) : void
}
class "IFlux`2"<T1,T2> {
}
"IFlux`2" "<TKey,Action>" <|- - "ActionFlux`1"
@enduml

PlantUML version 1.2020.02(Sun Mar 01 10:22:07 GMT 2020)
(GPL source distribution)
Java Runtime: OpenJDK Runtime Environment
JVM: OpenJDK 64-Bit Server VM
Java Version: 11.0.9+11-Ubuntu-0ubuntu1
Operating System: Linux
Default Encoding: ANSI_X3.4-1968
Language: en
Country: US
--></g></svg>