<?xml version="1.0" encoding="UTF-8" standalone="no"?><svg xmlns="http://www.w3.org/2000/svg" xmlns:xlink="http://www.w3.org/1999/xlink" contentScriptType="application/ecmascript" contentStyleType="text/css" height="180px" preserveAspectRatio="none" style="width:145px;height:180px;" version="1.1" viewBox="0 0 145 180" width="145px" zoomAndPan="magnify"><defs><filter height="300%" id="f660ie2dd0tx0" width="300%" x="-1" y="-1"><feGaussianBlur result="blurOut" stdDeviation="2.0"/><feColorMatrix in="blurOut" result="blurOut2" type="matrix" values="0 0 0 0 0 0 0 0 0 0 0 0 0 0 0 0 0 0 .4 0"/><feOffset dx="4.0" dy="4.0" in="blurOut2" result="blurOut3"/><feBlend in="SourceGraphic" in2="blurOut3" mode="normal"/></filter></defs><g><!--MD5=[6d093dd77816384d83892ff11248f2ea]
class MonoFlux--><rect fill="#FEFECE" filter="url(#f660ie2dd0tx0)" height="53.9375" id="MonoFlux" style="stroke: #A80036; stroke-width: 1.5;" width="91" x="24.5" y="116"/><ellipse cx="39.5" cy="134.9688" fill="#A9DCDF" rx="11" ry="11" style="stroke: #A80036; stroke-width: 1.0;"/><path d="M39.6094,130.3125 L38.4531,135.3906 L40.7813,135.3906 L39.6094,130.3125 Z M38.125,128.0781 L41.1094,128.0781 L44.4688,140.4688 L42.0156,140.4688 L41.25,137.4063 L37.9688,137.4063 L37.2188,140.4688 L34.7813,140.4688 L38.125,128.0781 Z "/><text fill="#000000" font-family="sans-serif" font-size="12" font-style="italic" lengthAdjust="spacingAndGlyphs" textLength="54" x="56" y="132.1387">«partial»</text><text fill="#000000" font-family="sans-serif" font-size="12" font-style="italic" lengthAdjust="spacingAndGlyphs" textLength="59" x="53.5" y="146.1074">MonoFlux</text><line style="stroke: #A80036; stroke-width: 1.5;" x1="25.5" x2="114.5" y1="153.9375" y2="153.9375"/><line style="stroke: #A80036; stroke-width: 1.5;" x1="25.5" x2="114.5" y1="161.9375" y2="161.9375"/><!--MD5=[83b3cf3d23d77c6f1e1b5291a241bc2a]
class MonoBehaviour--><rect fill="#FEFECE" filter="url(#f660ie2dd0tx0)" height="48" id="MonoBehaviour" style="stroke: #A80036; stroke-width: 1.5;" width="128" x="6" y="8"/><ellipse cx="21" cy="24" fill="#ADD1B2" rx="11" ry="11" style="stroke: #A80036; stroke-width: 1.0;"/><path d="M23.9688,29.6406 Q23.3906,29.9375 22.75,30.0781 Q22.1094,30.2344 21.4063,30.2344 Q18.9063,30.2344 17.5781,28.5938 Q16.2656,26.9375 16.2656,23.8125 Q16.2656,20.6875 17.5781,19.0313 Q18.9063,17.375 21.4063,17.375 Q22.1094,17.375 22.75,17.5313 Q23.4063,17.6875 23.9688,17.9844 L23.9688,20.7031 Q23.3438,20.125 22.75,19.8594 Q22.1563,19.5781 21.5313,19.5781 Q20.1875,19.5781 19.5,20.6563 Q18.8125,21.7188 18.8125,23.8125 Q18.8125,25.9063 19.5,26.9844 Q20.1875,28.0469 21.5313,28.0469 Q22.1563,28.0469 22.75,27.7813 Q23.3438,27.5 23.9688,26.9219 L23.9688,29.6406 Z "/><text fill="#000000" font-family="sans-serif" font-size="12" lengthAdjust="spacingAndGlyphs" textLength="96" x="35" y="28.1543">MonoBehaviour</text><line style="stroke: #A80036; stroke-width: 1.5;" x1="7" x2="133" y1="40" y2="40"/><line style="stroke: #A80036; stroke-width: 1.5;" x1="7" x2="133" y1="48" y2="48"/><!--MD5=[3329ec693ab3df60c0fae997d2caf889]
reverse link MonoBehaviour to MonoFlux--><path d="M70,76.46 C70,89.8 70,104.06 70,115.86 " fill="none" id="MonoBehaviour&lt;-MonoFlux" style="stroke: #A80036; stroke-width: 1.0;"/><polygon fill="none" points="63,76.12,70,56.12,77,76.12,63,76.12" style="stroke: #A80036; stroke-width: 1.0;"/><!--MD5=[950f31f389a9473d20d6571171694ef3]
@startuml
abstract class MonoFlux <<partial>> {
}
MonoBehaviour <|- - MonoFlux
@enduml

PlantUML version 1.2020.02(Sun Mar 01 10:22:07 GMT 2020)
(GPL source distribution)
Java Runtime: OpenJDK Runtime Environment
JVM: OpenJDK 64-Bit Server VM
Java Version: 11.0.9+11-Ubuntu-0ubuntu1
Operating System: Linux
Default Encoding: ANSI_X3.4-1968
Language: en
Country: US
--></g></svg>