<?xml version="1.0" encoding="UTF-8" standalone="no"?><svg xmlns="http://www.w3.org/2000/svg" xmlns:xlink="http://www.w3.org/1999/xlink" contentScriptType="application/ecmascript" contentStyleType="text/css" height="84px" preserveAspectRatio="none" style="width:340px;height:84px;" version="1.1" viewBox="0 0 340 84" width="340px" zoomAndPan="magnify"><defs><filter height="300%" id="f1khkd1ex6w7a0" width="300%" x="-1" y="-1"><feGaussianBlur result="blurOut" stdDeviation="2.0"/><feColorMatrix in="blurOut" result="blurOut2" type="matrix" values="0 0 0 0 0 0 0 0 0 0 0 0 0 0 0 0 0 0 .4 0"/><feOffset dx="4.0" dy="4.0" in="blurOut2" result="blurOut3"/><feBlend in="SourceGraphic" in2="blurOut3" mode="normal"/></filter></defs><g><!--MD5=[f8d2b21678b6ea5d90e779ee6463ca37]
class Utils--><rect fill="#FEFECE" filter="url(#f1khkd1ex6w7a0)" height="66.7422" id="Utils" style="stroke: #A80036; stroke-width: 1.5;" width="322" x="7" y="7"/><ellipse cx="141.75" cy="25.9688" fill="#ADD1B2" rx="11" ry="11" style="stroke: #A80036; stroke-width: 1.0;"/><path d="M144.7188,31.6094 Q144.1406,31.9063 143.5,32.0469 Q142.8594,32.2031 142.1563,32.2031 Q139.6563,32.2031 138.3281,30.5625 Q137.0156,28.9063 137.0156,25.7813 Q137.0156,22.6563 138.3281,21 Q139.6563,19.3438 142.1563,19.3438 Q142.8594,19.3438 143.5,19.5 Q144.1563,19.6563 144.7188,19.9531 L144.7188,22.6719 Q144.0938,22.0938 143.5,21.8281 Q142.9063,21.5469 142.2813,21.5469 Q140.9375,21.5469 140.25,22.625 Q139.5625,23.6875 139.5625,25.7813 Q139.5625,27.875 140.25,28.9531 Q140.9375,30.0156 142.2813,30.0156 Q142.9063,30.0156 143.5,29.75 Q144.0938,29.4688 144.7188,28.8906 L144.7188,31.6094 Z "/><text fill="#000000" font-family="sans-serif" font-size="12" font-style="italic" lengthAdjust="spacingAndGlyphs" textLength="48" x="160.25" y="23.1387">«static»</text><text fill="#000000" font-family="sans-serif" font-size="12" lengthAdjust="spacingAndGlyphs" textLength="27" x="170.75" y="37.1074">Utils</text><line style="stroke: #A80036; stroke-width: 1.5;" x1="8" x2="328" y1="44.9375" y2="44.9375"/><line style="stroke: #A80036; stroke-width: 1.5;" x1="8" x2="328" y1="52.9375" y2="52.9375"/><ellipse cx="18" cy="63.9375" fill="#84BE84" rx="3" ry="3" style="stroke: #038048; stroke-width: 1.0;"/><text fill="#000000" font-family="sans-serif" font-size="11" lengthAdjust="spacingAndGlyphs" text-decoration="underline" textLength="296" x="27" y="67.1479">Subscribe(condition:bool, action:T, callback:T) : void</text><!--MD5=[82fb7ec3dd6cc3da59f374d389d09171]
@startuml
class Utils <<static>> {
    + {static} Subscribe(condition:bool, action:T, callback:T) : void
}
@enduml

PlantUML version 1.2020.02(Sun Mar 01 10:22:07 GMT 2020)
(GPL source distribution)
Java Runtime: OpenJDK Runtime Environment
JVM: OpenJDK 64-Bit Server VM
Java Version: 11.0.9+11-Ubuntu-0ubuntu1
Operating System: Linux
Default Encoding: ANSI_X3.4-1968
Language: en
Country: US
--></g></svg>