<?xml version="1.0" encoding="UTF-8" standalone="no"?><svg xmlns="http://www.w3.org/2000/svg" xmlns:xlink="http://www.w3.org/1999/xlink" contentScriptType="application/ecmascript" contentStyleType="text/css" height="91px" preserveAspectRatio="none" style="width:179px;height:91px;" version="1.1" viewBox="0 0 179 91" width="179px" zoomAndPan="magnify"><defs><filter height="300%" id="f1d2uxi0w5b85x" width="300%" x="-1" y="-1"><feGaussianBlur result="blurOut" stdDeviation="2.0"/><feColorMatrix in="blurOut" result="blurOut2" type="matrix" values="0 0 0 0 0 0 0 0 0 0 0 0 0 0 0 0 0 0 .4 0"/><feOffset dx="4.0" dy="4.0" in="blurOut2" result="blurOut3"/><feBlend in="SourceGraphic" in2="blurOut3" mode="normal"/></filter></defs><g><!--MD5=[e1ba27c0eed10b8b87fa07fe861fb01d]
class FluxAttribute--><rect fill="#FEFECE" filter="url(#f1d2uxi0w5b85x)" height="73.6094" id="FluxAttribute" style="stroke: #A80036; stroke-width: 1.5;" width="161" x="7" y="7"/><ellipse cx="44.5" cy="23" fill="#ADD1B2" rx="11" ry="11" style="stroke: #A80036; stroke-width: 1.0;"/><path d="M47.4688,28.6406 Q46.8906,28.9375 46.25,29.0781 Q45.6094,29.2344 44.9063,29.2344 Q42.4063,29.2344 41.0781,27.5938 Q39.7656,25.9375 39.7656,22.8125 Q39.7656,19.6875 41.0781,18.0313 Q42.4063,16.375 44.9063,16.375 Q45.6094,16.375 46.25,16.5313 Q46.9063,16.6875 47.4688,16.9844 L47.4688,19.7031 Q46.8438,19.125 46.25,18.8594 Q45.6563,18.5781 45.0313,18.5781 Q43.6875,18.5781 43,19.6563 Q42.3125,20.7188 42.3125,22.8125 Q42.3125,24.9063 43,25.9844 Q43.6875,27.0469 45.0313,27.0469 Q45.6563,27.0469 46.25,26.7813 Q46.8438,26.5 47.4688,25.9219 L47.4688,28.6406 Z "/><text fill="#000000" font-family="sans-serif" font-size="12" lengthAdjust="spacingAndGlyphs" textLength="79" x="63.5" y="27.1543">FluxAttribute</text><line style="stroke: #A80036; stroke-width: 1.5;" x1="8" x2="167" y1="39" y2="39"/><ellipse cx="18" cy="50" fill="none" rx="3" ry="3" style="stroke: #038048; stroke-width: 1.0;"/><text fill="#000000" font-family="sans-serif" font-size="11" lengthAdjust="spacingAndGlyphs" textLength="132" x="27" y="53.2104">«readonly» key : object</text><line style="stroke: #A80036; stroke-width: 1.5;" x1="8" x2="167" y1="59.8047" y2="59.8047"/><ellipse cx="18" cy="70.8047" fill="#84BE84" rx="3" ry="3" style="stroke: #038048; stroke-width: 1.0;"/><text fill="#000000" font-family="sans-serif" font-size="11" lengthAdjust="spacingAndGlyphs" textLength="135" x="27" y="74.0151">FluxAttribute(key:object)</text><!--MD5=[597858ad5967b4831e23450c7ddb279b]
@startuml
class FluxAttribute {
    + <<readonly>> key : object
    + FluxAttribute(key:object)
}
@enduml

PlantUML version 1.2020.02(Sun Mar 01 10:22:07 GMT 2020)
(GPL source distribution)
Java Runtime: OpenJDK Runtime Environment
JVM: OpenJDK 64-Bit Server VM
Java Version: 11.0.9+11-Ubuntu-0ubuntu1
Operating System: Linux
Default Encoding: ANSI_X3.4-1968
Language: en
Country: US
--></g></svg>