<?xml version="1.0" encoding="UTF-8" standalone="no"?><svg xmlns="http://www.w3.org/2000/svg" xmlns:xlink="http://www.w3.org/1999/xlink" contentScriptType="application/ecmascript" contentStyleType="text/css" height="206px" preserveAspectRatio="none" style="width:407px;height:206px;" version="1.1" viewBox="0 0 407 206" width="407px" zoomAndPan="magnify"><defs><filter height="300%" id="f1pqbt7l88jzwd" width="300%" x="-1" y="-1"><feGaussianBlur result="blurOut" stdDeviation="2.0"/><feColorMatrix in="blurOut" result="blurOut2" type="matrix" values="0 0 0 0 0 0 0 0 0 0 0 0 0 0 0 0 0 0 .4 0"/><feOffset dx="4.0" dy="4.0" in="blurOut2" result="blurOut3"/><feBlend in="SourceGraphic" in2="blurOut3" mode="normal"/></filter></defs><g><!--MD5=[cfcfdf9ba1021c55c95f45d51048e41b]
class StateFlux`2--><rect fill="#FEFECE" filter="url(#f1pqbt7l88jzwd)" height="79.5469" id="StateFlux`2" style="stroke: #A80036; stroke-width: 1.5;" width="359" x="34.5" y="116"/><ellipse cx="133.75" cy="134.9688" fill="#ADD1B2" rx="11" ry="11" style="stroke: #A80036; stroke-width: 1.0;"/><path d="M136.7188,140.6094 Q136.1406,140.9063 135.5,141.0469 Q134.8594,141.2031 134.1563,141.2031 Q131.6563,141.2031 130.3281,139.5625 Q129.0156,137.9063 129.0156,134.7813 Q129.0156,131.6563 130.3281,130 Q131.6563,128.3438 134.1563,128.3438 Q134.8594,128.3438 135.5,128.5 Q136.1563,128.6563 136.7188,128.9531 L136.7188,131.6719 Q136.0938,131.0938 135.5,130.8281 Q134.9063,130.5469 134.2813,130.5469 Q132.9375,130.5469 132.25,131.625 Q131.5625,132.6875 131.5625,134.7813 Q131.5625,136.875 132.25,137.9531 Q132.9375,139.0156 134.2813,139.0156 Q134.9063,139.0156 135.5,138.75 Q136.0938,138.4688 136.7188,137.8906 L136.7188,140.6094 Z "/><text fill="#000000" font-family="sans-serif" font-size="12" font-style="italic" lengthAdjust="spacingAndGlyphs" textLength="55" x="162.75" y="132.1387">«sealed»</text><text fill="#000000" font-family="sans-serif" font-size="12" lengthAdjust="spacingAndGlyphs" textLength="72" x="154.25" y="146.1074">StateFlux`2</text><rect fill="#FFFFFF" height="15.9688" style="stroke: #000000; stroke-width: 1.0; stroke-dasharray: 2.0,2.0;" width="78" x="318.5" y="113"/><text fill="#000000" font-family="sans-serif" font-size="12" font-style="italic" lengthAdjust="spacingAndGlyphs" textLength="76" x="319.5" y="125.1387">TKey,TValue</text><line style="stroke: #A80036; stroke-width: 1.5;" x1="35.5" x2="392.5" y1="153.9375" y2="153.9375"/><line style="stroke: #A80036; stroke-width: 1.5;" x1="35.5" x2="392.5" y1="161.9375" y2="161.9375"/><text fill="#000000" font-family="sans-serif" font-size="11" lengthAdjust="spacingAndGlyphs" textLength="347" x="40.5" y="176.1479">Store(condition:bool, key:TKey, action:Action&lt;TValue&gt;) : void</text><text fill="#000000" font-family="sans-serif" font-size="11" lengthAdjust="spacingAndGlyphs" textLength="229" x="40.5" y="188.9526">Dispatch(key:TKey, param:TValue) : void</text><!--MD5=[2965d46a07a0b313f5668fdde433fc36]
class IFluxParam`3--><rect fill="#FEFECE" filter="url(#f1pqbt7l88jzwd)" height="48" id="IFluxParam`3" style="stroke: #A80036; stroke-width: 1.5;" width="170" x="129" y="8"/><ellipse cx="144" cy="24" fill="#ADD1B2" rx="11" ry="11" style="stroke: #A80036; stroke-width: 1.0;"/><path d="M146.9688,29.6406 Q146.3906,29.9375 145.75,30.0781 Q145.1094,30.2344 144.4063,30.2344 Q141.9063,30.2344 140.5781,28.5938 Q139.2656,26.9375 139.2656,23.8125 Q139.2656,20.6875 140.5781,19.0313 Q141.9063,17.375 144.4063,17.375 Q145.1094,17.375 145.75,17.5313 Q146.4063,17.6875 146.9688,17.9844 L146.9688,20.7031 Q146.3438,20.125 145.75,19.8594 Q145.1563,19.5781 144.5313,19.5781 Q143.1875,19.5781 142.5,20.6563 Q141.8125,21.7188 141.8125,23.8125 Q141.8125,25.9063 142.5,26.9844 Q143.1875,28.0469 144.5313,28.0469 Q145.1563,28.0469 145.75,27.7813 Q146.3438,27.5 146.9688,26.9219 L146.9688,29.6406 Z "/><text fill="#000000" font-family="sans-serif" font-size="12" lengthAdjust="spacingAndGlyphs" textLength="81" x="158" y="28.1543">IFluxParam`3</text><rect fill="#FFFFFF" height="15.9688" style="stroke: #000000; stroke-width: 1.0; stroke-dasharray: 2.0,2.0;" width="55" x="247" y="5"/><text fill="#000000" font-family="sans-serif" font-size="12" font-style="italic" lengthAdjust="spacingAndGlyphs" textLength="53" x="248" y="17.1387">T1,T2,T3</text><line style="stroke: #A80036; stroke-width: 1.5;" x1="130" x2="298" y1="40" y2="40"/><line style="stroke: #A80036; stroke-width: 1.5;" x1="130" x2="298" y1="48" y2="48"/><!--MD5=[a8d3761c28957222fb33a4f0b922785f]
reverse link IFluxParam`3 to StateFlux`2--><path d="M214,76.25 C214,89.04 214,102.98 214,115.53 " fill="none" id="IFluxParam`3&lt;-StateFlux`2" style="stroke: #A80036; stroke-width: 1.0;"/><polygon fill="none" points="207,76.23,214,56.23,221,76.23,207,76.23" style="stroke: #A80036; stroke-width: 1.0;"/><text fill="#000000" font-family="sans-serif" font-size="13" lengthAdjust="spacingAndGlyphs" textLength="208" x="-19.35" y="76.0473">&lt;TKey,TValue,Action&lt;TValue&gt;&gt;</text><!--MD5=[b2c59dd1681871649f3640936dba997f]
@startuml
class "StateFlux`2"<TKey,TValue> <<sealed>> {
    Store(condition:bool, key:TKey, action:Action<TValue>) : void
    Dispatch(key:TKey, param:TValue) : void
}
class "IFluxParam`3"<T1,T2,T3> {
}
"IFluxParam`3" "<TKey,TValue,Action<TValue>>" <|- - "StateFlux`2"
@enduml

PlantUML version 1.2020.02(Sun Mar 01 10:22:07 GMT 2020)
(GPL source distribution)
Java Runtime: OpenJDK Runtime Environment
JVM: OpenJDK 64-Bit Server VM
Java Version: 11.0.9+11-Ubuntu-0ubuntu1
Operating System: Linux
Default Encoding: ANSI_X3.4-1968
Language: en
Country: US
--></g></svg>