<?xml version="1.0" encoding="UTF-8" standalone="no"?><svg xmlns="http://www.w3.org/2000/svg" xmlns:xlink="http://www.w3.org/1999/xlink" contentScriptType="application/ecmascript" contentStyleType="text/css" height="123px" preserveAspectRatio="none" style="width:336px;height:123px;" version="1.1" viewBox="0 0 336 123" width="336px" zoomAndPan="magnify"><defs><filter height="300%" id="fj51p2oyt4ljd" width="300%" x="-1" y="-1"><feGaussianBlur result="blurOut" stdDeviation="2.0"/><feColorMatrix in="blurOut" result="blurOut2" type="matrix" values="0 0 0 0 0 0 0 0 0 0 0 0 0 0 0 0 0 0 .4 0"/><feOffset dx="4.0" dy="4.0" in="blurOut2" result="blurOut3"/><feBlend in="SourceGraphic" in2="blurOut3" mode="normal"/></filter></defs><g><!--MD5=[fe03aca4f4b6a31a4d295bcdf79ddf25]
class State`1--><rect fill="#FEFECE" filter="url(#fj51p2oyt4ljd)" height="105.1563" id="State`1" style="stroke: #A80036; stroke-width: 1.5;" width="315" x="7" y="7"/><ellipse cx="111.75" cy="25.9688" fill="#ADD1B2" rx="11" ry="11" style="stroke: #A80036; stroke-width: 1.0;"/><path d="M114.7188,31.6094 Q114.1406,31.9063 113.5,32.0469 Q112.8594,32.2031 112.1563,32.2031 Q109.6563,32.2031 108.3281,30.5625 Q107.0156,28.9063 107.0156,25.7813 Q107.0156,22.6563 108.3281,21 Q109.6563,19.3438 112.1563,19.3438 Q112.8594,19.3438 113.5,19.5 Q114.1563,19.6563 114.7188,19.9531 L114.7188,22.6719 Q114.0938,22.0938 113.5,21.8281 Q112.9063,21.5469 112.2813,21.5469 Q110.9375,21.5469 110.25,22.625 Q109.5625,23.6875 109.5625,25.7813 Q109.5625,27.875 110.25,28.9531 Q110.9375,30.0156 112.2813,30.0156 Q112.9063,30.0156 113.5,29.75 Q114.0938,29.4688 114.7188,28.8906 L114.7188,31.6094 Z "/><text fill="#000000" font-family="sans-serif" font-size="12" font-style="italic" lengthAdjust="spacingAndGlyphs" textLength="55" x="130.25" y="23.1387">«sealed»</text><text fill="#000000" font-family="sans-serif" font-size="12" lengthAdjust="spacingAndGlyphs" textLength="48" x="133.75" y="37.1074">State`1</text><rect fill="#FFFFFF" height="15.9688" style="stroke: #000000; stroke-width: 1.0; stroke-dasharray: 2.0,2.0;" width="44" x="281" y="4"/><text fill="#000000" font-family="sans-serif" font-size="12" font-style="italic" lengthAdjust="spacingAndGlyphs" textLength="42" x="282" y="16.1387">TValue</text><line style="stroke: #A80036; stroke-width: 1.5;" x1="8" x2="321" y1="44.9375" y2="44.9375"/><line style="stroke: #A80036; stroke-width: 1.5;" x1="8" x2="321" y1="52.9375" y2="52.9375"/><ellipse cx="18" cy="63.9375" fill="#84BE84" rx="3" ry="3" style="stroke: #038048; stroke-width: 1.0;"/><text fill="#000000" font-family="sans-serif" font-size="11" lengthAdjust="spacingAndGlyphs" textLength="166" x="27" y="67.1479">State(action:Action&lt;TValue&gt;)</text><ellipse cx="18" cy="76.7422" fill="#84BE84" rx="3" ry="3" style="stroke: #038048; stroke-width: 1.0;"/><text fill="#000000" font-family="sans-serif" font-size="11" lengthAdjust="spacingAndGlyphs" textLength="110" x="27" y="79.9526">State(value:TValue)</text><ellipse cx="18" cy="89.5469" fill="#84BE84" rx="3" ry="3" style="stroke: #038048; stroke-width: 1.0;"/><text fill="#000000" font-family="sans-serif" font-size="11" lengthAdjust="spacingAndGlyphs" textLength="289" x="27" y="92.7573">Store(condition:bool, action:Action&lt;TValue&gt;) : void</text><ellipse cx="18" cy="102.3516" fill="#84BE84" rx="3" ry="3" style="stroke: #038048; stroke-width: 1.0;"/><text fill="#000000" font-family="sans-serif" font-size="11" lengthAdjust="spacingAndGlyphs" textLength="164" x="27" y="105.562">Dispatch(value:TValue) : void</text><!--MD5=[b15ee165ce0b7e11b958bf093b56d887]
@startuml
class "State`1"<TValue> <<sealed>> {
    + State(action:Action<TValue>)
    + State(value:TValue)
    + Store(condition:bool, action:Action<TValue>) : void
    + Dispatch(value:TValue) : void
}
@enduml

PlantUML version 1.2020.02(Sun Mar 01 10:22:07 GMT 2020)
(GPL source distribution)
Java Runtime: OpenJDK Runtime Environment
JVM: OpenJDK 64-Bit Server VM
Java Version: 11.0.9+11-Ubuntu-0ubuntu1
Operating System: Linux
Default Encoding: ANSI_X3.4-1968
Language: en
Country: US
--></g></svg>