<?xml version="1.0" encoding="UTF-8" standalone="no"?><svg xmlns="http://www.w3.org/2000/svg" xmlns:xlink="http://www.w3.org/1999/xlink" contentScriptType="application/ecmascript" contentStyleType="text/css" height="175px" preserveAspectRatio="none" style="width:137px;height:175px;" version="1.1" viewBox="0 0 137 175" width="137px" zoomAndPan="magnify"><defs><filter height="300%" id="f1cro35o9wse2v" width="300%" x="-1" y="-1"><feGaussianBlur result="blurOut" stdDeviation="2.0"/><feColorMatrix in="blurOut" result="blurOut2" type="matrix" values="0 0 0 0 0 0 0 0 0 0 0 0 0 0 0 0 0 0 .4 0"/><feOffset dx="4.0" dy="4.0" in="blurOut2" result="blurOut3"/><feBlend in="SourceGraphic" in2="blurOut3" mode="normal"/></filter></defs><g><!--MD5=[92712265eedc007289b9f204583b26a2]
class IRollbackFlux--><rect fill="#FEFECE" filter="url(#f1cro35o9wse2v)" height="48" id="IRollbackFlux" style="stroke: #A80036; stroke-width: 1.5;" width="113" x="13.5" y="8"/><ellipse cx="28.5" cy="24" fill="#B4A7E5" rx="11" ry="11" style="stroke: #A80036; stroke-width: 1.0;"/><path d="M24.4219,19.7656 L24.4219,17.6094 L31.8125,17.6094 L31.8125,19.7656 L29.3438,19.7656 L29.3438,27.8438 L31.8125,27.8438 L31.8125,30 L24.4219,30 L24.4219,27.8438 L26.8906,27.8438 L26.8906,19.7656 L24.4219,19.7656 Z "/><text fill="#000000" font-family="sans-serif" font-size="12" font-style="italic" lengthAdjust="spacingAndGlyphs" textLength="81" x="42.5" y="28.1543">IRollbackFlux</text><line style="stroke: #A80036; stroke-width: 1.5;" x1="14.5" x2="125.5" y1="40" y2="40"/><line style="stroke: #A80036; stroke-width: 1.5;" x1="14.5" x2="125.5" y1="48" y2="48"/><!--MD5=[26781dc8bf411e73e2fcee7fe934b878]
class IRollback--><rect fill="#FEFECE" filter="url(#f1cro35o9wse2v)" height="48" id="IRollback" style="stroke: #A80036; stroke-width: 1.5;" width="87" x="26.5" y="116"/><ellipse cx="41.5" cy="132" fill="#ADD1B2" rx="11" ry="11" style="stroke: #A80036; stroke-width: 1.0;"/><path d="M44.4688,137.6406 Q43.8906,137.9375 43.25,138.0781 Q42.6094,138.2344 41.9063,138.2344 Q39.4063,138.2344 38.0781,136.5938 Q36.7656,134.9375 36.7656,131.8125 Q36.7656,128.6875 38.0781,127.0313 Q39.4063,125.375 41.9063,125.375 Q42.6094,125.375 43.25,125.5313 Q43.9063,125.6875 44.4688,125.9844 L44.4688,128.7031 Q43.8438,128.125 43.25,127.8594 Q42.6563,127.5781 42.0313,127.5781 Q40.6875,127.5781 40,128.6563 Q39.3125,129.7188 39.3125,131.8125 Q39.3125,133.9063 40,134.9844 Q40.6875,136.0469 42.0313,136.0469 Q42.6563,136.0469 43.25,135.7813 Q43.8438,135.5 44.4688,134.9219 L44.4688,137.6406 Z "/><text fill="#000000" font-family="sans-serif" font-size="12" lengthAdjust="spacingAndGlyphs" textLength="55" x="55.5" y="136.1543">IRollback</text><line style="stroke: #A80036; stroke-width: 1.5;" x1="27.5" x2="112.5" y1="148" y2="148"/><line style="stroke: #A80036; stroke-width: 1.5;" x1="27.5" x2="112.5" y1="156" y2="156"/><!--MD5=[b6331e45a16d382f00af970a49cf1a0d]
link IRollbackFlux to IRollback--><path d="M70,56 C70,72 70,93.45 70,110.53 " fill="none" id="IRollbackFlux-&gt;IRollback" style="stroke: #A80036; stroke-width: 1.0;"/><polygon fill="#A80036" points="70,115.68,74,106.68,70,110.68,66,106.68,70,115.68" style="stroke: #A80036; stroke-width: 1.0;"/><text fill="#000000" font-family="sans-serif" font-size="13" lengthAdjust="spacingAndGlyphs" textLength="49" x="15.0281" y="105.007">rollback</text><!--MD5=[06b39ee80e01c5c3b61393675143b345]
@startuml
interface IRollbackFlux {
}
IRollbackFlux - -> "rollback" IRollback
@enduml

PlantUML version 1.2020.02(Sun Mar 01 10:22:07 GMT 2020)
(GPL source distribution)
Java Runtime: OpenJDK Runtime Environment
JVM: OpenJDK 64-Bit Server VM
Java Version: 11.0.9+11-Ubuntu-0ubuntu1
Operating System: Linux
Default Encoding: ANSI_X3.4-1968
Language: en
Country: US
--></g></svg>