<?xml version="1.0" encoding="UTF-8" standalone="no"?><svg xmlns="http://www.w3.org/2000/svg" xmlns:xlink="http://www.w3.org/1999/xlink" contentScriptType="application/ecmascript" contentStyleType="text/css" height="289px" preserveAspectRatio="none" style="width:343px;height:289px;" version="1.1" viewBox="0 0 343 289" width="343px" zoomAndPan="magnify"><defs><filter height="300%" id="fxbw29526jhip" width="300%" x="-1" y="-1"><feGaussianBlur result="blurOut" stdDeviation="2.0"/><feColorMatrix in="blurOut" result="blurOut2" type="matrix" values="0 0 0 0 0 0 0 0 0 0 0 0 0 0 0 0 0 0 .4 0"/><feOffset dx="4.0" dy="4.0" in="blurOut2" result="blurOut3"/><feBlend in="SourceGraphic" in2="blurOut3" mode="normal"/></filter></defs><g><!--MD5=[433385be6d01a8de7784ee3a405c8d8e]
class RollbackFlux--><rect fill="#FEFECE" filter="url(#fxbw29526jhip)" height="53.9375" id="RollbackFlux" style="stroke: #A80036; stroke-width: 1.5;" width="108" x="65" y="116"/><ellipse cx="80" cy="134.9688" fill="#ADD1B2" rx="11" ry="11" style="stroke: #A80036; stroke-width: 1.0;"/><path d="M82.9688,140.6094 Q82.3906,140.9063 81.75,141.0469 Q81.1094,141.2031 80.4063,141.2031 Q77.9063,141.2031 76.5781,139.5625 Q75.2656,137.9063 75.2656,134.7813 Q75.2656,131.6563 76.5781,130 Q77.9063,128.3438 80.4063,128.3438 Q81.1094,128.3438 81.75,128.5 Q82.4063,128.6563 82.9688,128.9531 L82.9688,131.6719 Q82.3438,131.0938 81.75,130.8281 Q81.1563,130.5469 80.5313,130.5469 Q79.1875,130.5469 78.5,131.625 Q77.8125,132.6875 77.8125,134.7813 Q77.8125,136.875 78.5,137.9531 Q79.1875,139.0156 80.5313,139.0156 Q81.1563,139.0156 81.75,138.75 Q82.3438,138.4688 82.9688,137.8906 L82.9688,140.6094 Z "/><text fill="#000000" font-family="sans-serif" font-size="12" font-style="italic" lengthAdjust="spacingAndGlyphs" textLength="55" x="104.5" y="132.1387">«sealed»</text><text fill="#000000" font-family="sans-serif" font-size="12" lengthAdjust="spacingAndGlyphs" textLength="76" x="94" y="146.1074">RollbackFlux</text><line style="stroke: #A80036; stroke-width: 1.5;" x1="66" x2="172" y1="153.9375" y2="153.9375"/><line style="stroke: #A80036; stroke-width: 1.5;" x1="66" x2="172" y1="161.9375" y2="161.9375"/><!--MD5=[6d093dd77816384d83892ff11248f2ea]
class MonoFlux--><rect fill="#FEFECE" filter="url(#fxbw29526jhip)" height="48" id="MonoFlux" style="stroke: #A80036; stroke-width: 1.5;" width="90" x="6" y="8"/><ellipse cx="21" cy="24" fill="#ADD1B2" rx="11" ry="11" style="stroke: #A80036; stroke-width: 1.0;"/><path d="M23.9688,29.6406 Q23.3906,29.9375 22.75,30.0781 Q22.1094,30.2344 21.4063,30.2344 Q18.9063,30.2344 17.5781,28.5938 Q16.2656,26.9375 16.2656,23.8125 Q16.2656,20.6875 17.5781,19.0313 Q18.9063,17.375 21.4063,17.375 Q22.1094,17.375 22.75,17.5313 Q23.4063,17.6875 23.9688,17.9844 L23.9688,20.7031 Q23.3438,20.125 22.75,19.8594 Q22.1563,19.5781 21.5313,19.5781 Q20.1875,19.5781 19.5,20.6563 Q18.8125,21.7188 18.8125,23.8125 Q18.8125,25.9063 19.5,26.9844 Q20.1875,28.0469 21.5313,28.0469 Q22.1563,28.0469 22.75,27.7813 Q23.3438,27.5 23.9688,26.9219 L23.9688,29.6406 Z "/><text fill="#000000" font-family="sans-serif" font-size="12" lengthAdjust="spacingAndGlyphs" textLength="58" x="35" y="28.1543">MonoFlux</text><line style="stroke: #A80036; stroke-width: 1.5;" x1="7" x2="95" y1="40" y2="40"/><line style="stroke: #A80036; stroke-width: 1.5;" x1="7" x2="95" y1="48" y2="48"/><!--MD5=[92712265eedc007289b9f204583b26a2]
class IRollbackFlux--><rect fill="#FEFECE" filter="url(#fxbw29526jhip)" height="48" id="IRollbackFlux" style="stroke: #A80036; stroke-width: 1.5;" width="111" x="131.5" y="8"/><ellipse cx="146.5" cy="24" fill="#ADD1B2" rx="11" ry="11" style="stroke: #A80036; stroke-width: 1.0;"/><path d="M149.4688,29.6406 Q148.8906,29.9375 148.25,30.0781 Q147.6094,30.2344 146.9063,30.2344 Q144.4063,30.2344 143.0781,28.5938 Q141.7656,26.9375 141.7656,23.8125 Q141.7656,20.6875 143.0781,19.0313 Q144.4063,17.375 146.9063,17.375 Q147.6094,17.375 148.25,17.5313 Q148.9063,17.6875 149.4688,17.9844 L149.4688,20.7031 Q148.8438,20.125 148.25,19.8594 Q147.6563,19.5781 147.0313,19.5781 Q145.6875,19.5781 145,20.6563 Q144.3125,21.7188 144.3125,23.8125 Q144.3125,25.9063 145,26.9844 Q145.6875,28.0469 147.0313,28.0469 Q147.6563,28.0469 148.25,27.7813 Q148.8438,27.5 149.4688,26.9219 L149.4688,29.6406 Z "/><text fill="#000000" font-family="sans-serif" font-size="12" lengthAdjust="spacingAndGlyphs" textLength="79" x="160.5" y="28.1543">IRollbackFlux</text><line style="stroke: #A80036; stroke-width: 1.5;" x1="132.5" x2="241.5" y1="40" y2="40"/><line style="stroke: #A80036; stroke-width: 1.5;" x1="132.5" x2="241.5" y1="48" y2="48"/><!--MD5=[7802912d10722e411f9a2c97495fb483]
class RollbackObject--><rect fill="#FEFECE" filter="url(#fxbw29526jhip)" height="48" id="RollbackObject" style="stroke: #A80036; stroke-width: 1.5;" width="124" x="208" y="119"/><ellipse cx="223" cy="135" fill="#ADD1B2" rx="11" ry="11" style="stroke: #A80036; stroke-width: 1.0;"/><path d="M225.9688,140.6406 Q225.3906,140.9375 224.75,141.0781 Q224.1094,141.2344 223.4063,141.2344 Q220.9063,141.2344 219.5781,139.5938 Q218.2656,137.9375 218.2656,134.8125 Q218.2656,131.6875 219.5781,130.0313 Q220.9063,128.375 223.4063,128.375 Q224.1094,128.375 224.75,128.5313 Q225.4063,128.6875 225.9688,128.9844 L225.9688,131.7031 Q225.3438,131.125 224.75,130.8594 Q224.1563,130.5781 223.5313,130.5781 Q222.1875,130.5781 221.5,131.6563 Q220.8125,132.7188 220.8125,134.8125 Q220.8125,136.9063 221.5,137.9844 Q222.1875,139.0469 223.5313,139.0469 Q224.1563,139.0469 224.75,138.7813 Q225.3438,138.5 225.9688,137.9219 L225.9688,140.6406 Z "/><text fill="#000000" font-family="sans-serif" font-size="12" lengthAdjust="spacingAndGlyphs" textLength="92" x="237" y="139.1543">RollbackObject</text><line style="stroke: #A80036; stroke-width: 1.5;" x1="209" x2="331" y1="151" y2="151"/><line style="stroke: #A80036; stroke-width: 1.5;" x1="209" x2="331" y1="159" y2="159"/><!--MD5=[26781dc8bf411e73e2fcee7fe934b878]
class IRollback--><rect fill="#FEFECE" filter="url(#fxbw29526jhip)" height="48" id="IRollback" style="stroke: #A80036; stroke-width: 1.5;" width="87" x="75.5" y="230"/><ellipse cx="90.5" cy="246" fill="#ADD1B2" rx="11" ry="11" style="stroke: #A80036; stroke-width: 1.0;"/><path d="M93.4688,251.6406 Q92.8906,251.9375 92.25,252.0781 Q91.6094,252.2344 90.9063,252.2344 Q88.4063,252.2344 87.0781,250.5938 Q85.7656,248.9375 85.7656,245.8125 Q85.7656,242.6875 87.0781,241.0313 Q88.4063,239.375 90.9063,239.375 Q91.6094,239.375 92.25,239.5313 Q92.9063,239.6875 93.4688,239.9844 L93.4688,242.7031 Q92.8438,242.125 92.25,241.8594 Q91.6563,241.5781 91.0313,241.5781 Q89.6875,241.5781 89,242.6563 Q88.3125,243.7188 88.3125,245.8125 Q88.3125,247.9063 89,248.9844 Q89.6875,250.0469 91.0313,250.0469 Q91.6563,250.0469 92.25,249.7813 Q92.8438,249.5 93.4688,248.9219 L93.4688,251.6406 Z "/><text fill="#000000" font-family="sans-serif" font-size="12" lengthAdjust="spacingAndGlyphs" textLength="55" x="104.5" y="250.1543">IRollback</text><line style="stroke: #A80036; stroke-width: 1.5;" x1="76.5" x2="161.5" y1="262" y2="262"/><line style="stroke: #A80036; stroke-width: 1.5;" x1="76.5" x2="161.5" y1="270" y2="270"/><!--MD5=[4a5773e224c9dd613bb2d2c115ce6523]
reverse link MonoFlux to RollbackFlux--><path d="M76.02,73.11 C84.92,87.38 94.71,103.06 102.69,115.86 " fill="none" id="MonoFlux&lt;-RollbackFlux" style="stroke: #A80036; stroke-width: 1.0;"/><polygon fill="none" points="70.07,76.79,65.42,56.12,81.95,69.38,70.07,76.79" style="stroke: #A80036; stroke-width: 1.0;"/><!--MD5=[0eee0a8f60822ab0dc2562b470bec4f5]
reverse link IRollbackFlux to RollbackFlux--><path d="M161.98,73.11 C153.08,87.38 143.29,103.06 135.31,115.86 " fill="none" id="IRollbackFlux&lt;-RollbackFlux" style="stroke: #A80036; stroke-width: 1.0;"/><polygon fill="none" points="156.05,69.38,172.58,56.12,167.93,76.79,156.05,69.38" style="stroke: #A80036; stroke-width: 1.0;"/><!--MD5=[4c083b46c2a754ed0a58cff6710472b8]
link RollbackFlux to RollbackObject--><path d="M185.27,143 C185.27,143 191.73,143 194.39,143 " fill="none" id="RollbackFlux-RollbackObject" style="stroke: #A80036; stroke-width: 1.0;"/><polygon fill="#A80036" points="207.65,143,198.65,139,202.65,143,198.65,147,207.65,143" style="stroke: #A80036; stroke-width: 1.0;"/><line style="stroke: #A80036; stroke-width: 1.0;" x1="202.65" x2="194.65" y1="143" y2="143"/><polygon fill="#FFFFFF" points="173.27,143,179.27,147,185.27,143,179.27,139,173.27,143" style="stroke: #A80036; stroke-width: 1.0;"/><text fill="#000000" font-family="sans-serif" font-size="13" lengthAdjust="spacingAndGlyphs" textLength="49" x="150.7323" y="132.9074">rollback</text><!--MD5=[096a8c8a017e7c115ec913f667946e2d]
link RollbackFlux to IRollback--><path d="M119,170.11 C119,186.55 119,207.77 119,224.62 " fill="none" id="RollbackFlux-&gt;IRollback" style="stroke: #A80036; stroke-width: 1.0;"/><polygon fill="#A80036" points="119,229.7,123,220.7,119,224.7,115,220.7,119,229.7" style="stroke: #A80036; stroke-width: 1.0;"/><text fill="#000000" font-family="sans-serif" font-size="13" lengthAdjust="spacingAndGlyphs" textLength="49" x="64.0281" y="219.0318">rollback</text><!--MD5=[1c34a64d89f23942cef93310a291786f]
@startuml
class RollbackFlux <<sealed>> {
}
MonoFlux <|- - RollbackFlux
IRollbackFlux <|- - RollbackFlux
RollbackFlux o-> "rollback" RollbackObject
RollbackFlux - -> "rollback" IRollback
@enduml

PlantUML version 1.2020.02(Sun Mar 01 10:22:07 GMT 2020)
(GPL source distribution)
Java Runtime: OpenJDK Runtime Environment
JVM: OpenJDK 64-Bit Server VM
Java Version: 11.0.9+11-Ubuntu-0ubuntu1
Operating System: Linux
Default Encoding: ANSI_X3.4-1968
Language: en
Country: US
--></g></svg>