<?xml version="1.0" encoding="UTF-8" standalone="no"?><svg xmlns="http://www.w3.org/2000/svg" xmlns:xlink="http://www.w3.org/1999/xlink" contentScriptType="application/ecmascript" contentStyleType="text/css" height="355px" preserveAspectRatio="none" style="width:494px;height:355px;" version="1.1" viewBox="0 0 494 355" width="494px" zoomAndPan="magnify"><defs><filter height="300%" id="f4wvqp0uuprog" width="300%" x="-1" y="-1"><feGaussianBlur result="blurOut" stdDeviation="2.0"/><feColorMatrix in="blurOut" result="blurOut2" type="matrix" values="0 0 0 0 0 0 0 0 0 0 0 0 0 0 0 0 0 0 .4 0"/><feOffset dx="4.0" dy="4.0" in="blurOut2" result="blurOut3"/><feBlend in="SourceGraphic" in2="blurOut3" mode="normal"/></filter></defs><g><!--MD5=[10d6fccb5fa629a9a266c3c5ff92a058]
class RollbackService--><rect fill="#FEFECE" filter="url(#f4wvqp0uuprog)" height="131.9297" id="RollbackService" style="stroke: #A80036; stroke-width: 1.5;" width="337" x="60.5" y="8"/><ellipse cx="176.25" cy="33.9531" fill="#ADD1B2" rx="11" ry="11" style="stroke: #A80036; stroke-width: 1.0;"/><path d="M179.2188,39.5938 Q178.6406,39.8906 178,40.0313 Q177.3594,40.1875 176.6563,40.1875 Q174.1563,40.1875 172.8281,38.5469 Q171.5156,36.8906 171.5156,33.7656 Q171.5156,30.6406 172.8281,28.9844 Q174.1563,27.3281 176.6563,27.3281 Q177.3594,27.3281 178,27.4844 Q178.6563,27.6406 179.2188,27.9375 L179.2188,30.6563 Q178.5938,30.0781 178,29.8125 Q177.4063,29.5313 176.7813,29.5313 Q175.4375,29.5313 174.75,30.6094 Q174.0625,31.6719 174.0625,33.7656 Q174.0625,35.8594 174.75,36.9375 Q175.4375,38 176.7813,38 Q177.4063,38 178,37.7344 Q178.5938,37.4531 179.2188,36.875 L179.2188,39.5938 Z "/><text fill="#000000" font-family="sans-serif" font-size="12" font-style="italic" lengthAdjust="spacingAndGlyphs" textLength="48" x="221.25" y="24.1387">«static»</text><text fill="#000000" font-family="sans-serif" font-size="12" font-style="italic" lengthAdjust="spacingAndGlyphs" textLength="54" x="218.25" y="38.1074">«partial»</text><text fill="#000000" font-family="sans-serif" font-size="12" lengthAdjust="spacingAndGlyphs" textLength="97" x="196.75" y="52.0762">RollbackService</text><line style="stroke: #A80036; stroke-width: 1.5;" x1="61.5" x2="396.5" y1="59.9063" y2="59.9063"/><line style="stroke: #A80036; stroke-width: 1.5;" x1="61.5" x2="396.5" y1="67.9063" y2="67.9063"/><ellipse cx="71.5" cy="78.9063" fill="#84BE84" rx="3" ry="3" style="stroke: #038048; stroke-width: 1.0;"/><text fill="#000000" font-family="sans-serif" font-size="11" lengthAdjust="spacingAndGlyphs" text-decoration="underline" textLength="235" x="80.5" y="82.1167">OnSave(data:(int fps, object state)) : void</text><ellipse cx="71.5" cy="91.7109" fill="#84BE84" rx="3" ry="3" style="stroke: #038048; stroke-width: 1.0;"/><text fill="#000000" font-family="sans-serif" font-size="11" lengthAdjust="spacingAndGlyphs" text-decoration="underline" textLength="253" x="80.5" y="94.9214">OnReverse(data:(int fps, object state)) : void</text><ellipse cx="71.5" cy="104.5156" fill="#84BE84" rx="3" ry="3" style="stroke: #038048; stroke-width: 1.0;"/><text fill="#000000" font-family="sans-serif" font-size="11" lengthAdjust="spacingAndGlyphs" text-decoration="underline" textLength="311" x="80.5" y="107.7261">OnReverseError(data:(int fps, int fpsToReverse)) : void</text><ellipse cx="71.5" cy="117.3203" fill="#84BE84" rx="3" ry="3" style="stroke: #038048; stroke-width: 1.0;"/><text fill="#000000" font-family="sans-serif" font-size="11" lengthAdjust="spacingAndGlyphs" text-decoration="underline" textLength="117" x="80.5" y="120.5308">OnUndoError() : void</text><ellipse cx="71.5" cy="130.125" fill="#84BE84" rx="3" ry="3" style="stroke: #038048; stroke-width: 1.0;"/><text fill="#000000" font-family="sans-serif" font-size="11" lengthAdjust="spacingAndGlyphs" text-decoration="underline" textLength="236" x="80.5" y="133.3354">OnUndo(data:(int fps, object state)) : void</text><!--MD5=[60c9ed31c535bee25c55ce21b5b01399]
class Data--><rect fill="#FEFECE" filter="url(#f4wvqp0uuprog)" height="67.9063" id="Data" style="stroke: #A80036; stroke-width: 1.5;" width="82" x="6" y="238.5"/><ellipse cx="21" cy="264.4531" fill="#ADD1B2" rx="11" ry="11" style="stroke: #A80036; stroke-width: 1.0;"/><path d="M23.9688,270.0938 Q23.3906,270.3906 22.75,270.5313 Q22.1094,270.6875 21.4063,270.6875 Q18.9063,270.6875 17.5781,269.0469 Q16.2656,267.3906 16.2656,264.2656 Q16.2656,261.1406 17.5781,259.4844 Q18.9063,257.8281 21.4063,257.8281 Q22.1094,257.8281 22.75,257.9844 Q23.4063,258.1406 23.9688,258.4375 L23.9688,261.1563 Q23.3438,260.5781 22.75,260.3125 Q22.1563,260.0313 21.5313,260.0313 Q20.1875,260.0313 19.5,261.1094 Q18.8125,262.1719 18.8125,264.2656 Q18.8125,266.3594 19.5,267.4375 Q20.1875,268.5 21.5313,268.5 Q22.1563,268.5 22.75,268.2344 Q23.3438,267.9531 23.9688,267.375 L23.9688,270.0938 Z "/><text fill="#000000" font-family="sans-serif" font-size="12" font-style="italic" lengthAdjust="spacingAndGlyphs" textLength="48" x="36" y="254.6387">«static»</text><text fill="#000000" font-family="sans-serif" font-size="12" font-style="italic" lengthAdjust="spacingAndGlyphs" textLength="54" x="33" y="268.6074">«partial»</text><text fill="#000000" font-family="sans-serif" font-size="12" lengthAdjust="spacingAndGlyphs" textLength="30" x="45" y="282.5762">Data</text><line style="stroke: #A80036; stroke-width: 1.5;" x1="7" x2="87" y1="290.4063" y2="290.4063"/><line style="stroke: #A80036; stroke-width: 1.5;" x1="7" x2="87" y1="298.4063" y2="298.4063"/><!--MD5=[2086e18d236f9616263f91fe5276f8cf]
class Key--><rect fill="#FEFECE" filter="url(#f4wvqp0uuprog)" height="144.7344" id="Key" style="stroke: #A80036; stroke-width: 1.5;" width="211" x="123.5" y="200"/><ellipse cx="199.75" cy="225.9531" fill="#ADD1B2" rx="11" ry="11" style="stroke: #A80036; stroke-width: 1.0;"/><path d="M202.7188,231.5938 Q202.1406,231.8906 201.5,232.0313 Q200.8594,232.1875 200.1563,232.1875 Q197.6563,232.1875 196.3281,230.5469 Q195.0156,228.8906 195.0156,225.7656 Q195.0156,222.6406 196.3281,220.9844 Q197.6563,219.3281 200.1563,219.3281 Q200.8594,219.3281 201.5,219.4844 Q202.1563,219.6406 202.7188,219.9375 L202.7188,222.6563 Q202.0938,222.0781 201.5,221.8125 Q200.9063,221.5313 200.2813,221.5313 Q198.9375,221.5313 198.25,222.6094 Q197.5625,223.6719 197.5625,225.7656 Q197.5625,227.8594 198.25,228.9375 Q198.9375,230 200.2813,230 Q200.9063,230 201.5,229.7344 Q202.0938,229.4531 202.7188,228.875 L202.7188,231.5938 Z "/><text fill="#000000" font-family="sans-serif" font-size="12" font-style="italic" lengthAdjust="spacingAndGlyphs" textLength="48" x="221.25" y="216.1387">«static»</text><text fill="#000000" font-family="sans-serif" font-size="12" font-style="italic" lengthAdjust="spacingAndGlyphs" textLength="54" x="218.25" y="230.1074">«partial»</text><text fill="#000000" font-family="sans-serif" font-size="12" lengthAdjust="spacingAndGlyphs" textLength="21" x="234.75" y="244.0762">Key</text><line style="stroke: #A80036; stroke-width: 1.5;" x1="124.5" x2="333.5" y1="251.9063" y2="251.9063"/><ellipse cx="134.5" cy="262.9063" fill="none" rx="3" ry="3" style="stroke: #038048; stroke-width: 1.0;"/><text fill="#000000" font-family="sans-serif" font-size="11" lengthAdjust="spacingAndGlyphs" textLength="162" x="143.5" y="266.1167">«const» RollbackFlux : string</text><ellipse cx="134.5" cy="275.7109" fill="none" rx="3" ry="3" style="stroke: #038048; stroke-width: 1.0;"/><text fill="#000000" font-family="sans-serif" font-size="11" lengthAdjust="spacingAndGlyphs" textLength="138" x="143.5" y="278.9214">«const» OnSave : string</text><ellipse cx="134.5" cy="288.5156" fill="none" rx="3" ry="3" style="stroke: #038048; stroke-width: 1.0;"/><text fill="#000000" font-family="sans-serif" font-size="11" lengthAdjust="spacingAndGlyphs" textLength="156" x="143.5" y="291.7261">«const» OnReverse : string</text><ellipse cx="134.5" cy="301.3203" fill="none" rx="3" ry="3" style="stroke: #038048; stroke-width: 1.0;"/><text fill="#000000" font-family="sans-serif" font-size="11" lengthAdjust="spacingAndGlyphs" textLength="185" x="143.5" y="304.5308">«const» OnReverseError : string</text><ellipse cx="134.5" cy="314.125" fill="none" rx="3" ry="3" style="stroke: #038048; stroke-width: 1.0;"/><text fill="#000000" font-family="sans-serif" font-size="11" lengthAdjust="spacingAndGlyphs" textLength="168" x="143.5" y="317.3354">«const» OnUndoError : string</text><ellipse cx="134.5" cy="326.9297" fill="none" rx="3" ry="3" style="stroke: #038048; stroke-width: 1.0;"/><text fill="#000000" font-family="sans-serif" font-size="11" lengthAdjust="spacingAndGlyphs" textLength="139" x="143.5" y="330.1401">«const» OnUndo : string</text><line style="stroke: #A80036; stroke-width: 1.5;" x1="124.5" x2="333.5" y1="336.7344" y2="336.7344"/><!--MD5=[92712265eedc007289b9f204583b26a2]
class IRollbackFlux--><rect fill="#FEFECE" filter="url(#f4wvqp0uuprog)" height="48" id="IRollbackFlux" style="stroke: #A80036; stroke-width: 1.5;" width="111" x="369.5" y="248.5"/><ellipse cx="384.5" cy="264.5" fill="#ADD1B2" rx="11" ry="11" style="stroke: #A80036; stroke-width: 1.0;"/><path d="M387.4688,270.1406 Q386.8906,270.4375 386.25,270.5781 Q385.6094,270.7344 384.9063,270.7344 Q382.4063,270.7344 381.0781,269.0938 Q379.7656,267.4375 379.7656,264.3125 Q379.7656,261.1875 381.0781,259.5313 Q382.4063,257.875 384.9063,257.875 Q385.6094,257.875 386.25,258.0313 Q386.9063,258.1875 387.4688,258.4844 L387.4688,261.2031 Q386.8438,260.625 386.25,260.3594 Q385.6563,260.0781 385.0313,260.0781 Q383.6875,260.0781 383,261.1563 Q382.3125,262.2188 382.3125,264.3125 Q382.3125,266.4063 383,267.4844 Q383.6875,268.5469 385.0313,268.5469 Q385.6563,268.5469 386.25,268.2813 Q386.8438,268 387.4688,267.4219 L387.4688,270.1406 Z "/><text fill="#000000" font-family="sans-serif" font-size="12" lengthAdjust="spacingAndGlyphs" textLength="79" x="398.5" y="268.6543">IRollbackFlux</text><line style="stroke: #A80036; stroke-width: 1.5;" x1="370.5" x2="479.5" y1="280.5" y2="280.5"/><line style="stroke: #A80036; stroke-width: 1.5;" x1="370.5" x2="479.5" y1="288.5" y2="288.5"/><!--MD5=[52e93139b66b601f55b67ad7c4ce9119]
link RollbackService to IRollbackFlux--><path d="M293.99,140.16 C329.47,175.72 371.47,217.84 398.18,244.61 " fill="none" id="RollbackService-&gt;IRollbackFlux" style="stroke: #A80036; stroke-width: 1.0;"/><polygon fill="#A80036" points="402,248.44,398.483,239.2405,398.4716,244.8973,392.8148,244.8859,402,248.44" style="stroke: #A80036; stroke-width: 1.0;"/><text fill="#000000" font-family="sans-serif" font-size="13" lengthAdjust="spacingAndGlyphs" textLength="77" x="405.9719" y="237.4367">RollbackFlux</text><!--MD5=[cde0f7aacf1f13c5212ac3db163b7196]
reverse link RollbackService to Data--><path d="M152.14,151 C136.6,166.94 120.58,183.83 106,200 C95.01,212.19 83.41,226.02 73.43,238.24 " fill="none" id="RollbackService&lt;-Data" style="stroke: #A80036; stroke-width: 1.0;"/><ellipse cx="157.1906" cy="145.8437" fill="#FFFFFF" rx="8" ry="8" style="stroke: #A80036; stroke-width: 1.0;"/><line style="stroke: #A80036; stroke-width: 1.0;" x1="151.5911" x2="162.79" y1="151.5574" y2="140.13"/><line style="stroke: #A80036; stroke-width: 1.0;" x1="151.4769" x2="162.9043" y1="140.2443" y2="151.4431"/><!--MD5=[1db163d411dc3f31ba0706eddb0eb937]
reverse link RollbackService to Key--><path d="M229,155.25 C229,169.99 229,185.28 229,199.75 " fill="none" id="RollbackService&lt;-Key" style="stroke: #A80036; stroke-width: 1.0;"/><ellipse cx="229" cy="148.16" fill="#FFFFFF" rx="8" ry="8" style="stroke: #A80036; stroke-width: 1.0;"/><line style="stroke: #A80036; stroke-width: 1.0;" x1="229" x2="229" y1="156.16" y2="140.16"/><line style="stroke: #A80036; stroke-width: 1.0;" x1="221" x2="237" y1="148.16" y2="148.16"/><!--MD5=[fb37ea6f25d011187a497f84e829161e]
@startuml
class RollbackService <<static>> <<partial>> {
}
class RollbackService <<static>> <<partial>> {
}
class RollbackService <<static>> <<partial>> {
    + {static} OnSave(data:(int fps, object state)) : void
    + {static} OnReverse(data:(int fps, object state)) : void
    + {static} OnReverseError(data:(int fps, int fpsToReverse)) : void
    + {static} OnUndoError() : void
    + {static} OnUndo(data:(int fps, object state)) : void
}
class Data <<static>> <<partial>> {
}
class Key <<static>> <<partial>> {
    + <<const>> RollbackFlux : string
    + <<const>> OnSave : string
    + <<const>> OnReverse : string
    + <<const>> OnReverseError : string
    + <<const>> OnUndoError : string
    + <<const>> OnUndo : string
}
RollbackService - -> "RollbackFlux" IRollbackFlux
RollbackService +- - Data
RollbackService +- - Key
@enduml

PlantUML version 1.2020.02(Sun Mar 01 10:22:07 GMT 2020)
(GPL source distribution)
Java Runtime: OpenJDK Runtime Environment
JVM: OpenJDK 64-Bit Server VM
Java Version: 11.0.9+11-Ubuntu-0ubuntu1
Operating System: Linux
Default Encoding: ANSI_X3.4-1968
Language: en
Country: US
--></g></svg>