<?xml version="1.0" encoding="UTF-8" standalone="no"?><svg xmlns="http://www.w3.org/2000/svg" xmlns:xlink="http://www.w3.org/1999/xlink" contentScriptType="application/ecmascript" contentStyleType="text/css" height="258px" preserveAspectRatio="none" style="width:365px;height:258px;" version="1.1" viewBox="0 0 365 258" width="365px" zoomAndPan="magnify"><defs><filter height="300%" id="fkhjqkm21vpbh" width="300%" x="-1" y="-1"><feGaussianBlur result="blurOut" stdDeviation="2.0"/><feColorMatrix in="blurOut" result="blurOut2" type="matrix" values="0 0 0 0 0 0 0 0 0 0 0 0 0 0 0 0 0 0 .4 0"/><feOffset dx="4.0" dy="4.0" in="blurOut2" result="blurOut3"/><feBlend in="SourceGraphic" in2="blurOut3" mode="normal"/></filter></defs><g><!--MD5=[1b665941b017872cde32be9e2c4d994f]
class InputModule--><rect fill="#FEFECE" filter="url(#fkhjqkm21vpbh)" height="131.9297" id="InputModule" style="stroke: #A80036; stroke-width: 1.5;" width="348" x="6" y="116"/><ellipse cx="137.25" cy="141.9531" fill="#ADD1B2" rx="11" ry="11" style="stroke: #A80036; stroke-width: 1.0;"/><path d="M140.2188,147.5938 Q139.6406,147.8906 139,148.0313 Q138.3594,148.1875 137.6563,148.1875 Q135.1563,148.1875 133.8281,146.5469 Q132.5156,144.8906 132.5156,141.7656 Q132.5156,138.6406 133.8281,136.9844 Q135.1563,135.3281 137.6563,135.3281 Q138.3594,135.3281 139,135.4844 Q139.6563,135.6406 140.2188,135.9375 L140.2188,138.6563 Q139.5938,138.0781 139,137.8125 Q138.4063,137.5313 137.7813,137.5313 Q136.4375,137.5313 135.75,138.6094 Q135.0625,139.6719 135.0625,141.7656 Q135.0625,143.8594 135.75,144.9375 Q136.4375,146 137.7813,146 Q138.4063,146 139,145.7344 Q139.5938,145.4531 140.2188,144.875 L140.2188,147.5938 Z "/><text fill="#000000" font-family="sans-serif" font-size="12" font-style="italic" lengthAdjust="spacingAndGlyphs" textLength="55" x="168.75" y="132.1387">«sealed»</text><text fill="#000000" font-family="sans-serif" font-size="12" font-style="italic" lengthAdjust="spacingAndGlyphs" textLength="54" x="169.25" y="146.1074">«partial»</text><text fill="#000000" font-family="sans-serif" font-size="12" lengthAdjust="spacingAndGlyphs" textLength="77" x="157.75" y="160.0762">InputModule</text><line style="stroke: #A80036; stroke-width: 1.5;" x1="7" x2="353" y1="167.9063" y2="167.9063"/><line style="stroke: #A80036; stroke-width: 1.5;" x1="7" x2="353" y1="175.9063" y2="175.9063"/><text fill="#000000" font-family="sans-serif" font-size="11" lengthAdjust="spacingAndGlyphs" textLength="83" x="12" y="190.1167">Update() : void</text><text fill="#000000" font-family="sans-serif" font-size="11" lengthAdjust="spacingAndGlyphs" textLength="134" x="12" y="202.9214">OnInput(id:string) : void</text><text fill="#000000" font-family="sans-serif" font-size="11" lengthAdjust="spacingAndGlyphs" textLength="336" x="12" y="215.7261">Add(data:(string id, KeyCode code, string inputType)) : void</text><text fill="#000000" font-family="sans-serif" font-size="11" lengthAdjust="spacingAndGlyphs" textLength="135" x="12" y="228.5308">Remove(id:string) : void</text><text fill="#000000" font-family="sans-serif" font-size="11" lengthAdjust="spacingAndGlyphs" textLength="73" x="12" y="241.3354">Clear() : void</text><!--MD5=[6d093dd77816384d83892ff11248f2ea]
class MonoFlux--><rect fill="#FEFECE" filter="url(#fkhjqkm21vpbh)" height="48" id="MonoFlux" style="stroke: #A80036; stroke-width: 1.5;" width="90" x="135" y="8"/><ellipse cx="150" cy="24" fill="#ADD1B2" rx="11" ry="11" style="stroke: #A80036; stroke-width: 1.0;"/><path d="M152.9688,29.6406 Q152.3906,29.9375 151.75,30.0781 Q151.1094,30.2344 150.4063,30.2344 Q147.9063,30.2344 146.5781,28.5938 Q145.2656,26.9375 145.2656,23.8125 Q145.2656,20.6875 146.5781,19.0313 Q147.9063,17.375 150.4063,17.375 Q151.1094,17.375 151.75,17.5313 Q152.4063,17.6875 152.9688,17.9844 L152.9688,20.7031 Q152.3438,20.125 151.75,19.8594 Q151.1563,19.5781 150.5313,19.5781 Q149.1875,19.5781 148.5,20.6563 Q147.8125,21.7188 147.8125,23.8125 Q147.8125,25.9063 148.5,26.9844 Q149.1875,28.0469 150.5313,28.0469 Q151.1563,28.0469 151.75,27.7813 Q152.3438,27.5 152.9688,26.9219 L152.9688,29.6406 Z "/><text fill="#000000" font-family="sans-serif" font-size="12" lengthAdjust="spacingAndGlyphs" textLength="58" x="164" y="28.1543">MonoFlux</text><line style="stroke: #A80036; stroke-width: 1.5;" x1="136" x2="224" y1="40" y2="40"/><line style="stroke: #A80036; stroke-width: 1.5;" x1="136" x2="224" y1="48" y2="48"/><!--MD5=[a702f0494a1654bc4e6e6732a400eb1d]
reverse link MonoFlux to InputModule--><path d="M180,76.48 C180,88.82 180,102.54 180,115.87 " fill="none" id="MonoFlux&lt;-InputModule" style="stroke: #A80036; stroke-width: 1.0;"/><polygon fill="none" points="173,76.13,180,56.12,187,76.12,173,76.13" style="stroke: #A80036; stroke-width: 1.0;"/><!--MD5=[102df043e838fc2b751770d4931fe708]
@startuml
class InputModule <<sealed>> <<partial>> {
    Update() : void
    OnInput(id:string) : void
    Add(data:(string id, KeyCode code, string inputType)) : void
    Remove(id:string) : void
    Clear() : void
}
MonoFlux <|- - InputModule
@enduml

PlantUML version 1.2020.02(Sun Mar 01 10:22:07 GMT 2020)
(GPL source distribution)
Java Runtime: OpenJDK Runtime Environment
JVM: OpenJDK 64-Bit Server VM
Java Version: 11.0.9+11-Ubuntu-0ubuntu1
Operating System: Linux
Default Encoding: ANSI_X3.4-1968
Language: en
Country: US
--></g></svg>