<?xml version="1.0" encoding="UTF-8" standalone="no"?><svg xmlns="http://www.w3.org/2000/svg" xmlns:xlink="http://www.w3.org/1999/xlink" contentScriptType="application/ecmascript" contentStyleType="text/css" height="130px" preserveAspectRatio="none" style="width:368px;height:130px;" version="1.1" viewBox="0 0 368 130" width="368px" zoomAndPan="magnify"><defs><filter height="300%" id="f1h8re1otaku5w" width="300%" x="-1" y="-1"><feGaussianBlur result="blurOut" stdDeviation="2.0"/><feColorMatrix in="blurOut" result="blurOut2" type="matrix" values="0 0 0 0 0 0 0 0 0 0 0 0 0 0 0 0 0 0 .4 0"/><feOffset dx="4.0" dy="4.0" in="blurOut2" result="blurOut3"/><feBlend in="SourceGraphic" in2="blurOut3" mode="normal"/></filter></defs><g><!--MD5=[dcee7dd92cef15c5ca23a0f6793f0319]
class InputComponent--><rect fill="#FEFECE" filter="url(#f1h8re1otaku5w)" height="112.0234" id="InputComponent" style="stroke: #A80036; stroke-width: 1.5;" width="350" x="7" y="7"/><ellipse cx="125.75" cy="23" fill="#ADD1B2" rx="11" ry="11" style="stroke: #A80036; stroke-width: 1.0;"/><path d="M128.7188,28.6406 Q128.1406,28.9375 127.5,29.0781 Q126.8594,29.2344 126.1563,29.2344 Q123.6563,29.2344 122.3281,27.5938 Q121.0156,25.9375 121.0156,22.8125 Q121.0156,19.6875 122.3281,18.0313 Q123.6563,16.375 126.1563,16.375 Q126.8594,16.375 127.5,16.5313 Q128.1563,16.6875 128.7188,16.9844 L128.7188,19.7031 Q128.0938,19.125 127.5,18.8594 Q126.9063,18.5781 126.2813,18.5781 Q124.9375,18.5781 124.25,19.6563 Q123.5625,20.7188 123.5625,22.8125 Q123.5625,24.9063 124.25,25.9844 Q124.9375,27.0469 126.2813,27.0469 Q126.9063,27.0469 127.5,26.7813 Q128.0938,26.5 128.7188,25.9219 L128.7188,28.6406 Z "/><text fill="#000000" font-family="sans-serif" font-size="12" lengthAdjust="spacingAndGlyphs" textLength="104" x="146.25" y="27.1543">InputComponent</text><line style="stroke: #A80036; stroke-width: 1.5;" x1="8" x2="356" y1="39" y2="39"/><line style="stroke: #A80036; stroke-width: 1.5;" x1="8" x2="356" y1="47" y2="47"/><ellipse cx="18" cy="58" fill="#84BE84" rx="3" ry="3" style="stroke: #038048; stroke-width: 1.0;"/><text fill="#000000" font-family="sans-serif" font-size="11" lengthAdjust="spacingAndGlyphs" textLength="321" x="27" y="61.2104">Subscribe(condition:bool, callback:Action&lt;string&gt;) : void</text><ellipse cx="18" cy="70.8047" fill="#84BE84" rx="3" ry="3" style="stroke: #038048; stroke-width: 1.0;"/><text fill="#000000" font-family="sans-serif" font-size="11" lengthAdjust="spacingAndGlyphs" textLength="83" x="27" y="74.0151">Update() : void</text><ellipse cx="18" cy="83.6094" fill="#84BE84" rx="3" ry="3" style="stroke: #038048; stroke-width: 1.0;"/><text fill="#000000" font-family="sans-serif" font-size="11" lengthAdjust="spacingAndGlyphs" textLength="324" x="27" y="86.8198">Add(data:(string id, KeyCode code, string method)) : void</text><ellipse cx="18" cy="96.4141" fill="#84BE84" rx="3" ry="3" style="stroke: #038048; stroke-width: 1.0;"/><text fill="#000000" font-family="sans-serif" font-size="11" lengthAdjust="spacingAndGlyphs" textLength="135" x="27" y="99.6245">Remove(id:string) : void</text><ellipse cx="18" cy="109.2188" fill="#84BE84" rx="3" ry="3" style="stroke: #038048; stroke-width: 1.0;"/><text fill="#000000" font-family="sans-serif" font-size="11" lengthAdjust="spacingAndGlyphs" textLength="73" x="27" y="112.4292">Clear() : void</text><!--MD5=[dcdf1f0deafebf991b9e5fff5164d383]
@startuml
class InputComponent {
    + Subscribe(condition:bool, callback:Action<string>) : void
    + Update() : void
    + Add(data:(string id, KeyCode code, string method)) : void
    + Remove(id:string) : void
    + Clear() : void
}
@enduml

PlantUML version 1.2020.02(Sun Mar 01 10:22:07 GMT 2020)
(GPL source distribution)
Java Runtime: OpenJDK Runtime Environment
JVM: OpenJDK 64-Bit Server VM
Java Version: 11.0.9+11-Ubuntu-0ubuntu1
Operating System: Linux
Default Encoding: ANSI_X3.4-1968
Language: en
Country: US
--></g></svg>