<?xml version="1.0" encoding="UTF-8" standalone="no"?><svg xmlns="http://www.w3.org/2000/svg" xmlns:xlink="http://www.w3.org/1999/xlink" contentScriptType="application/ecmascript" contentStyleType="text/css" height="136px" preserveAspectRatio="none" style="width:747px;height:136px;" version="1.1" viewBox="0 0 747 136" width="747px" zoomAndPan="magnify"><defs><filter height="300%" id="f41tpm6f5sxup" width="300%" x="-1" y="-1"><feGaussianBlur result="blurOut" stdDeviation="2.0"/><feColorMatrix in="blurOut" result="blurOut2" type="matrix" values="0 0 0 0 0 0 0 0 0 0 0 0 0 0 0 0 0 0 .4 0"/><feOffset dx="4.0" dy="4.0" in="blurOut2" result="blurOut3"/><feBlend in="SourceGraphic" in2="blurOut3" mode="normal"/></filter></defs><g><!--MD5=[564f25bf60acb9a744fad7cbbb0e3ef7]
class InputData--><rect fill="#FEFECE" filter="url(#f41tpm6f5sxup)" height="117.9609" id="InputData" style="stroke: #A80036; stroke-width: 1.5;" width="257" x="6" y="8"/><ellipse cx="99.25" cy="26.9688" fill="#ADD1B2" rx="11" ry="11" style="stroke: #A80036; stroke-width: 1.0;"/><path d="M102.2188,32.6094 Q101.6406,32.9063 101,33.0469 Q100.3594,33.2031 99.6563,33.2031 Q97.1563,33.2031 95.8281,31.5625 Q94.5156,29.9063 94.5156,26.7813 Q94.5156,23.6563 95.8281,22 Q97.1563,20.3438 99.6563,20.3438 Q100.3594,20.3438 101,20.5 Q101.6563,20.6563 102.2188,20.9531 L102.2188,23.6719 Q101.5938,23.0938 101,22.8281 Q100.4063,22.5469 99.7813,22.5469 Q98.4375,22.5469 97.75,23.625 Q97.0625,24.6875 97.0625,26.7813 Q97.0625,28.875 97.75,29.9531 Q98.4375,31.0156 99.7813,31.0156 Q100.4063,31.0156 101,30.75 Q101.5938,30.4688 102.2188,29.8906 L102.2188,32.6094 Z "/><text fill="#000000" font-family="sans-serif" font-size="12" font-style="italic" lengthAdjust="spacingAndGlyphs" textLength="48" x="126.75" y="24.1387">«static»</text><text fill="#000000" font-family="sans-serif" font-size="12" lengthAdjust="spacingAndGlyphs" textLength="62" x="119.75" y="38.1074">InputData</text><line style="stroke: #A80036; stroke-width: 1.5;" x1="7" x2="262" y1="45.9375" y2="45.9375"/><ellipse cx="17" cy="56.9375" fill="none" rx="3" ry="3" style="stroke: #038048; stroke-width: 1.0;"/><text fill="#000000" font-family="sans-serif" font-size="11" lengthAdjust="spacingAndGlyphs" textLength="231" x="26" y="60.1479">«const» SCENE : string = "UniFlux.Input"</text><ellipse cx="17" cy="69.7422" fill="none" rx="3" ry="3" style="stroke: #038048; stroke-width: 1.0;"/><text fill="#000000" font-family="sans-serif" font-size="11" lengthAdjust="spacingAndGlyphs" textLength="115" x="26" y="72.9526">«const» Add : string</text><ellipse cx="17" cy="82.5469" fill="none" rx="3" ry="3" style="stroke: #038048; stroke-width: 1.0;"/><text fill="#000000" font-family="sans-serif" font-size="11" lengthAdjust="spacingAndGlyphs" textLength="139" x="26" y="85.7573">«const» Remove : string</text><ellipse cx="17" cy="95.3516" fill="none" rx="3" ry="3" style="stroke: #038048; stroke-width: 1.0;"/><text fill="#000000" font-family="sans-serif" font-size="11" lengthAdjust="spacingAndGlyphs" textLength="124" x="26" y="98.562">«const» Clear : string</text><ellipse cx="17" cy="108.1563" fill="none" rx="3" ry="3" style="stroke: #038048; stroke-width: 1.0;"/><text fill="#000000" font-family="sans-serif" font-size="11" lengthAdjust="spacingAndGlyphs" textLength="138" x="26" y="111.3667">«const» OnInput : string</text><line style="stroke: #A80036; stroke-width: 1.5;" x1="7" x2="262" y1="117.9609" y2="117.9609"/><!--MD5=[2e1ff885372daab8d802f213ced6c836]
class Dictionary`2--><rect fill="#FEFECE" filter="url(#f41tpm6f5sxup)" height="48" id="Dictionary`2" style="stroke: #A80036; stroke-width: 1.5;" width="146" x="298.5" y="43"/><ellipse cx="313.5" cy="59" fill="#ADD1B2" rx="11" ry="11" style="stroke: #A80036; stroke-width: 1.0;"/><path d="M316.4688,64.6406 Q315.8906,64.9375 315.25,65.0781 Q314.6094,65.2344 313.9063,65.2344 Q311.4063,65.2344 310.0781,63.5938 Q308.7656,61.9375 308.7656,58.8125 Q308.7656,55.6875 310.0781,54.0313 Q311.4063,52.375 313.9063,52.375 Q314.6094,52.375 315.25,52.5313 Q315.9063,52.6875 316.4688,52.9844 L316.4688,55.7031 Q315.8438,55.125 315.25,54.8594 Q314.6563,54.5781 314.0313,54.5781 Q312.6875,54.5781 312,55.6563 Q311.3125,56.7188 311.3125,58.8125 Q311.3125,60.9063 312,61.9844 Q312.6875,63.0469 314.0313,63.0469 Q314.6563,63.0469 315.25,62.7813 Q315.8438,62.5 316.4688,61.9219 L316.4688,64.6406 Z "/><text fill="#000000" font-family="sans-serif" font-size="12" lengthAdjust="spacingAndGlyphs" textLength="76" x="327.5" y="63.1543">Dictionary`2</text><rect fill="#FFFFFF" height="15.9688" style="stroke: #000000; stroke-width: 1.0; stroke-dasharray: 2.0,2.0;" width="36" x="411.5" y="40"/><text fill="#000000" font-family="sans-serif" font-size="12" font-style="italic" lengthAdjust="spacingAndGlyphs" textLength="34" x="412.5" y="52.1387">T1,T2</text><line style="stroke: #A80036; stroke-width: 1.5;" x1="299.5" x2="443.5" y1="75" y2="75"/><line style="stroke: #A80036; stroke-width: 1.5;" x1="299.5" x2="443.5" y1="83" y2="83"/><!--MD5=[51d1123b83e4304017a3b607d840e03b]
link InputData to Dictionary`2--><path d="M275.18,67 C275.18,67 282.3,67 285.27,67 " fill="none" id="InputData-Dictionary`2" style="stroke: #A80036; stroke-width: 1.0;"/><polygon fill="#A80036" points="298.3,67,289.3,63,293.3,67,289.3,71,298.3,67" style="stroke: #A80036; stroke-width: 1.0;"/><line style="stroke: #A80036; stroke-width: 1.0;" x1="293.3" x2="285.3" y1="67" y2="67"/><polygon fill="#FFFFFF" points="263.18,67,269.18,71,275.18,67,269.18,63,263.18,67" style="stroke: #A80036; stroke-width: 1.0;"/><text fill="#000000" font-family="sans-serif" font-size="13" lengthAdjust="spacingAndGlyphs" textLength="280" x="455.28" y="46.5979">FUNCTIONS&lt;string,Func&lt;KeyCode, bool&gt;&gt;</text><!--MD5=[311ef6173c4874533adc57f0f1696ccc]
@startuml
class InputData <<static>> {
    + <<const>> SCENE : string = "UniFlux.Input"
    + <<const>> Add : string
    + <<const>> Remove : string
    + <<const>> Clear : string
    + <<const>> OnInput : string
}
class "Dictionary`2"<T1,T2> {
}
InputData o-> "FUNCTIONS<string,Func<KeyCode, bool>>" "Dictionary`2"
@enduml

PlantUML version 1.2020.02(Sun Mar 01 10:22:07 GMT 2020)
(GPL source distribution)
Java Runtime: OpenJDK Runtime Environment
JVM: OpenJDK 64-Bit Server VM
Java Version: 11.0.9+11-Ubuntu-0ubuntu1
Operating System: Linux
Default Encoding: ANSI_X3.4-1968
Language: en
Country: US
--></g></svg>