<?xml version="1.0" encoding="UTF-8" standalone="no"?><svg xmlns="http://www.w3.org/2000/svg" xmlns:xlink="http://www.w3.org/1999/xlink" contentScriptType="application/ecmascript" contentStyleType="text/css" height="110px" preserveAspectRatio="none" style="width:512px;height:110px;" version="1.1" viewBox="0 0 512 110" width="512px" zoomAndPan="magnify"><defs><filter height="300%" id="fa6rkihbqa719" width="300%" x="-1" y="-1"><feGaussianBlur result="blurOut" stdDeviation="2.0"/><feColorMatrix in="blurOut" result="blurOut2" type="matrix" values="0 0 0 0 0 0 0 0 0 0 0 0 0 0 0 0 0 0 .4 0"/><feOffset dx="4.0" dy="4.0" in="blurOut2" result="blurOut3"/><feBlend in="SourceGraphic" in2="blurOut3" mode="normal"/></filter></defs><g><!--MD5=[e496d6d6bc1509a78e474c2ea0c546f0]
class InputModel--><rect fill="#FEFECE" filter="url(#fa6rkihbqa719)" height="92.3516" id="InputModel" style="stroke: #A80036; stroke-width: 1.5;" width="494" x="7" y="7"/><ellipse cx="215.25" cy="25.9688" fill="#ADD1B2" rx="11" ry="11" style="stroke: #A80036; stroke-width: 1.0;"/><path d="M218.2188,31.6094 Q217.6406,31.9063 217,32.0469 Q216.3594,32.2031 215.6563,32.2031 Q213.1563,32.2031 211.8281,30.5625 Q210.5156,28.9063 210.5156,25.7813 Q210.5156,22.6563 211.8281,21 Q213.1563,19.3438 215.6563,19.3438 Q216.3594,19.3438 217,19.5 Q217.6563,19.6563 218.2188,19.9531 L218.2188,22.6719 Q217.5938,22.0938 217,21.8281 Q216.4063,21.5469 215.7813,21.5469 Q214.4375,21.5469 213.75,22.625 Q213.0625,23.6875 213.0625,25.7813 Q213.0625,27.875 213.75,28.9531 Q214.4375,30.0156 215.7813,30.0156 Q216.4063,30.0156 217,29.75 Q217.5938,29.4688 218.2188,28.8906 L218.2188,31.6094 Z "/><text fill="#000000" font-family="sans-serif" font-size="12" font-style="italic" lengthAdjust="spacingAndGlyphs" textLength="50" x="245.25" y="23.1387">«struct»</text><text fill="#000000" font-family="sans-serif" font-size="12" lengthAdjust="spacingAndGlyphs" textLength="69" x="235.75" y="37.1074">InputModel</text><line style="stroke: #A80036; stroke-width: 1.5;" x1="8" x2="500" y1="44.9375" y2="44.9375"/><ellipse cx="18" cy="55.9375" fill="none" rx="3" ry="3" style="stroke: #038048; stroke-width: 1.0;"/><text fill="#000000" font-family="sans-serif" font-size="11" lengthAdjust="spacingAndGlyphs" textLength="91" x="27" y="59.1479">Id : string «get»</text><line style="stroke: #A80036; stroke-width: 1.5;" x1="8" x2="500" y1="65.7422" y2="65.7422"/><ellipse cx="18" cy="76.7422" fill="#84BE84" rx="3" ry="3" style="stroke: #038048; stroke-width: 1.0;"/><text fill="#000000" font-family="sans-serif" font-size="11" lengthAdjust="spacingAndGlyphs" textLength="468" x="27" y="79.9526">InputModel(data:(string id, KeyCode code, string method), onInput:Action&lt;string&gt;)</text><ellipse cx="18" cy="89.5469" fill="#84BE84" rx="3" ry="3" style="stroke: #038048; stroke-width: 1.0;"/><text fill="#000000" font-family="sans-serif" font-size="11" lengthAdjust="spacingAndGlyphs" textLength="105" x="27" y="92.7573">CheckInput() : void</text><!--MD5=[b0976bea8bbdf04cf7298a2094278799]
@startuml
class InputModel <<struct>> {
    + Id : string <<get>>
    + InputModel(data:(string id, KeyCode code, string method), onInput:Action<string>)
    + CheckInput() : void
}
@enduml

PlantUML version 1.2020.02(Sun Mar 01 10:22:07 GMT 2020)
(GPL source distribution)
Java Runtime: OpenJDK Runtime Environment
JVM: OpenJDK 64-Bit Server VM
Java Version: 11.0.9+11-Ubuntu-0ubuntu1
Operating System: Linux
Default Encoding: ANSI_X3.4-1968
Language: en
Country: US
--></g></svg>