<?xml version="1.0" encoding="UTF-8" standalone="no"?><svg xmlns="http://www.w3.org/2000/svg" xmlns:xlink="http://www.w3.org/1999/xlink" contentScriptType="application/ecmascript" contentStyleType="text/css" height="353px" preserveAspectRatio="none" style="width:1001px;height:353px;" version="1.1" viewBox="0 0 1001 353" width="1001px" zoomAndPan="magnify"><defs><filter height="300%" id="f1fhnayxsa0zu3" width="300%" x="-1" y="-1"><feGaussianBlur result="blurOut" stdDeviation="2.0"/><feColorMatrix in="blurOut" result="blurOut2" type="matrix" values="0 0 0 0 0 0 0 0 0 0 0 0 0 0 0 0 0 0 .4 0"/><feOffset dx="4.0" dy="4.0" in="blurOut2" result="blurOut3"/><feBlend in="SourceGraphic" in2="blurOut3" mode="normal"/></filter></defs><g><!--MD5=[e96610274de9a6e66e2cabcd952a4562]
class OWOModule--><rect fill="#FEFECE" filter="url(#f1fhnayxsa0zu3)" height="117.9609" id="OWOModule" style="stroke: #A80036; stroke-width: 1.5;" width="984" x="6" y="116"/><ellipse cx="456.75" cy="134.9688" fill="#ADD1B2" rx="11" ry="11" style="stroke: #A80036; stroke-width: 1.0;"/><path d="M459.7188,140.6094 Q459.1406,140.9063 458.5,141.0469 Q457.8594,141.2031 457.1563,141.2031 Q454.6563,141.2031 453.3281,139.5625 Q452.0156,137.9063 452.0156,134.7813 Q452.0156,131.6563 453.3281,130 Q454.6563,128.3438 457.1563,128.3438 Q457.8594,128.3438 458.5,128.5 Q459.1563,128.6563 459.7188,128.9531 L459.7188,131.6719 Q459.0938,131.0938 458.5,130.8281 Q457.9063,130.5469 457.2813,130.5469 Q455.9375,130.5469 455.25,131.625 Q454.5625,132.6875 454.5625,134.7813 Q454.5625,136.875 455.25,137.9531 Q455.9375,139.0156 457.2813,139.0156 Q457.9063,139.0156 458.5,138.75 Q459.0938,138.4688 459.7188,137.8906 L459.7188,140.6094 Z "/><text fill="#000000" font-family="sans-serif" font-size="12" font-style="italic" lengthAdjust="spacingAndGlyphs" textLength="55" x="486.75" y="132.1387">«sealed»</text><text fill="#000000" font-family="sans-serif" font-size="12" lengthAdjust="spacingAndGlyphs" textLength="74" x="477.25" y="146.1074">OWOModule</text><line style="stroke: #A80036; stroke-width: 1.5;" x1="7" x2="989" y1="153.9375" y2="153.9375"/><line style="stroke: #A80036; stroke-width: 1.5;" x1="7" x2="989" y1="161.9375" y2="161.9375"/><text fill="#000000" font-family="sans-serif" font-size="11" lengthAdjust="spacingAndGlyphs" textLength="118" x="12" y="176.1479">AutoConnect() : Task</text><text fill="#000000" font-family="sans-serif" font-size="11" lengthAdjust="spacingAndGlyphs" textLength="140" x="12" y="188.9526">Connect(ip:string) : Task</text><text fill="#000000" font-family="sans-serif" font-size="11" lengthAdjust="spacingAndGlyphs" textLength="109" x="12" y="201.7573">Disconnect() : Task</text><text fill="#000000" font-family="sans-serif" font-size="11" lengthAdjust="spacingAndGlyphs" textLength="972" x="12" y="214.562">Send(frequency:int, durationSeconds:float, intensityPercentage:int, rampUpMillis:float, rampDownMillis:float, exitDelaySeconds:float, muscles:(int id, int intensity)[]) : Task</text><text fill="#000000" font-family="sans-serif" font-size="11" lengthAdjust="spacingAndGlyphs" textLength="73" x="12" y="227.3667">Stop() : Task</text><!--MD5=[6d093dd77816384d83892ff11248f2ea]
class MonoFlux--><rect fill="#FEFECE" filter="url(#f1fhnayxsa0zu3)" height="48" id="MonoFlux" style="stroke: #A80036; stroke-width: 1.5;" width="90" x="397" y="8"/><ellipse cx="412" cy="24" fill="#ADD1B2" rx="11" ry="11" style="stroke: #A80036; stroke-width: 1.0;"/><path d="M414.9688,29.6406 Q414.3906,29.9375 413.75,30.0781 Q413.1094,30.2344 412.4063,30.2344 Q409.9063,30.2344 408.5781,28.5938 Q407.2656,26.9375 407.2656,23.8125 Q407.2656,20.6875 408.5781,19.0313 Q409.9063,17.375 412.4063,17.375 Q413.1094,17.375 413.75,17.5313 Q414.4063,17.6875 414.9688,17.9844 L414.9688,20.7031 Q414.3438,20.125 413.75,19.8594 Q413.1563,19.5781 412.5313,19.5781 Q411.1875,19.5781 410.5,20.6563 Q409.8125,21.7188 409.8125,23.8125 Q409.8125,25.9063 410.5,26.9844 Q411.1875,28.0469 412.5313,28.0469 Q413.1563,28.0469 413.75,27.7813 Q414.3438,27.5 414.9688,26.9219 L414.9688,29.6406 Z "/><text fill="#000000" font-family="sans-serif" font-size="12" lengthAdjust="spacingAndGlyphs" textLength="58" x="426" y="28.1543">MonoFlux</text><line style="stroke: #A80036; stroke-width: 1.5;" x1="398" x2="486" y1="40" y2="40"/><line style="stroke: #A80036; stroke-width: 1.5;" x1="398" x2="486" y1="48" y2="48"/><!--MD5=[957fed42e83c605298069843e7f443b7]
class IOWO--><rect fill="#FEFECE" filter="url(#f1fhnayxsa0zu3)" height="48" id="IOWO" style="stroke: #A80036; stroke-width: 1.5;" width="64" x="522" y="8"/><ellipse cx="537" cy="24" fill="#ADD1B2" rx="11" ry="11" style="stroke: #A80036; stroke-width: 1.0;"/><path d="M539.9688,29.6406 Q539.3906,29.9375 538.75,30.0781 Q538.1094,30.2344 537.4063,30.2344 Q534.9063,30.2344 533.5781,28.5938 Q532.2656,26.9375 532.2656,23.8125 Q532.2656,20.6875 533.5781,19.0313 Q534.9063,17.375 537.4063,17.375 Q538.1094,17.375 538.75,17.5313 Q539.4063,17.6875 539.9688,17.9844 L539.9688,20.7031 Q539.3438,20.125 538.75,19.8594 Q538.1563,19.5781 537.5313,19.5781 Q536.1875,19.5781 535.5,20.6563 Q534.8125,21.7188 534.8125,23.8125 Q534.8125,25.9063 535.5,26.9844 Q536.1875,28.0469 537.5313,28.0469 Q538.1563,28.0469 538.75,27.7813 Q539.3438,27.5 539.9688,26.9219 L539.9688,29.6406 Z "/><text fill="#000000" font-family="sans-serif" font-size="12" lengthAdjust="spacingAndGlyphs" textLength="32" x="551" y="28.1543">IOWO</text><line style="stroke: #A80036; stroke-width: 1.5;" x1="523" x2="585" y1="40" y2="40"/><line style="stroke: #A80036; stroke-width: 1.5;" x1="523" x2="585" y1="48" y2="48"/><!--MD5=[62aa9ae1fa1144ad25916db9971ac2f5]
class ConnectionState--><rect fill="#FEFECE" filter="url(#f1fhnayxsa0zu3)" height="48" id="ConnectionState" style="stroke: #A80036; stroke-width: 1.5;" width="137" x="429.5" y="294"/><ellipse cx="444.5" cy="310" fill="#ADD1B2" rx="11" ry="11" style="stroke: #A80036; stroke-width: 1.0;"/><path d="M447.4688,315.6406 Q446.8906,315.9375 446.25,316.0781 Q445.6094,316.2344 444.9063,316.2344 Q442.4063,316.2344 441.0781,314.5938 Q439.7656,312.9375 439.7656,309.8125 Q439.7656,306.6875 441.0781,305.0313 Q442.4063,303.375 444.9063,303.375 Q445.6094,303.375 446.25,303.5313 Q446.9063,303.6875 447.4688,303.9844 L447.4688,306.7031 Q446.8438,306.125 446.25,305.8594 Q445.6563,305.5781 445.0313,305.5781 Q443.6875,305.5781 443,306.6563 Q442.3125,307.7188 442.3125,309.8125 Q442.3125,311.9063 443,312.9844 Q443.6875,314.0469 445.0313,314.0469 Q445.6563,314.0469 446.25,313.7813 Q446.8438,313.5 447.4688,312.9219 L447.4688,315.6406 Z "/><text fill="#000000" font-family="sans-serif" font-size="12" lengthAdjust="spacingAndGlyphs" textLength="105" x="458.5" y="314.1543">ConnectionState</text><line style="stroke: #A80036; stroke-width: 1.5;" x1="430.5" x2="565.5" y1="326" y2="326"/><line style="stroke: #A80036; stroke-width: 1.5;" x1="430.5" x2="565.5" y1="334" y2="334"/><!--MD5=[835858f6b82657e704ac5f48488a27aa]
reverse link MonoFlux to OWOModule--><path d="M458.66,74.95 C463.78,87.83 469.5,102.24 474.96,115.99 " fill="none" id="MonoFlux&lt;-OWOModule" style="stroke: #A80036; stroke-width: 1.0;"/><polygon fill="none" points="452.12,77.45,451.25,56.28,465.14,72.29,452.12,77.45" style="stroke: #A80036; stroke-width: 1.0;"/><!--MD5=[2268cf3921474cb39ef2f81d6f15ba8c]
reverse link IOWO to OWOModule--><path d="M537.34,74.95 C532.22,87.83 526.5,102.24 521.04,115.99 " fill="none" id="IOWO&lt;-OWOModule" style="stroke: #A80036; stroke-width: 1.0;"/><polygon fill="none" points="530.86,72.29,544.75,56.28,543.88,77.45,530.86,72.29" style="stroke: #A80036; stroke-width: 1.0;"/><!--MD5=[d9c311818e9f38de1711095e3eb155f5]
link OWOModule to ConnectionState--><path d="M498,234.16 C498,252.97 498,273 498,288.64 " fill="none" id="OWOModule-&gt;ConnectionState" style="stroke: #A80036; stroke-width: 1.0;"/><polygon fill="#A80036" points="498,293.77,502,284.77,498,288.77,494,284.77,498,293.77" style="stroke: #A80036; stroke-width: 1.0;"/><text fill="#000000" font-family="sans-serif" font-size="13" lengthAdjust="spacingAndGlyphs" textLength="35" x="458.7344" y="283.1189">State</text><!--MD5=[493d9f40cda2ddfa81319d6515fcc996]
@startuml
class OWOModule <<sealed>> {
    AutoConnect() : Task
    Connect(ip:string) : Task
    Disconnect() : Task
    Send(frequency:int, durationSeconds:float, intensityPercentage:int, rampUpMillis:float, rampDownMillis:float, exitDelaySeconds:float, muscles:(int id, int intensity)[]) : Task
    Stop() : Task
}
MonoFlux <|- - OWOModule
IOWO <|- - OWOModule
OWOModule - -> "State" ConnectionState
@enduml

PlantUML version 1.2020.02(Sun Mar 01 10:22:07 GMT 2020)
(GPL source distribution)
Java Runtime: OpenJDK Runtime Environment
JVM: OpenJDK 64-Bit Server VM
Java Version: 11.0.9+11-Ubuntu-0ubuntu1
Operating System: Linux
Default Encoding: ANSI_X3.4-1968
Language: en
Country: US
--></g></svg>