<?xml version="1.0" encoding="UTF-8" standalone="no"?><svg xmlns="http://www.w3.org/2000/svg" xmlns:xlink="http://www.w3.org/1999/xlink" contentScriptType="application/ecmascript" contentStyleType="text/css" height="304px" preserveAspectRatio="none" style="width:463px;height:304px;" version="1.1" viewBox="0 0 463 304" width="463px" zoomAndPan="magnify"><defs><filter height="300%" id="f1ssz57pr7zdjr" width="300%" x="-1" y="-1"><feGaussianBlur result="blurOut" stdDeviation="2.0"/><feColorMatrix in="blurOut" result="blurOut2" type="matrix" values="0 0 0 0 0 0 0 0 0 0 0 0 0 0 0 0 0 0 .4 0"/><feOffset dx="4.0" dy="4.0" in="blurOut2" result="blurOut3"/><feBlend in="SourceGraphic" in2="blurOut3" mode="normal"/></filter></defs><g><!--MD5=[bf7a87d0e2287592a445a9c7dd4ff45a]
class OWOService--><rect fill="#FEFECE" filter="url(#f1ssz57pr7zdjr)" height="67.9063" id="OWOService" style="stroke: #A80036; stroke-width: 1.5;" width="106" x="185" y="8"/><ellipse cx="200" cy="33.9531" fill="#ADD1B2" rx="11" ry="11" style="stroke: #A80036; stroke-width: 1.0;"/><path d="M202.9688,39.5938 Q202.3906,39.8906 201.75,40.0313 Q201.1094,40.1875 200.4063,40.1875 Q197.9063,40.1875 196.5781,38.5469 Q195.2656,36.8906 195.2656,33.7656 Q195.2656,30.6406 196.5781,28.9844 Q197.9063,27.3281 200.4063,27.3281 Q201.1094,27.3281 201.75,27.4844 Q202.4063,27.6406 202.9688,27.9375 L202.9688,30.6563 Q202.3438,30.0781 201.75,29.8125 Q201.1563,29.5313 200.5313,29.5313 Q199.1875,29.5313 198.5,30.6094 Q197.8125,31.6719 197.8125,33.7656 Q197.8125,35.8594 198.5,36.9375 Q199.1875,38 200.5313,38 Q201.1563,38 201.75,37.7344 Q202.3438,37.4531 202.9688,36.875 L202.9688,39.5938 Z "/><text fill="#000000" font-family="sans-serif" font-size="12" font-style="italic" lengthAdjust="spacingAndGlyphs" textLength="48" x="227" y="24.1387">«static»</text><text fill="#000000" font-family="sans-serif" font-size="12" font-style="italic" lengthAdjust="spacingAndGlyphs" textLength="54" x="224" y="38.1074">«partial»</text><text fill="#000000" font-family="sans-serif" font-size="12" lengthAdjust="spacingAndGlyphs" textLength="74" x="214" y="52.0762">OWOService</text><line style="stroke: #A80036; stroke-width: 1.5;" x1="186" x2="290" y1="59.9063" y2="59.9063"/><line style="stroke: #A80036; stroke-width: 1.5;" x1="186" x2="290" y1="67.9063" y2="67.9063"/><!--MD5=[60c9ed31c535bee25c55ce21b5b01399]
class Data--><rect fill="#FEFECE" filter="url(#f1ssz57pr7zdjr)" height="67.9063" id="Data" style="stroke: #A80036; stroke-width: 1.5;" width="82" x="6" y="181"/><ellipse cx="21" cy="206.9531" fill="#ADD1B2" rx="11" ry="11" style="stroke: #A80036; stroke-width: 1.0;"/><path d="M23.9688,212.5938 Q23.3906,212.8906 22.75,213.0313 Q22.1094,213.1875 21.4063,213.1875 Q18.9063,213.1875 17.5781,211.5469 Q16.2656,209.8906 16.2656,206.7656 Q16.2656,203.6406 17.5781,201.9844 Q18.9063,200.3281 21.4063,200.3281 Q22.1094,200.3281 22.75,200.4844 Q23.4063,200.6406 23.9688,200.9375 L23.9688,203.6563 Q23.3438,203.0781 22.75,202.8125 Q22.1563,202.5313 21.5313,202.5313 Q20.1875,202.5313 19.5,203.6094 Q18.8125,204.6719 18.8125,206.7656 Q18.8125,208.8594 19.5,209.9375 Q20.1875,211 21.5313,211 Q22.1563,211 22.75,210.7344 Q23.3438,210.4531 23.9688,209.875 L23.9688,212.5938 Z "/><text fill="#000000" font-family="sans-serif" font-size="12" font-style="italic" lengthAdjust="spacingAndGlyphs" textLength="48" x="36" y="197.1387">«static»</text><text fill="#000000" font-family="sans-serif" font-size="12" font-style="italic" lengthAdjust="spacingAndGlyphs" textLength="54" x="33" y="211.1074">«partial»</text><text fill="#000000" font-family="sans-serif" font-size="12" lengthAdjust="spacingAndGlyphs" textLength="30" x="45" y="225.0762">Data</text><line style="stroke: #A80036; stroke-width: 1.5;" x1="7" x2="87" y1="232.9063" y2="232.9063"/><line style="stroke: #A80036; stroke-width: 1.5;" x1="7" x2="87" y1="240.9063" y2="240.9063"/><!--MD5=[2086e18d236f9616263f91fe5276f8cf]
class Key--><rect fill="#FEFECE" filter="url(#f1ssz57pr7zdjr)" height="157.5391" id="Key" style="stroke: #A80036; stroke-width: 1.5;" width="229" x="123.5" y="136"/><ellipse cx="208.75" cy="161.9531" fill="#ADD1B2" rx="11" ry="11" style="stroke: #A80036; stroke-width: 1.0;"/><path d="M211.7188,167.5938 Q211.1406,167.8906 210.5,168.0313 Q209.8594,168.1875 209.1563,168.1875 Q206.6563,168.1875 205.3281,166.5469 Q204.0156,164.8906 204.0156,161.7656 Q204.0156,158.6406 205.3281,156.9844 Q206.6563,155.3281 209.1563,155.3281 Q209.8594,155.3281 210.5,155.4844 Q211.1563,155.6406 211.7188,155.9375 L211.7188,158.6563 Q211.0938,158.0781 210.5,157.8125 Q209.9063,157.5313 209.2813,157.5313 Q207.9375,157.5313 207.25,158.6094 Q206.5625,159.6719 206.5625,161.7656 Q206.5625,163.8594 207.25,164.9375 Q207.9375,166 209.2813,166 Q209.9063,166 210.5,165.7344 Q211.0938,165.4531 211.7188,164.875 L211.7188,167.5938 Z "/><text fill="#000000" font-family="sans-serif" font-size="12" font-style="italic" lengthAdjust="spacingAndGlyphs" textLength="48" x="230.25" y="152.1387">«static»</text><text fill="#000000" font-family="sans-serif" font-size="12" font-style="italic" lengthAdjust="spacingAndGlyphs" textLength="54" x="227.25" y="166.1074">«partial»</text><text fill="#000000" font-family="sans-serif" font-size="12" lengthAdjust="spacingAndGlyphs" textLength="21" x="243.75" y="180.0762">Key</text><line style="stroke: #A80036; stroke-width: 1.5;" x1="124.5" x2="351.5" y1="187.9063" y2="187.9063"/><ellipse cx="134.5" cy="198.9063" fill="none" rx="3" ry="3" style="stroke: #038048; stroke-width: 1.0;"/><text fill="#000000" font-family="sans-serif" font-size="11" lengthAdjust="spacingAndGlyphs" textLength="134" x="143.5" y="202.1167">«const» Module : string</text><ellipse cx="134.5" cy="211.7109" fill="none" rx="3" ry="3" style="stroke: #038048; stroke-width: 1.0;"/><text fill="#000000" font-family="sans-serif" font-size="11" lengthAdjust="spacingAndGlyphs" textLength="203" x="143.5" y="214.9214">«const» OnConnectionState : string</text><ellipse cx="134.5" cy="224.5156" fill="none" rx="3" ry="3" style="stroke: #038048; stroke-width: 1.0;"/><text fill="#000000" font-family="sans-serif" font-size="11" lengthAdjust="spacingAndGlyphs" textLength="165" x="143.5" y="227.7261">«const» AutoConnect : string</text><ellipse cx="134.5" cy="237.3203" fill="none" rx="3" ry="3" style="stroke: #038048; stroke-width: 1.0;"/><text fill="#000000" font-family="sans-serif" font-size="11" lengthAdjust="spacingAndGlyphs" textLength="140" x="143.5" y="240.5308">«const» Connect : string</text><ellipse cx="134.5" cy="250.125" fill="none" rx="3" ry="3" style="stroke: #038048; stroke-width: 1.0;"/><text fill="#000000" font-family="sans-serif" font-size="11" lengthAdjust="spacingAndGlyphs" textLength="156" x="143.5" y="253.3354">«const» Disconnect : string</text><ellipse cx="134.5" cy="262.9297" fill="none" rx="3" ry="3" style="stroke: #038048; stroke-width: 1.0;"/><text fill="#000000" font-family="sans-serif" font-size="11" lengthAdjust="spacingAndGlyphs" textLength="123" x="143.5" y="266.1401">«const» Send : string</text><ellipse cx="134.5" cy="275.7344" fill="none" rx="3" ry="3" style="stroke: #038048; stroke-width: 1.0;"/><text fill="#000000" font-family="sans-serif" font-size="11" lengthAdjust="spacingAndGlyphs" textLength="120" x="143.5" y="278.9448">«const» Stop : string</text><line style="stroke: #A80036; stroke-width: 1.5;" x1="124.5" x2="351.5" y1="285.5391" y2="285.5391"/><!--MD5=[957fed42e83c605298069843e7f443b7]
class IOWO--><rect fill="#FEFECE" filter="url(#f1ssz57pr7zdjr)" height="48" id="IOWO" style="stroke: #A80036; stroke-width: 1.5;" width="64" x="388" y="191"/><ellipse cx="403" cy="207" fill="#ADD1B2" rx="11" ry="11" style="stroke: #A80036; stroke-width: 1.0;"/><path d="M405.9688,212.6406 Q405.3906,212.9375 404.75,213.0781 Q404.1094,213.2344 403.4063,213.2344 Q400.9063,213.2344 399.5781,211.5938 Q398.2656,209.9375 398.2656,206.8125 Q398.2656,203.6875 399.5781,202.0313 Q400.9063,200.375 403.4063,200.375 Q404.1094,200.375 404.75,200.5313 Q405.4063,200.6875 405.9688,200.9844 L405.9688,203.7031 Q405.3438,203.125 404.75,202.8594 Q404.1563,202.5781 403.5313,202.5781 Q402.1875,202.5781 401.5,203.6563 Q400.8125,204.7188 400.8125,206.8125 Q400.8125,208.9063 401.5,209.9844 Q402.1875,211.0469 403.5313,211.0469 Q404.1563,211.0469 404.75,210.7813 Q405.3438,210.5 405.9688,209.9219 L405.9688,212.6406 Z "/><text fill="#000000" font-family="sans-serif" font-size="12" lengthAdjust="spacingAndGlyphs" textLength="32" x="417" y="211.1543">IOWO</text><line style="stroke: #A80036; stroke-width: 1.5;" x1="389" x2="451" y1="223" y2="223"/><line style="stroke: #A80036; stroke-width: 1.5;" x1="389" x2="451" y1="231" y2="231"/><!--MD5=[1b547ef9946aa77535aa9fcb9c4133a5]
link OWOService to IOWO--><path d="M291.13,73.69 C316.79,90.11 346.93,111.9 370,136 C384.21,150.85 396.69,170.31 405.63,186.07 " fill="none" id="OWOService-&gt;IOWO" style="stroke: #A80036; stroke-width: 1.0;"/><polygon fill="#A80036" points="408.29,190.84,407.3777,181.0335,405.8448,186.4787,400.3996,184.9458,408.29,190.84" style="stroke: #A80036; stroke-width: 1.0;"/><text fill="#000000" font-family="sans-serif" font-size="13" lengthAdjust="spacingAndGlyphs" textLength="46" x="353.3956" y="179.811">Module</text><!--MD5=[c2746c87275aed75dbd3717fdc72054b]
reverse link OWOService to Data--><path d="M171.94,83.62 C149.83,98.72 125.8,116.86 106,136 C92.21,149.34 79.09,166.1 68.75,180.66 " fill="none" id="OWOService&lt;-Data" style="stroke: #A80036; stroke-width: 1.0;"/><ellipse cx="178.0406" cy="79.5581" fill="#FFFFFF" rx="8" ry="8" style="stroke: #A80036; stroke-width: 1.0;"/><line style="stroke: #A80036; stroke-width: 1.0;" x1="171.3913" x2="184.69" y1="84.0063" y2="75.11"/><line style="stroke: #A80036; stroke-width: 1.0;" x1="173.5925" x2="182.4888" y1="72.9088" y2="86.2075"/><!--MD5=[5e15cf1e9411fd2db1bce505d22b39b1]
reverse link OWOService to Key--><path d="M238,91.67 C238,105.41 238,120.72 238,135.73 " fill="none" id="OWOService&lt;-Key" style="stroke: #A80036; stroke-width: 1.0;"/><ellipse cx="238" cy="84.38" fill="#FFFFFF" rx="8" ry="8" style="stroke: #A80036; stroke-width: 1.0;"/><line style="stroke: #A80036; stroke-width: 1.0;" x1="238" x2="238" y1="92.38" y2="76.38"/><line style="stroke: #A80036; stroke-width: 1.0;" x1="230" x2="246" y1="84.38" y2="84.38"/><!--MD5=[e4aca48be5bc6e4b7e0c7b6063202490]
@startuml
class OWOService <<static>> <<partial>> {
}
class OWOService <<static>> <<partial>> {
}
class OWOService <<static>> <<partial>> {
}
class Data <<static>> <<partial>> {
}
class Key <<static>> <<partial>> {
    + <<const>> Module : string
    + <<const>> OnConnectionState : string
    + <<const>> AutoConnect : string
    + <<const>> Connect : string
    + <<const>> Disconnect : string
    + <<const>> Send : string
    + <<const>> Stop : string
}
OWOService - -> "Module" IOWO
OWOService +- - Data
OWOService +- - Key
@enduml

PlantUML version 1.2020.02(Sun Mar 01 10:22:07 GMT 2020)
(GPL source distribution)
Java Runtime: OpenJDK Runtime Environment
JVM: OpenJDK 64-Bit Server VM
Java Version: 11.0.9+11-Ubuntu-0ubuntu1
Operating System: Linux
Default Encoding: ANSI_X3.4-1968
Language: en
Country: US
--></g></svg>