<?xml version="1.0" encoding="UTF-8" standalone="no"?><svg xmlns="http://www.w3.org/2000/svg" xmlns:xlink="http://www.w3.org/1999/xlink" contentScriptType="application/ecmascript" contentStyleType="text/css" height="289px" preserveAspectRatio="none" style="width:221px;height:289px;" version="1.1" viewBox="0 0 221 289" width="221px" zoomAndPan="magnify"><defs><filter height="300%" id="ff2szlal1ymmk" width="300%" x="-1" y="-1"><feGaussianBlur result="blurOut" stdDeviation="2.0"/><feColorMatrix in="blurOut" result="blurOut2" type="matrix" values="0 0 0 0 0 0 0 0 0 0 0 0 0 0 0 0 0 0 .4 0"/><feOffset dx="4.0" dy="4.0" in="blurOut2" result="blurOut3"/><feBlend in="SourceGraphic" in2="blurOut3" mode="normal"/></filter></defs><g><!--MD5=[193c2f99c00cbd558be8f0af94f9f6bd]
class OAIModule--><rect fill="#FEFECE" filter="url(#ff2szlal1ymmk)" height="53.9375" id="OAIModule" style="stroke: #A80036; stroke-width: 1.5;" width="97" x="62.5" y="116"/><ellipse cx="77.5" cy="134.9688" fill="#ADD1B2" rx="11" ry="11" style="stroke: #A80036; stroke-width: 1.0;"/><path d="M80.4688,140.6094 Q79.8906,140.9063 79.25,141.0469 Q78.6094,141.2031 77.9063,141.2031 Q75.4063,141.2031 74.0781,139.5625 Q72.7656,137.9063 72.7656,134.7813 Q72.7656,131.6563 74.0781,130 Q75.4063,128.3438 77.9063,128.3438 Q78.6094,128.3438 79.25,128.5 Q79.9063,128.6563 80.4688,128.9531 L80.4688,131.6719 Q79.8438,131.0938 79.25,130.8281 Q78.6563,130.5469 78.0313,130.5469 Q76.6875,130.5469 76,131.625 Q75.3125,132.6875 75.3125,134.7813 Q75.3125,136.875 76,137.9531 Q76.6875,139.0156 78.0313,139.0156 Q78.6563,139.0156 79.25,138.75 Q79.8438,138.4688 80.4688,137.8906 L80.4688,140.6094 Z "/><text fill="#000000" font-family="sans-serif" font-size="12" font-style="italic" lengthAdjust="spacingAndGlyphs" textLength="55" x="96.5" y="132.1387">«sealed»</text><text fill="#000000" font-family="sans-serif" font-size="12" lengthAdjust="spacingAndGlyphs" textLength="65" x="91.5" y="146.1074">OAIModule</text><line style="stroke: #A80036; stroke-width: 1.5;" x1="63.5" x2="158.5" y1="153.9375" y2="153.9375"/><line style="stroke: #A80036; stroke-width: 1.5;" x1="63.5" x2="158.5" y1="161.9375" y2="161.9375"/><!--MD5=[6d093dd77816384d83892ff11248f2ea]
class MonoFlux--><rect fill="#FEFECE" filter="url(#ff2szlal1ymmk)" height="48" id="MonoFlux" style="stroke: #A80036; stroke-width: 1.5;" width="90" x="6" y="8"/><ellipse cx="21" cy="24" fill="#ADD1B2" rx="11" ry="11" style="stroke: #A80036; stroke-width: 1.0;"/><path d="M23.9688,29.6406 Q23.3906,29.9375 22.75,30.0781 Q22.1094,30.2344 21.4063,30.2344 Q18.9063,30.2344 17.5781,28.5938 Q16.2656,26.9375 16.2656,23.8125 Q16.2656,20.6875 17.5781,19.0313 Q18.9063,17.375 21.4063,17.375 Q22.1094,17.375 22.75,17.5313 Q23.4063,17.6875 23.9688,17.9844 L23.9688,20.7031 Q23.3438,20.125 22.75,19.8594 Q22.1563,19.5781 21.5313,19.5781 Q20.1875,19.5781 19.5,20.6563 Q18.8125,21.7188 18.8125,23.8125 Q18.8125,25.9063 19.5,26.9844 Q20.1875,28.0469 21.5313,28.0469 Q22.1563,28.0469 22.75,27.7813 Q23.3438,27.5 23.9688,26.9219 L23.9688,29.6406 Z "/><text fill="#000000" font-family="sans-serif" font-size="12" lengthAdjust="spacingAndGlyphs" textLength="58" x="35" y="28.1543">MonoFlux</text><line style="stroke: #A80036; stroke-width: 1.5;" x1="7" x2="95" y1="40" y2="40"/><line style="stroke: #A80036; stroke-width: 1.5;" x1="7" x2="95" y1="48" y2="48"/><!--MD5=[893b891c0982a7eb38f27b769b212257]
class IOpenAI--><rect fill="#FEFECE" filter="url(#ff2szlal1ymmk)" height="48" id="IOpenAI" style="stroke: #A80036; stroke-width: 1.5;" width="79" x="131.5" y="8"/><ellipse cx="146.5" cy="24" fill="#ADD1B2" rx="11" ry="11" style="stroke: #A80036; stroke-width: 1.0;"/><path d="M149.4688,29.6406 Q148.8906,29.9375 148.25,30.0781 Q147.6094,30.2344 146.9063,30.2344 Q144.4063,30.2344 143.0781,28.5938 Q141.7656,26.9375 141.7656,23.8125 Q141.7656,20.6875 143.0781,19.0313 Q144.4063,17.375 146.9063,17.375 Q147.6094,17.375 148.25,17.5313 Q148.9063,17.6875 149.4688,17.9844 L149.4688,20.7031 Q148.8438,20.125 148.25,19.8594 Q147.6563,19.5781 147.0313,19.5781 Q145.6875,19.5781 145,20.6563 Q144.3125,21.7188 144.3125,23.8125 Q144.3125,25.9063 145,26.9844 Q145.6875,28.0469 147.0313,28.0469 Q147.6563,28.0469 148.25,27.7813 Q148.8438,27.5 149.4688,26.9219 L149.4688,29.6406 Z "/><text fill="#000000" font-family="sans-serif" font-size="12" lengthAdjust="spacingAndGlyphs" textLength="47" x="160.5" y="28.1543">IOpenAI</text><line style="stroke: #A80036; stroke-width: 1.5;" x1="132.5" x2="209.5" y1="40" y2="40"/><line style="stroke: #A80036; stroke-width: 1.5;" x1="132.5" x2="209.5" y1="48" y2="48"/><!--MD5=[b1d79c5925c64b349b23802e44f3cfa0]
class OpenAIApi--><rect fill="#FEFECE" filter="url(#ff2szlal1ymmk)" height="48" id="OpenAIApi" style="stroke: #A80036; stroke-width: 1.5;" width="95" x="63.5" y="230"/><ellipse cx="78.5" cy="246" fill="#ADD1B2" rx="11" ry="11" style="stroke: #A80036; stroke-width: 1.0;"/><path d="M81.4688,251.6406 Q80.8906,251.9375 80.25,252.0781 Q79.6094,252.2344 78.9063,252.2344 Q76.4063,252.2344 75.0781,250.5938 Q73.7656,248.9375 73.7656,245.8125 Q73.7656,242.6875 75.0781,241.0313 Q76.4063,239.375 78.9063,239.375 Q79.6094,239.375 80.25,239.5313 Q80.9063,239.6875 81.4688,239.9844 L81.4688,242.7031 Q80.8438,242.125 80.25,241.8594 Q79.6563,241.5781 79.0313,241.5781 Q77.6875,241.5781 77,242.6563 Q76.3125,243.7188 76.3125,245.8125 Q76.3125,247.9063 77,248.9844 Q77.6875,250.0469 79.0313,250.0469 Q79.6563,250.0469 80.25,249.7813 Q80.8438,249.5 81.4688,248.9219 L81.4688,251.6406 Z "/><text fill="#000000" font-family="sans-serif" font-size="12" lengthAdjust="spacingAndGlyphs" textLength="63" x="92.5" y="250.1543">OpenAIApi</text><line style="stroke: #A80036; stroke-width: 1.5;" x1="64.5" x2="157.5" y1="262" y2="262"/><line style="stroke: #A80036; stroke-width: 1.5;" x1="64.5" x2="157.5" y1="270" y2="270"/><!--MD5=[90f3f9e84f30aa143dd0ac7a401b23f6]
reverse link MonoFlux to OAIModule--><path d="M73.6,74.06 C81.31,88.07 89.72,103.35 96.61,115.86 " fill="none" id="MonoFlux&lt;-OAIModule" style="stroke: #A80036; stroke-width: 1.0;"/><polygon fill="none" points="67.24,77.01,63.72,56.12,79.5,70.26,67.24,77.01" style="stroke: #A80036; stroke-width: 1.0;"/><!--MD5=[9ad3782762d7ecd628b45ada4e5d744e]
reverse link IOpenAI to OAIModule--><path d="M148.4,74.06 C140.69,88.07 132.28,103.35 125.39,115.86 " fill="none" id="IOpenAI&lt;-OAIModule" style="stroke: #A80036; stroke-width: 1.0;"/><polygon fill="none" points="142.5,70.26,158.28,56.12,154.76,77.01,142.5,70.26" style="stroke: #A80036; stroke-width: 1.0;"/><!--MD5=[74220e532023523b7517e1241a5ffa6c]
link OAIModule to OpenAIApi--><path d="M99.93,170.11 C97.79,186.55 97.69,207.77 99.65,224.62 " fill="none" id="OAIModule-&gt;OpenAIApi" style="stroke: #A80036; stroke-width: 1.0;"/><polygon fill="#A80036" points="100.33,229.7,103.1126,220.2524,99.6729,224.7434,95.182,221.3037,100.33,229.7" style="stroke: #A80036; stroke-width: 1.0;"/><text fill="#000000" font-family="sans-serif" font-size="13" lengthAdjust="spacingAndGlyphs" textLength="19" x="76.4136" y="219.0318">api</text><!--MD5=[74220e532023523b7517e1241a5ffa6c]
link OAIModule to OpenAIApi--><path d="M122.72,170.11 C124.99,186.55 125.09,207.77 123.01,224.62 " fill="none" id="OAIModule-&gt;OpenAIApi-1" style="stroke: #A80036; stroke-width: 1.0;"/><polygon fill="#A80036" points="122.3,229.7,127.4955,221.333,122.9851,224.7472,119.5709,220.2368,122.3,229.7" style="stroke: #A80036; stroke-width: 1.0;"/><text fill="#000000" font-family="sans-serif" font-size="13" lengthAdjust="spacingAndGlyphs" textLength="20" x="102.6169" y="219.0318">API</text><!--MD5=[1f4b6e266f7aba791a5a9beab5900370]
@startuml
class OAIModule <<sealed>> {
}
MonoFlux <|- - OAIModule
IOpenAI <|- - OAIModule
OAIModule - -> "api" OpenAIApi
OAIModule - -> "API" OpenAIApi
@enduml

PlantUML version 1.2020.02(Sun Mar 01 10:22:07 GMT 2020)
(GPL source distribution)
Java Runtime: OpenJDK Runtime Environment
JVM: OpenJDK 64-Bit Server VM
Java Version: 11.0.9+11-Ubuntu-0ubuntu1
Operating System: Linux
Default Encoding: ANSI_X3.4-1968
Language: en
Country: US
--></g></svg>