<?xml version="1.0" encoding="UTF-8" standalone="no"?><svg xmlns="http://www.w3.org/2000/svg" xmlns:xlink="http://www.w3.org/1999/xlink" contentScriptType="application/ecmascript" contentStyleType="text/css" height="381px" preserveAspectRatio="none" style="width:333px;height:381px;" version="1.1" viewBox="0 0 333 381" width="333px" zoomAndPan="magnify"><defs><filter height="300%" id="f128i6cb5yybsv" width="300%" x="-1" y="-1"><feGaussianBlur result="blurOut" stdDeviation="2.0"/><feColorMatrix in="blurOut" result="blurOut2" type="matrix" values="0 0 0 0 0 0 0 0 0 0 0 0 0 0 0 0 0 0 .4 0"/><feOffset dx="4.0" dy="4.0" in="blurOut2" result="blurOut3"/><feBlend in="SourceGraphic" in2="blurOut3" mode="normal"/></filter></defs><g><!--MD5=[2bb31b6ca00751cb25fb7a2e9379ec59]
class OAIService--><rect fill="#FEFECE" filter="url(#f128i6cb5yybsv)" height="80.7109" id="OAIService" style="stroke: #A80036; stroke-width: 1.5;" width="129" x="70.5" y="8"/><ellipse cx="99.9" cy="33.9531" fill="#ADD1B2" rx="11" ry="11" style="stroke: #A80036; stroke-width: 1.0;"/><path d="M102.8688,39.5938 Q102.2906,39.8906 101.65,40.0313 Q101.0094,40.1875 100.3063,40.1875 Q97.8063,40.1875 96.4781,38.5469 Q95.1656,36.8906 95.1656,33.7656 Q95.1656,30.6406 96.4781,28.9844 Q97.8063,27.3281 100.3063,27.3281 Q101.0094,27.3281 101.65,27.4844 Q102.3063,27.6406 102.8688,27.9375 L102.8688,30.6563 Q102.2438,30.0781 101.65,29.8125 Q101.0563,29.5313 100.4313,29.5313 Q99.0875,29.5313 98.4,30.6094 Q97.7125,31.6719 97.7125,33.7656 Q97.7125,35.8594 98.4,36.9375 Q99.0875,38 100.4313,38 Q101.0563,38 101.65,37.7344 Q102.2438,37.4531 102.8688,36.875 L102.8688,39.5938 Z "/><text fill="#000000" font-family="sans-serif" font-size="12" font-style="italic" lengthAdjust="spacingAndGlyphs" textLength="48" x="125.6" y="24.1387">«static»</text><text fill="#000000" font-family="sans-serif" font-size="12" font-style="italic" lengthAdjust="spacingAndGlyphs" textLength="54" x="122.6" y="38.1074">«partial»</text><text fill="#000000" font-family="sans-serif" font-size="12" lengthAdjust="spacingAndGlyphs" textLength="65" x="117.1" y="52.0762">OAIService</text><line style="stroke: #A80036; stroke-width: 1.5;" x1="71.5" x2="198.5" y1="59.9063" y2="59.9063"/><line style="stroke: #A80036; stroke-width: 1.5;" x1="71.5" x2="198.5" y1="67.9063" y2="67.9063"/><ellipse cx="81.5" cy="78.9063" fill="#84BE84" rx="3" ry="3" style="stroke: #038048; stroke-width: 1.0;"/><text fill="#000000" font-family="sans-serif" font-size="11" lengthAdjust="spacingAndGlyphs" text-decoration="underline" textLength="103" x="90.5" y="82.1167">Module() : IOpenAI</text><!--MD5=[60c9ed31c535bee25c55ce21b5b01399]
class Data--><rect fill="#FEFECE" filter="url(#f128i6cb5yybsv)" height="67.9063" id="Data" style="stroke: #A80036; stroke-width: 1.5;" width="82" x="6" y="162"/><ellipse cx="21" cy="187.9531" fill="#ADD1B2" rx="11" ry="11" style="stroke: #A80036; stroke-width: 1.0;"/><path d="M23.9688,193.5938 Q23.3906,193.8906 22.75,194.0313 Q22.1094,194.1875 21.4063,194.1875 Q18.9063,194.1875 17.5781,192.5469 Q16.2656,190.8906 16.2656,187.7656 Q16.2656,184.6406 17.5781,182.9844 Q18.9063,181.3281 21.4063,181.3281 Q22.1094,181.3281 22.75,181.4844 Q23.4063,181.6406 23.9688,181.9375 L23.9688,184.6563 Q23.3438,184.0781 22.75,183.8125 Q22.1563,183.5313 21.5313,183.5313 Q20.1875,183.5313 19.5,184.6094 Q18.8125,185.6719 18.8125,187.7656 Q18.8125,189.8594 19.5,190.9375 Q20.1875,192 21.5313,192 Q22.1563,192 22.75,191.7344 Q23.3438,191.4531 23.9688,190.875 L23.9688,193.5938 Z "/><text fill="#000000" font-family="sans-serif" font-size="12" font-style="italic" lengthAdjust="spacingAndGlyphs" textLength="48" x="36" y="178.1387">«static»</text><text fill="#000000" font-family="sans-serif" font-size="12" font-style="italic" lengthAdjust="spacingAndGlyphs" textLength="54" x="33" y="192.1074">«partial»</text><text fill="#000000" font-family="sans-serif" font-size="12" lengthAdjust="spacingAndGlyphs" textLength="30" x="45" y="206.0762">Data</text><line style="stroke: #A80036; stroke-width: 1.5;" x1="7" x2="87" y1="213.9063" y2="213.9063"/><line style="stroke: #A80036; stroke-width: 1.5;" x1="7" x2="87" y1="221.9063" y2="221.9063"/><!--MD5=[2086e18d236f9616263f91fe5276f8cf]
class Key--><rect fill="#FEFECE" filter="url(#f128i6cb5yybsv)" height="93.5156" id="Key" style="stroke: #A80036; stroke-width: 1.5;" width="199" x="123.5" y="149"/><ellipse cx="193.75" cy="174.9531" fill="#ADD1B2" rx="11" ry="11" style="stroke: #A80036; stroke-width: 1.0;"/><path d="M196.7188,180.5938 Q196.1406,180.8906 195.5,181.0313 Q194.8594,181.1875 194.1563,181.1875 Q191.6563,181.1875 190.3281,179.5469 Q189.0156,177.8906 189.0156,174.7656 Q189.0156,171.6406 190.3281,169.9844 Q191.6563,168.3281 194.1563,168.3281 Q194.8594,168.3281 195.5,168.4844 Q196.1563,168.6406 196.7188,168.9375 L196.7188,171.6563 Q196.0938,171.0781 195.5,170.8125 Q194.9063,170.5313 194.2813,170.5313 Q192.9375,170.5313 192.25,171.6094 Q191.5625,172.6719 191.5625,174.7656 Q191.5625,176.8594 192.25,177.9375 Q192.9375,179 194.2813,179 Q194.9063,179 195.5,178.7344 Q196.0938,178.4531 196.7188,177.875 L196.7188,180.5938 Z "/><text fill="#000000" font-family="sans-serif" font-size="12" font-style="italic" lengthAdjust="spacingAndGlyphs" textLength="48" x="215.25" y="165.1387">«static»</text><text fill="#000000" font-family="sans-serif" font-size="12" font-style="italic" lengthAdjust="spacingAndGlyphs" textLength="54" x="212.25" y="179.1074">«partial»</text><text fill="#000000" font-family="sans-serif" font-size="12" lengthAdjust="spacingAndGlyphs" textLength="21" x="228.75" y="193.0762">Key</text><line style="stroke: #A80036; stroke-width: 1.5;" x1="124.5" x2="321.5" y1="200.9063" y2="200.9063"/><ellipse cx="134.5" cy="211.9063" fill="none" rx="3" ry="3" style="stroke: #038048; stroke-width: 1.0;"/><text fill="#000000" font-family="sans-serif" font-size="11" lengthAdjust="spacingAndGlyphs" textLength="134" x="143.5" y="215.1167">«const» Module : string</text><ellipse cx="134.5" cy="224.7109" fill="none" rx="3" ry="3" style="stroke: #038048; stroke-width: 1.0;"/><text fill="#000000" font-family="sans-serif" font-size="11" lengthAdjust="spacingAndGlyphs" textLength="173" x="143.5" y="227.9214">«const» OnConnection : string</text><line style="stroke: #A80036; stroke-width: 1.5;" x1="124.5" x2="321.5" y1="234.5156" y2="234.5156"/><!--MD5=[7e20e022571e30ec1001cf6eabd7f3e2]
class Model--><rect fill="#FEFECE" filter="url(#f128i6cb5yybsv)" height="67.9063" id="Model" style="stroke: #A80036; stroke-width: 1.5;" width="82" x="6" y="303"/><ellipse cx="21" cy="328.9531" fill="#ADD1B2" rx="11" ry="11" style="stroke: #A80036; stroke-width: 1.0;"/><path d="M23.9688,334.5938 Q23.3906,334.8906 22.75,335.0313 Q22.1094,335.1875 21.4063,335.1875 Q18.9063,335.1875 17.5781,333.5469 Q16.2656,331.8906 16.2656,328.7656 Q16.2656,325.6406 17.5781,323.9844 Q18.9063,322.3281 21.4063,322.3281 Q22.1094,322.3281 22.75,322.4844 Q23.4063,322.6406 23.9688,322.9375 L23.9688,325.6563 Q23.3438,325.0781 22.75,324.8125 Q22.1563,324.5313 21.5313,324.5313 Q20.1875,324.5313 19.5,325.6094 Q18.8125,326.6719 18.8125,328.7656 Q18.8125,330.8594 19.5,331.9375 Q20.1875,333 21.5313,333 Q22.1563,333 22.75,332.7344 Q23.3438,332.4531 23.9688,331.875 L23.9688,334.5938 Z "/><text fill="#000000" font-family="sans-serif" font-size="12" font-style="italic" lengthAdjust="spacingAndGlyphs" textLength="48" x="36" y="319.1387">«static»</text><text fill="#000000" font-family="sans-serif" font-size="12" font-style="italic" lengthAdjust="spacingAndGlyphs" textLength="54" x="33" y="333.1074">«partial»</text><text fill="#000000" font-family="sans-serif" font-size="12" lengthAdjust="spacingAndGlyphs" textLength="37" x="41.5" y="347.0762">Model</text><line style="stroke: #A80036; stroke-width: 1.5;" x1="7" x2="87" y1="354.9063" y2="354.9063"/><line style="stroke: #A80036; stroke-width: 1.5;" x1="7" x2="87" y1="362.9063" y2="362.9063"/><!--MD5=[fe2739a85a4f8df462ac2ed90795d07f]
reverse link OAIService to Data--><path d="M103.1,102.25 C91.09,122.09 77.79,144.1 67.15,161.69 " fill="none" id="OAIService&lt;-Data" style="stroke: #A80036; stroke-width: 1.0;"/><ellipse cx="106.8105" cy="96.1058" fill="#FFFFFF" rx="8" ry="8" style="stroke: #A80036; stroke-width: 1.0;"/><line style="stroke: #A80036; stroke-width: 1.0;" x1="102.671" x2="110.95" y1="102.9516" y2="89.26"/><line style="stroke: #A80036; stroke-width: 1.0;" x1="99.9647" x2="113.6563" y1="91.9663" y2="100.2453"/><!--MD5=[9f4f2b1ffd2eeee9527148a40cc09ef5]
reverse link OAIService to Key--><path d="M166.91,102.26 C176.13,117.51 186.13,134.03 195.09,148.85 " fill="none" id="OAIService&lt;-Key" style="stroke: #A80036; stroke-width: 1.0;"/><ellipse cx="163.1895" cy="96.1058" fill="#FFFFFF" rx="8" ry="8" style="stroke: #A80036; stroke-width: 1.0;"/><line style="stroke: #A80036; stroke-width: 1.0;" x1="167.329" x2="159.05" y1="102.9516" y2="89.26"/><line style="stroke: #A80036; stroke-width: 1.0;" x1="156.3437" x2="170.0353" y1="100.2453" y2="91.9663"/><!--MD5=[994ad045960a22b20cea0946485532be]
reverse link Data to Model--><path d="M47,245.56 C47,264.54 47,285.83 47,302.98 " fill="none" id="Data&lt;-Model" style="stroke: #A80036; stroke-width: 1.0;"/><ellipse cx="47" cy="238.29" fill="#FFFFFF" rx="8" ry="8" style="stroke: #A80036; stroke-width: 1.0;"/><line style="stroke: #A80036; stroke-width: 1.0;" x1="47" x2="47" y1="246.29" y2="230.29"/><line style="stroke: #A80036; stroke-width: 1.0;" x1="39" x2="55" y1="238.29" y2="238.29"/><!--MD5=[92cec1f7f42a376d9a8a145eec4be12b]
@startuml
class OAIService <<static>> <<partial>> {
}
class OAIService <<static>> <<partial>> {
}
class OAIService <<static>> <<partial>> {
    + {static} Module() : IOpenAI
}
class Data <<static>> <<partial>> {
}
class Key <<static>> <<partial>> {
    + <<const>> Module : string
    + <<const>> OnConnection : string
}
class Model <<static>> <<partial>> {
}
OAIService +- - Data
OAIService +- - Key
Data +- - Model
@enduml

PlantUML version 1.2020.02(Sun Mar 01 10:22:07 GMT 2020)
(GPL source distribution)
Java Runtime: OpenJDK Runtime Environment
JVM: OpenJDK 64-Bit Server VM
Java Version: 11.0.9+11-Ubuntu-0ubuntu1
Operating System: Linux
Default Encoding: ANSI_X3.4-1968
Language: en
Country: US
--></g></svg>