<?xml version="1.0" encoding="UTF-8" standalone="no"?><svg xmlns="http://www.w3.org/2000/svg" xmlns:xlink="http://www.w3.org/1999/xlink" contentScriptType="application/ecmascript" contentStyleType="text/css" height="206px" preserveAspectRatio="none" style="width:539px;height:206px;" version="1.1" viewBox="0 0 539 206" width="539px" zoomAndPan="magnify"><defs><filter height="300%" id="fag8tw49gbfbv" width="300%" x="-1" y="-1"><feGaussianBlur result="blurOut" stdDeviation="2.0"/><feColorMatrix in="blurOut" result="blurOut2" type="matrix" values="0 0 0 0 0 0 0 0 0 0 0 0 0 0 0 0 0 0 .4 0"/><feOffset dx="4.0" dy="4.0" in="blurOut2" result="blurOut3"/><feBlend in="SourceGraphic" in2="blurOut3" mode="normal"/></filter></defs><g><!--MD5=[bcf153993e25e73fd2a40ac150fa1a37]
class FuncFluxParam`3--><rect fill="#FEFECE" filter="url(#fag8tw49gbfbv)" height="79.5469" id="FuncFluxParam`3" style="stroke: #A80036; stroke-width: 1.5;" width="399" x="126.5" y="116"/><ellipse cx="199.25" cy="134.9688" fill="#ADD1B2" rx="11" ry="11" style="stroke: #A80036; stroke-width: 1.0;"/><path d="M202.2188,140.6094 Q201.6406,140.9063 201,141.0469 Q200.3594,141.2031 199.6563,141.2031 Q197.1563,141.2031 195.8281,139.5625 Q194.5156,137.9063 194.5156,134.7813 Q194.5156,131.6563 195.8281,130 Q197.1563,128.3438 199.6563,128.3438 Q200.3594,128.3438 201,128.5 Q201.6563,128.6563 202.2188,128.9531 L202.2188,131.6719 Q201.5938,131.0938 201,130.8281 Q200.4063,130.5469 199.7813,130.5469 Q198.4375,130.5469 197.75,131.625 Q197.0625,132.6875 197.0625,134.7813 Q197.0625,136.875 197.75,137.9531 Q198.4375,139.0156 199.7813,139.0156 Q200.4063,139.0156 201,138.75 Q201.5938,138.4688 202.2188,137.8906 L202.2188,140.6094 Z "/><text fill="#000000" font-family="sans-serif" font-size="12" font-style="italic" lengthAdjust="spacingAndGlyphs" textLength="55" x="246.25" y="132.1387">«sealed»</text><text fill="#000000" font-family="sans-serif" font-size="12" lengthAdjust="spacingAndGlyphs" textLength="108" x="219.75" y="146.1074">FuncFluxParam`3</text><rect fill="#FFFFFF" height="15.9688" style="stroke: #000000; stroke-width: 1.0; stroke-dasharray: 2.0,2.0;" width="135" x="393.5" y="113"/><text fill="#000000" font-family="sans-serif" font-size="12" font-style="italic" lengthAdjust="spacingAndGlyphs" textLength="133" x="394.5" y="125.1387">TKey,TParam,TReturn</text><line style="stroke: #A80036; stroke-width: 1.5;" x1="127.5" x2="524.5" y1="153.9375" y2="153.9375"/><line style="stroke: #A80036; stroke-width: 1.5;" x1="127.5" x2="524.5" y1="161.9375" y2="161.9375"/><text fill="#000000" font-family="sans-serif" font-size="11" lengthAdjust="spacingAndGlyphs" textLength="387" x="132.5" y="176.1479">Store(condition:bool, key:TKey, func:Func&lt;TParam, TReturn&gt;) : void</text><text fill="#000000" font-family="sans-serif" font-size="11" lengthAdjust="spacingAndGlyphs" textLength="256" x="132.5" y="188.9526">Dispatch(key:TKey, param:TParam) : TReturn</text><!--MD5=[464c9066330dbad164d46c08fd47f4e0]
class IFluxParamReturn`4--><rect fill="#FEFECE" filter="url(#fag8tw49gbfbv)" height="48" id="IFluxParamReturn`4" style="stroke: #A80036; stroke-width: 1.5;" width="231" x="210.5" y="8"/><ellipse cx="225.5" cy="24" fill="#ADD1B2" rx="11" ry="11" style="stroke: #A80036; stroke-width: 1.0;"/><path d="M228.4688,29.6406 Q227.8906,29.9375 227.25,30.0781 Q226.6094,30.2344 225.9063,30.2344 Q223.4063,30.2344 222.0781,28.5938 Q220.7656,26.9375 220.7656,23.8125 Q220.7656,20.6875 222.0781,19.0313 Q223.4063,17.375 225.9063,17.375 Q226.6094,17.375 227.25,17.5313 Q227.9063,17.6875 228.4688,17.9844 L228.4688,20.7031 Q227.8438,20.125 227.25,19.8594 Q226.6563,19.5781 226.0313,19.5781 Q224.6875,19.5781 224,20.6563 Q223.3125,21.7188 223.3125,23.8125 Q223.3125,25.9063 224,26.9844 Q224.6875,28.0469 226.0313,28.0469 Q226.6563,28.0469 227.25,27.7813 Q227.8438,27.5 228.4688,26.9219 L228.4688,29.6406 Z "/><text fill="#000000" font-family="sans-serif" font-size="12" lengthAdjust="spacingAndGlyphs" textLength="123" x="239.5" y="28.1543">IFluxParamReturn`4</text><rect fill="#FFFFFF" height="15.9688" style="stroke: #000000; stroke-width: 1.0; stroke-dasharray: 2.0,2.0;" width="74" x="370.5" y="5"/><text fill="#000000" font-family="sans-serif" font-size="12" font-style="italic" lengthAdjust="spacingAndGlyphs" textLength="72" x="371.5" y="17.1387">T1,T2,T3,T4</text><line style="stroke: #A80036; stroke-width: 1.5;" x1="211.5" x2="440.5" y1="40" y2="40"/><line style="stroke: #A80036; stroke-width: 1.5;" x1="211.5" x2="440.5" y1="48" y2="48"/><!--MD5=[b681a60ae55237404d34d25e4bf3522f]
reverse link IFluxParamReturn`4 to FuncFluxParam`3--><path d="M326,76.25 C326,89.04 326,102.98 326,115.53 " fill="none" id="IFluxParamReturn`4&lt;-FuncFluxParam`3" style="stroke: #A80036; stroke-width: 1.0;"/><polygon fill="none" points="319,76.23,326,56.23,333,76.23,319,76.23" style="stroke: #A80036; stroke-width: 1.0;"/><text fill="#000000" font-family="sans-serif" font-size="13" lengthAdjust="spacingAndGlyphs" textLength="320" x="-33" y="76.0473">&lt;TKey,TParam,TReturn,Func&lt;TParam, TReturn&gt;&gt;</text><!--MD5=[492746325072033443f8523836195778]
@startuml
class "FuncFluxParam`3"<TKey,TParam,TReturn> <<sealed>> {
    Store(condition:bool, key:TKey, func:Func<TParam, TReturn>) : void
    Dispatch(key:TKey, param:TParam) : TReturn
}
class "IFluxParamReturn`4"<T1,T2,T3,T4> {
}
"IFluxParamReturn`4" "<TKey,TParam,TReturn,Func<TParam, TReturn>>" <|- - "FuncFluxParam`3"
@enduml

PlantUML version 1.2020.02(Sun Mar 01 10:22:07 GMT 2020)
(GPL source distribution)
Java Runtime: OpenJDK Runtime Environment
JVM: OpenJDK 64-Bit Server VM
Java Version: 11.0.9+11-Ubuntu-0ubuntu1
Operating System: Linux
Default Encoding: ANSI_X3.4-1968
Language: en
Country: US
--></g></svg>